<?xml version="1.0" encoding="UTF-8" standalone="no"?>
<svg
   inkscape:export-ydpi="191.99995"
   inkscape:export-xdpi="191.99995"
   inkscape:export-filename="E:\MyFiles\Projects\NHL_Playoffs\NewLogos\BlackhawksCircle.png"
   width="200"
   height="200"
   viewBox="0 0 52.916665 52.916668"
   version="1.1"
   id="svg8"
   inkscape:version="1.2.1 (9c6d41e410, 2022-07-14)"
   sodipodi:docname="BlackhawksCircle.svg"
   xmlns:inkscape="http://www.inkscape.org/namespaces/inkscape"
   xmlns:sodipodi="http://sodipodi.sourceforge.net/DTD/sodipodi-0.dtd"
   xmlns="http://www.w3.org/2000/svg"
   xmlns:svg="http://www.w3.org/2000/svg"
   xmlns:rdf="http://www.w3.org/1999/02/22-rdf-syntax-ns#"
   xmlns:cc="http://creativecommons.org/ns#"
   xmlns:dc="http://purl.org/dc/elements/1.1/">
  <defs
     id="defs2" />
  <sodipodi:namedview
     id="base"
     pagecolor="#ffffff"
     bordercolor="#666666"
     borderopacity="1.0"
     inkscape:pageopacity="0.0"
     inkscape:pageshadow="2"
     inkscape:zoom="2.3675"
     inkscape:cx="-34.846885"
     inkscape:cy="127.13833"
     inkscape:document-units="mm"
     inkscape:current-layer="layer1"
     inkscape:document-rotation="0"
     showgrid="false"
     units="px"
     inkscape:window-width="1920"
     inkscape:window-height="1017"
     inkscape:window-x="1912"
     inkscape:window-y="-8"
     inkscape:window-maximized="1"
     inkscape:showpageshadow="2"
     inkscape:pagecheckerboard="0"
     inkscape:deskcolor="#d1d1d1" />
  <metadata
     id="metadata5">
    <rdf:RDF>
      <cc:Work
         rdf:about="">
        <dc:format>image/svg+xml</dc:format>
        <dc:type
           rdf:resource="http://purl.org/dc/dcmitype/StillImage" />
        <dc:title />
      </cc:Work>
    </rdf:RDF>
  </metadata>
  <g
     inkscape:label="Layer 1"
     inkscape:groupmode="layer"
     id="layer1">
    <ellipse
       style="fill:#cf0a2c;fill-opacity:1;stroke:#00833e;stroke-width:0.529167;stroke-miterlimit:4;stroke-dasharray:none;stroke-opacity:1"
       id="path833"
       cx="13.229163"
       cy="13.229162"
       rx="12.964583"
       ry="12.964584" />
    <g
       transform="matrix(0.07349535,0,0,0.07349535,-7.3495355,-1.4699451)"
       id="g957"
       style="clip-rule:evenodd;fill-rule:evenodd"
       inkscape:export-filename="BlackhawksCircle.png"
       inkscape:export-xdpi="96"
       inkscape:export-ydpi="96">
      <path
         d="m 413.513,235.887 c 0,-9.837 9.647,-46.366 -60.503,-101.612 l 11.791,-2.628 -6.083,-20.015 -11.695,7.806 v -12.12 h -22.972 c -14.998,-10.807 -22.206,-24.6 -45.788,-24.6 -9.85,0 -20.205,1.954 -22.456,1.954 -1.736,0 -6.991,-1.11 -15.919,-1.11 -25.787,0 -28.163,19.235 -24.944,25.99 -33.915,23.237 -50.711,39.971 -50.711,46.038 0,2.328 1.378,5.363 1.378,9.741 0,9.539 -20.611,30.556 -20.611,41.69 0,10.368 13.23,11.087 13.23,11.087 0.75,3.048 -4.378,13.229 0.219,18.419 -6.379,6.927 1.065,10.384 1.065,15.888 0,3.722 -2.595,4.879 -2.595,11.759 0,7.851 3.675,17.281 23.032,17.281 7.646,0 14.419,-1.188 19.798,-1.188 1.519,16.249 8.446,22.627 9.587,26.693 0.939,3.27 3.067,10.323 7.365,10.323 5.615,0 36.591,-10.133 60.109,-24.41 11.775,4.363 26.773,2.94 32.214,2.94 5.958,0 8.398,3.628 11.916,3.628 2.111,0 18.077,-17.873 17.107,-56.967 10.023,16.952 15.95,27.976 16.527,34.293 13.012,-4.646 23.943,-35.373 19.22,-54.951 0,0 16.372,26.569 41.206,22.66 -0.08,0.058 -1.487,-4.836 -1.487,-8.589 v -0.001 z"
         id="path883" />
      <path
         d="m 257.479,260.172 c 6.006,-9.226 2.582,-25.098 -8.849,-20.704 -6.598,-10.774 -14.074,-25.379 -14.074,-43.409 0,-19.218 3.925,-24.253 3.925,-41.236 0,-28.929 -13.387,-34.653 -21.97,-40.47 -20.457,13.839 -47.587,32.808 -47.587,42.894 0,2.971 1.314,5.771 1.314,8.695 0,10.445 -20.331,30.726 -20.331,40.547 0,3.69 2.94,6.77 7.662,6.77 4.722,0 16.748,-1.703 21.267,-2.234 4.519,-0.454 5.018,-2.659 5.018,-3.847 0,-2.94 -4.644,-7.022 -8.161,-7.022 -2.94,0 -3.206,1.722 -3.206,2.16 0,1.925 2.768,2.469 2.768,2.469 3.518,-0.467 3.534,2.613 0.186,2.613 -2.751,0 -5.832,-2.031 -5.832,-5.536 0,-3.518 2.814,-4.394 4.909,-4.394 8.788,0 13.839,7.944 12.386,13.009 10.899,5.412 10.585,13.341 8.788,13.341 -3.77,0 -1.159,-10.025 -15.342,-10.025 -3.969,0 -12.29,1.188 -14.26,1.407 -1.925,0.219 -2.518,0.5 -2.752,2.143 -0.25,1.596 -2.299,7.461 -2.299,11.055 0,5.317 3.55,5.676 5.833,5.676 5.974,0 16.089,-1.439 16.089,-3.815 0,-1.564 -2.562,-1.095 -3.502,-1.095 -1.8,0 -2.613,-1.095 -2.613,-1.736 0,-1.597 2.581,-2.347 5.645,-2.347 5.082,0 5.615,3.332 5.363,4.863 -0.563,3.425 4.941,2.595 4.941,9.867 0,0.828 -0.062,2.907 -1.799,2.907 -1.75,0 -1.766,-2.172 -1.766,-3.392 0,-1.188 -1.986,-3.112 -3.69,-3.112 -1.799,0 -8.337,3.361 -22.408,2.079 -5.552,6.991 1.001,7.49 1.001,14.543 0,7.851 -2.408,7.368 -2.408,12.152 0,9.554 10.477,12.04 20.939,12.04 21.642,0 46.068,-5.005 54.669,-20.501 -2.94,13.684 -13.965,18.578 -32.714,22.846 2.127,15.187 5.27,18.689 7.553,22.785 2.283,4.129 2.784,9.867 6.818,9.867 4.832,0 33.307,-10.258 52.463,-21.815 l -13.975,-30.039 v -10e-4 z"
         fill="#d18a00"
         id="path885" />
      <path
         d="m 230.427,230.15 c -4.159,-4.52 -10.398,-17.656 2.002,-28.9 -9.476,-2.549 -22.518,22.814 -2.002,28.9 z m -14.841,-87.571 c 0.564,0.668 1.57,0.765 2.253,0.219 0.499,-0.438 0.843,-1.487 0.186,-2.251 -0.186,-0.235 -4.348,-5.16 -10.165,-9.93 0.688,-0.518 1.596,-1.188 2.565,-1.925 2.469,2.066 12.04,10.275 18.062,17.766 0.58,0.688 1.566,0.783 2.253,0.235 0.688,-0.547 0.766,-1.532 0.25,-2.221 -5.894,-7.32 -14.762,-15.014 -17.935,-17.749 1.046,-0.751 1.951,-1.456 2.423,-1.784 6.458,4.691 10.116,9.194 10.165,9.242 0.547,0.688 1.548,0.796 2.221,0.25 0.688,-0.563 0.828,-1.548 0.281,-2.236 -0.203,-0.25 -4.332,-5.301 -11.775,-10.524 -0.563,-0.406 -1.298,-0.39 -1.877,0.032 l -10.133,7.584 c -0.939,0.69 -0.75,1.925 -0.032,2.536 6.336,4.925 11.215,10.693 11.261,10.757 h -0.003 z m -3.029,13.291 c -9.648,0 -12.824,-10.352 -24.944,-10.352 -6.505,0 -9.85,2.549 -9.85,4.707 0,2.159 2.518,4.049 2.518,4.049 1.221,2.66 -7.224,5.569 -2.784,7.35 l 5.456,2.127 c -1.766,3.096 -0.624,8.836 -0.279,10.275 -11.167,0.093 -10.089,3.564 -0.408,3.704 0.033,1.597 -1.108,5.865 0.627,5.865 1.829,0 4.175,-2.143 5.067,-6.209 8.13,-1.001 17.293,-3.799 17.293,-3.799 1.626,-0.451 3.268,-1.938 0.125,-3.797 l -14.948,-8.805 c 0,0 -1.282,-0.75 -0.438,-2.705 l 1.142,-2.644 c 0.328,-0.796 1.142,-0.907 1.532,-0.907 4.253,0 10.649,6.364 19.093,6.364 3.659,0 7.739,-2.144 7.739,-4.208 0,-2.064 -5.018,-1.016 -6.943,-1.016 v 0.001 z"
         id="path887" />
      <path
         d="m 189.426,166.27 c -0.828,3.093 -0.25,6.644 -0.046,7.583 9.587,-0.579 13.514,-2.33 13.514,-2.33 l -13.469,-5.253 z m -14.762,79.671 c -1.049,0.518 3.222,9.383 2.456,13.355 0.64,1.799 3.299,8.398 7.786,6.114 4.474,-2.283 0.69,-8.27 -0.389,-9.867 -3.69,-1.739 -8.804,-10.166 -9.85,-9.603 z m 39.516,-62.91 c -3.706,0.986 -7.099,4.66 -13.806,6.46 -2.488,0.641 -6.837,0.016 -8.132,0.016 1.017,1.377 3.69,3.77 3.69,3.77 0,0 -0.985,2.439 -1.188,4.111 1.11,-0.656 4.363,-2.626 6.85,-3.266 6.724,-1.768 11.478,-0.22 15.184,-1.189 1.736,-0.485 4.925,-1.361 3.644,-6.286 -1.285,-4.898 -4.521,-4.102 -6.242,-3.615 z"
         fill="#ffffff"
         id="path889" />
      <path
         d="m 253.555,240.889 c -4.097,-1.187 -8.961,3.113 -10.852,9.587 -1.878,6.474 -0.08,12.682 4.002,13.902 4.097,1.188 8.945,-3.08 10.836,-9.585 1.893,-6.474 0.08,-12.713 -3.988,-13.903 l 0.001,-10e-4 z m -74.121,2.847 c -2.005,-2.784 -3.082,-0.281 -5.209,0.86 -2.127,1.062 -4.832,0.485 -3.69,3.722 1.204,3.518 -1.345,10.665 -0.235,12.824 0.905,1.735 2.845,2.407 4.425,1.625 1.423,-0.765 2.111,-2.018 2.392,-3.486 0.766,-3.972 -1.532,-9.461 -0.485,-10.023 1.031,-0.548 4.175,4.549 7.85,6.253 1.345,0.611 2.768,0.799 4.208,0.096 1.58,-0.828 2.157,-2.846 1.281,-4.58 -1.126,-2.16 -8.396,-4.271 -10.54,-7.288 l 0.004,-0.003 z m 28.975,-47.445 c -1.095,0.299 -2.768,1.237 -5.52,1.971 -2.737,0.735 -6.178,0.75 -6.725,-1.361 -0.06,-0.182 -0.065,-0.378 -0.016,-0.563 0.203,-1.703 2.69,-3.969 2.69,-3.969 0,0 -3.284,-0.737 -4.301,-2.128 -0.114,-0.151 -0.203,-0.321 -0.266,-0.5 -0.562,-2.095 2.472,-3.783 5.209,-4.504 2.721,-0.735 4.66,-0.735 5.771,-1.001 2.22,-0.595 4.079,-2.064 3.627,-3.815 -0.889,-3.27 -5.129,-2.472 -7.474,-1.862 -11.73,3.096 -14.324,7.912 -13.465,11.257 0.876,3.332 4.673,4.192 4.673,4.192 0,0 -2.875,2.628 -2.001,5.958 0.86,3.315 5.504,6.223 17.231,3.144 2.363,-0.624 6.46,-2.018 5.615,-5.27 -0.487,-1.796 -2.849,-2.124 -5.052,-1.545 l 0.004,-0.003 z m 120.112,-64.817 c -34.218,25.613 -52.622,63.801 -58.219,76.873 0,0 -0.735,1.532 0.125,3.206 l 10.836,21.111 c 0.454,0.889 1.423,1.031 2.159,0.358 l 17.828,-16.089 c 1.219,-1.126 1.625,-2.907 1.625,-2.907 8.131,-46.524 19.093,-69.26 25.926,-79.565 -0.231,-0.749 -0.346,-1.529 -0.342,-2.314 0.061,-0.236 0.061,-0.455 0.061,-0.674 z"
         fill="#cf0a2c"
         id="path891" />
      <path
         d="m 356.919,117.839 -9.194,6.083 2.143,7.004 10.321,-2.283 -3.268,-10.806 -10e-4,0.003 z m -25.222,21.359 c -0.673,-0.588 -1.248,-1.28 -1.706,-2.047 -10.962,17.576 -24.957,61.55 -24.957,99.188 0,38.515 11.791,58.968 16.028,58.968 3.268,0 14.808,-20.609 14.808,-47.193 0,-7.272 -6.083,-36.374 -6.083,-91.027 0.016,-11.695 0.892,-14.823 1.908,-17.888 l 0.001,-0.001 z m -58.689,70.291 9.711,20.988 17.669,-16.373 c 0,0 8.523,-49.696 23.709,-77.093 -40.081,38.873 -51.09,72.479 -51.09,72.479 h 10e-4 z m 64.912,-84.456 h -0.004 c -3.917,0 -7.142,3.224 -7.142,7.142 v 0.003 c 0,3.956 3.206,7.145 7.146,7.145 3.94,0 7.146,-3.19 7.146,-7.146 0,-3.956 -3.207,-7.147 -7.147,-7.147 l 0.001,0.004 z"
         fill="#00833e"
         id="path893" />
      <path
         d="m 310.008,138.09 c 2.376,0 2.079,-3.206 -0.159,-3.206 -34.244,0 -53.87,4.348 -56.887,5.067 -1.908,-16.78 -11.556,-22.143 -11.556,-32.995 0,-4.224 2.784,-5.068 5.067,-5.068 8.005,0 14.01,9.383 25.112,9.383 10.321,0 12.541,-7.319 18.436,-7.319 8.82,0 4.941,23.487 20.579,23.487 4.941,0 8.177,-1.97 8.177,-1.97 2.144,-1.172 0.126,-3.69 -1.673,-2.752 0,0 -3.142,1.61 -6.222,1.61 -13.23,0 -7.461,-23.566 -21.187,-23.566 -6.584,0 -8.788,7.256 -18.28,7.256 -10.62,0 -14.826,-9.492 -25.35,-9.492 -5.974,0 -8.116,3.988 -8.116,8.005 0,12.027 11.868,21.174 11.868,37.656 0,16.78 -5.722,31.525 -5.722,54.826 0,27.161 25.801,35.168 25.801,60.486 0,14.324 5.504,23.144 11.634,23.144 3.377,0 6.521,-1.986 8.022,-7.24 0.889,0.358 1.673,0.547 2.376,0.547 1.739,0 8.148,-1.861 8.148,-9.412 0,-21.598 -37.09,-32.747 -37.09,-66.57 0,-16.262 2.611,-42.284 6.598,-42.284 2.097,0 4.709,9.101 9.696,9.101 6.193,0 4.036,-17.969 6.786,-17.969 2.221,0 5.52,8.398 9.445,8.398 3.175,0 4.224,-6.521 5.583,-11.634 0.518,-2.392 -2.846,-3.049 -3.332,-0.641 -0.859,3.799 -2.658,8.836 -2.658,8.836 -2.048,-2.018 -5.286,-8.18 -9.226,-8.18 -6.286,0 -5.363,17.935 -6.786,17.935 -2.628,0 -4.285,-9.319 -10.023,-9.319 -7.381,0 -9.555,25.677 -9.555,45.881 0,35.544 37.124,47.458 37.124,66.083 0,4.677 -3.425,6.287 -4.802,6.287 -0.547,0 -1.095,-0.157 -1.673,-0.328 0.186,-1.284 0.281,-2.721 0.281,-4.301 0,-10.962 -6.036,-13.041 -8.491,-13.041 -2.443,0 -3.832,2.143 -3.832,5.676 0,4.739 4.191,9.992 8.27,13.01 -0.624,2.956 -1.906,5.678 -4.66,5.678 -5.331,0 -8.363,-12.372 -8.363,-19.766 0,-26.725 -25.788,-34.451 -25.788,-61.145 0,-22.736 5.739,-37.309 5.739,-52.415 0,-0.923 -0.016,-1.829 -0.062,-2.735 3.531,-0.789 25.627,-5.729 56.745,-5.01 l 0.003,0.007 z"
         fill="#ffd100"
         id="path895" />
      <path
         d="m 282.564,258.155 c -0.485,0 -0.969,0.704 -0.969,2.533 0,2.08 2.33,6.38 5.238,9.226 0.093,-1.47 0.08,-2.69 0.08,-3.332 -0.003,-2.407 -1.362,-8.427 -4.349,-8.427 z"
         id="path897" />
      <path
         d="m 327.255,146.55 c 0,0 -19.514,41.079 -19.514,88.946 0,31.697 9.834,55.92 12.555,55.92 2.143,0 12.151,-15.09 12.151,-46.585 0,-12.698 -6.863,-61.017 -5.191,-98.281 z"
         fill="#ffd100"
         id="path899" />
      <path
         d="m 317.951,206.848 -7.053,5.443 c -0.828,6.817 -1.377,13.87 -1.47,21.11 l 7.757,-5.287 c 0.062,-6.191 0.266,-13.275 0.766,-21.267 z m 5.224,-32.152 c -1.239,10.408 -2.188,20.847 -2.846,31.308 l 7.881,5.818 c -1.062,-11.589 -2.172,-24.567 -2.658,-36.967 -0.062,-1.766 -2.018,-3.425 -2.376,-0.157 l -10e-4,-0.003 z m -3.706,54.623 10.931,7.538 c -0.39,-6.053 -1.188,-13.933 -2.018,-22.69 l -8.177,-6.083 c -0.425,7.07 -0.669,14.151 -0.735,21.235 z m 1.314,-54.543 c 0.279,-2.143 -1.503,-1.799 -1.862,-0.547 -2.955,10.009 -5.894,22.222 -7.726,35.606 l 6.866,-5.286 c 0.661,-9.946 1.568,-19.873 2.721,-29.773 z m -9.651,83.739 c 0.548,3.659 1.189,7.053 1.925,10.133 1.126,1.221 4.269,3.455 6.927,-4.519 4.519,7.49 7.365,6.505 8.241,5.864 0.611,-2.752 1.158,-5.771 1.596,-9.133 l -10.836,-7.208 -7.85,4.864 h -0.003 z m 9.008,-6.255 9.93,6.631 c 0.494,-4.654 0.739,-9.331 0.735,-14.012 0,-1.564 -0.093,-3.487 -0.219,-5.708 l -11.116,-7.63 c -0.032,9.445 0.374,16.372 0.672,20.72 h -10e-4 z m -2.987,-21.954 -7.726,5.286 c 0,7.567 0.548,14.636 1.44,20.984 l 6.959,-4.332 c -0.377,-4.66 -0.704,-11.995 -0.674,-21.94 l 0.001,0.001 z"
         fill="#00833e"
         id="path901" />
      <g
         fill="#cf0a2c"
         transform="matrix(1.327,0,0,1.327,145,82.718)"
         id="g907">
        <path
           d="m 106.347,78.5 c -3.57,5.878 -6.467,12.12 -7.74,15.007 -0.506,1.237 -0.718,1.932 -0.718,1.932 l 6.278,13.546 11.568,-10.767 c 0.14,-0.602 1.178,-6.362 2.968,-14.148 2.603,-11.026 6.95,-27.176 11.733,-36.976 -10.555,11.402 -19.072,23.405 -24.09,31.404 z"
           id="path903" />
        <circle
           cx="145.326"
           cy="37.247002"
           r="3.4400001"
           id="circle905" />
      </g>
      <path
         d="m 306.897,161.86 c -0.39,-0.203 -0.922,-0.046 -1.095,0.358 -2.953,5.857 -5.731,11.801 -8.334,17.822 l -9.753,4.313 c -0.547,0.863 -1.048,1.672 -1.547,2.503 l 10.319,-4.565 c -2.689,6.317 -4.861,12.052 -6.691,17.039 l -13.005,5.268 c -0.311,0.721 -0.613,1.445 -0.908,2.172 l 13.161,-5.348 c -4.034,11.492 -5.69,18.555 -5.737,18.666 -0.093,0.421 0.173,0.921 0.624,0.969 l 0.176,0.019 c 0.39,0 0.731,-0.277 0.809,-0.661 0.032,-0.093 1.626,-6.861 5.502,-17.977 l 6.988,11.739 1.188,-1.125 0.032,-0.032 -7.488,-12.599 c 1.626,-4.565 3.596,-9.769 5.987,-15.475 l 5.408,9.302 c 0.186,-0.783 0.328,-1.566 0.547,-2.362 l -5.128,-8.864 c 2.627,-6.189 5.674,-12.942 9.316,-20.07 0.206,-0.374 0.019,-0.843 -0.372,-1.093 v 0.003 z"
         fill="#ffffff"
         id="path909" />
      <path
         d="m 343.037,111.105 h -15.053 l 9.613,10.41 h 5.441 v -10.41 z m 55.804,74.969 c -16.398,-26.354 -45.034,-48.505 -51.6,-53.412 -0.093,1.515 -1.563,4.016 -2.282,5.251 -0.889,0.955 -1.924,2.079 -2.439,2.375 1.125,4.552 2.876,11.054 5.189,18.605 3.456,8.377 7.301,18.711 10.568,29.479 3.722,8.908 8.052,17.787 12.945,25.651 20.306,32.638 40.58,28.151 40.58,28.151 -3.486,-5.547 6.737,-24.385 -12.958,-56.102 l -10e-4,0.001 z"
         fill="#ff671b"
         id="path911" />
      <path
         d="m 392.777,187.949 c -12.944,-20.834 -40.517,-45.612 -46.77,-51.129 -0.358,0.687 -0.86,1.327 -1.407,1.907 3.939,11.192 19.289,53.21 33.436,75.939 13.801,22.227 27.292,21.134 27.292,21.134 0,0 4.532,-20.307 -12.553,-47.852 l 0.001,0.001 z"
         fill="#ffffff"
         id="path913" />
      <path
         d="m 346.677,139.695 c 2.205,6.128 6.535,17.928 11.912,30.981 l 1.438,-7.909 -7.017,-11.287 c -0.084,-0.133 -0.129,-0.285 -0.129,-0.443 0,-0.293 0.157,-0.565 0.41,-0.714 0.422,-0.235 0.922,-0.125 1.125,0.281 l 6.754,10.786 10.409,2.58 c -9.942,-10.643 -19.993,-19.914 -24.901,-24.275 h -0.003 z m 15.68,23.728 12.427,19.977 16.134,4.768 c -4.549,-7.175 -10.802,-14.819 -17.304,-21.962 l -11.256,-2.783 z m -2.627,10.098 c 3.018,7.253 6.348,14.803 9.771,21.885 l 4.031,-10.881 -12.208,-19.648 -1.592,8.644 h -0.001 z m 44.192,60.572 c 0.358,-3.142 0.922,-11.536 -2.501,-23.119 l -10.692,-1.953 6.283,10.129 c 0.283,0.358 0.126,0.889 -0.279,1.125 -0.361,0.252 -0.924,0.126 -1.158,-0.279 l -6.347,-10.255 -4.034,12.052 c 8.381,9.972 15.822,11.895 18.729,12.301 z m -27.823,-48.568 13.429,21.59 11.333,2.062 c -1.798,-5.658 -4.517,-12.052 -8.644,-18.883 l -16.116,-4.768 -10e-4,-0.001 z m 7.848,34.767 4.157,-12.368 -13.429,-21.617 -4.127,11.176 c 2.941,5.971 5.925,11.552 8.88,16.304 1.531,2.439 3.032,4.613 4.517,6.502 l 0.001,0.003 z"
         fill="#ff671b"
         id="path915" />
      <path
         d="m 188.035,153.654 -6.082,1.626 c -1.282,0.329 -1.344,1.064 -0.125,1.659 l 4.611,2.22 c 0.126,0.061 0.264,0.093 0.403,0.093 0.365,0 0.697,-0.215 0.847,-0.547 l 1.579,-3.625 c 0.454,-1.079 -0.109,-1.72 -1.234,-1.423 v -0.003 z"
         fill="#d18a00"
         id="path917" />
      <ellipse
         cx="79.206001"
         cy="128.00999"
         fill="#d18a00"
         rx="5.8429999"
         ry="3.2390001"
         transform="matrix(0.37,-1.274,1.274,0.37,57.641,306.047)"
         id="ellipse919" />
      <path
         d="m 358.278,188.387 c -3.267,-10.753 -7.113,-21.086 -10.567,-29.479 -2.314,-7.564 -4.066,-14.069 -5.191,-18.602 -2.01,1.136 -4.367,1.502 -6.627,1.03 -0.889,-0.186 -1.672,-0.5 -2.468,-0.906 -2.909,67.405 3.782,79.067 5,98.324 17.007,26.808 17.617,34.624 17.617,34.624 0,0 19.868,-13.928 15.303,-55.256 -0.649,-0.969 -1.279,-1.949 -1.891,-2.941 -2.837,-4.621 -5.446,-9.378 -7.816,-14.255"
         fill="#ffd100"
         id="path921" />
      <path
         d="m 363.889,212.257 c -0.6,-3.807 -1.355,-7.588 -2.265,-11.333 -0.969,-4.189 -2.142,-8.395 -3.361,-12.522 -3.267,-10.754 -7.143,-21.086 -10.567,-29.481 -3.392,-8.222 -6.317,-14.553 -7.723,-17.601 -0.703,0.157 -1.407,0.249 -2.14,0.249 -0.673,0 -1.344,-0.08 -1.953,-0.203 -0.641,7.253 -2.954,38.267 1.469,66.184 6.314,40.049 21.524,54.553 21.524,54.553 0,0 10.519,-15.128 5.016,-49.847 h 10e-4 z"
         fill="#001970"
         id="path923" />
      <path
         d="m 344.382,186.761 -5.252,-33.202 c -0.249,-1.5 -2.235,-1.314 -2.313,0.86 -0.425,10.083 -0.61,24.292 0.608,38.797 l 6.956,-6.456 h 0.001 z m 5.534,35.016 -2.594,-16.415 -7.298,7.255 c 1.154,6.111 2.531,11.534 4.001,16.396 l 5.892,-7.237 v 10e-4 z m -12.319,-26.354 c 0.358,3.968 0.889,7.939 1.5,11.847 0.188,1.109 0.329,2.203 0.518,3.251 l 7.394,-7.269 -2.282,-14.398 -7.13,6.569 h 0.001 z m 3.267,-42.128 c 0,0 2.72,17.195 5.313,33.655 l 11.724,6.595 c -4.363,-15.677 -10.506,-31.012 -14.898,-41.203 -0.484,-1.298 -2.439,-1.016 -2.142,0.953 z m 13.599,87.476 c -0.125,-0.548 -3.142,-12.881 -4.095,-16.789 l -5.737,7.02 c 2.078,6.439 4.297,11.753 6.409,15.959 1.091,-2.004 3.202,-5.786 3.421,-6.192 l 10e-4,0.003 z m -7.942,-51.616 c 0.766,4.768 1.531,9.504 2.203,13.867 l 13.132,7.484 c -0.829,-4.767 -1.955,-9.661 -3.268,-14.568 l -12.068,-6.784 h 0.001 z m 2.535,16.053 c 1.247,7.754 2.233,13.943 2.593,16.273 l 12.036,6.502 c -0.157,-4.578 -0.61,-9.645 -1.469,-15.274 l -13.161,-7.502 h 10e-4 z m 13.097,42.613 -6.502,-5.58 -3.657,6.628 c 2.72,5.033 5.096,8.363 6.595,10.191 0.969,-2.079 2.439,-5.768 3.564,-11.24 z m 1.547,-17.822 -11.601,-6.25 c 0.889,3.579 3.424,14.036 4.065,16.662 l 6.348,5.471 c 0.766,-4.346 1.282,-9.629 1.188,-15.882 z"
         fill="#ffd100"
         id="path925" />
    </g>
  </g>
</svg>
