<?xml version="1.0" encoding="UTF-8" standalone="no"?>
<svg
   xmlns:dc="http://purl.org/dc/elements/1.1/"
   xmlns:cc="http://creativecommons.org/ns#"
   xmlns:rdf="http://www.w3.org/1999/02/22-rdf-syntax-ns#"
   xmlns:svg="http://www.w3.org/2000/svg"
   xmlns="http://www.w3.org/2000/svg"
   xmlns:sodipodi="http://sodipodi.sourceforge.net/DTD/sodipodi-0.dtd"
   xmlns:inkscape="http://www.inkscape.org/namespaces/inkscape"
   inkscape:export-ydpi="191.99995"
   inkscape:export-xdpi="191.99995"
   inkscape:export-filename="E:\MyFiles\Projects\NHL_Playoffs\NewLogos\BlueJacketsCircle.png"
   width="200"
   height="200"
   viewBox="0 0 52.916665 52.916668"
   version="1.1"
   id="svg8"
   inkscape:version="1.0 (4035a4fb49, 2020-05-01)"
   sodipodi:docname="BlueJacketsCircle.svg">
  <defs
     id="defs2" />
  <sodipodi:namedview
     id="base"
     pagecolor="#ffffff"
     bordercolor="#666666"
     borderopacity="1.0"
     inkscape:pageopacity="0.0"
     inkscape:pageshadow="2"
     inkscape:zoom="2.8"
     inkscape:cx="52.216013"
     inkscape:cy="69.643295"
     inkscape:document-units="mm"
     inkscape:current-layer="layer1"
     inkscape:document-rotation="0"
     showgrid="false"
     units="px"
     inkscape:window-width="1600"
     inkscape:window-height="1137"
     inkscape:window-x="1912"
     inkscape:window-y="-8"
     inkscape:window-maximized="1" />
  <metadata
     id="metadata5">
    <rdf:RDF>
      <cc:Work
         rdf:about="">
        <dc:format>image/svg+xml</dc:format>
        <dc:type
           rdf:resource="http://purl.org/dc/dcmitype/StillImage" />
        <dc:title />
      </cc:Work>
    </rdf:RDF>
  </metadata>
  <g
     inkscape:label="Layer 1"
     inkscape:groupmode="layer"
     id="layer1">
    <ellipse
       style="fill:#002654;stroke:#a4a9ad;stroke-width:1.05833333;stroke-miterlimit:4;stroke-dasharray:none;stroke-opacity:1;fill-opacity:1"
       id="path833"
       cx="26.458336"
       cy="26.458336"
       rx="25.929173"
       ry="25.929174" />
    <g
       transform="matrix(0.1469902,0,0,0.1469902,-14.6987,-2.9396306)"
       id="g877"
       style="clip-rule:evenodd;fill-rule:evenodd">
      <path
         d="m 362.449,251.135 52.55,-120.896 c -26.176,15.119 -53.382,28.385 -81.413,39.699 l 74.606,-55.437 -46.997,8.06 c -6.698,-4.029 -30.061,-16.119 -67.8,-16.119 0,0 -3.321,0.109 -6.153,0.163 -1.362,-4.084 -7.951,-23.362 -7.951,-23.362 l -12.036,24.941 c -68.725,8.822 -122.257,49.448 -122.257,93.285 0,19.605 8.386,45.363 47.051,59.304 l -19.495,48.25 51.625,-40.735 c 12.169,1.59 24.432,2.355 36.704,2.288 15.224,0.008 30.427,-1.157 45.472,-3.486 l 56.473,49.666 -19.278,-58.215 c 6.436,-2.104 12.746,-4.577 18.897,-7.406 z"
         fill="#a4a9ad"
         id="path851" />
      <path
         d="m 405.306,141.186 c 0,0 -44.274,25.758 -93.612,42.803 l -1.742,-4.792 84.627,-58.651 -94.049,24.07 52.606,-21.239 c 0,0 -22.273,-12.416 -59.74,-12.416 -3.104,0 -6.262,0.054 -9.366,0.218 l -5.445,-16.011 -29.244,60.72 -44.71,12.689 41.496,-16.99 13.615,-27.719 2.831,-5.826 2.451,-5.01 c -62.408,8.931 -115.504,46.125 -115.504,88.439 0,23.743 13.069,45.472 48.793,56.635 l -18.461,40.244 43.021,-34.852 c 12.594,1.754 25.297,2.591 38.011,2.505 15.701,0.019 31.379,-1.2 46.888,-3.649 l 47.706,42.368 -17.863,-49.066 c 7.317,-2.031 14.456,-4.653 21.348,-7.842 z"
         fill="#002654"
         id="path853" />
      <path
         d="m 287.08,236.214 c -10.903,-1.958 -21.686,-4.54 -32.294,-7.733 -10.607,-3.193 9.313,-3.594 23.09,-9.911 12.308,-5.664 28.155,-13.451 44.111,-22.818 12.894,-7.368 25.186,-15.745 36.759,-25.051 11.573,-9.306 -64.64,35.289 -118.282,35.289 -36.05,0 -52.714,-16.773 -52.714,-27.937 0,-33.436 58.813,-50.699 71.992,-54.185 l 2.831,-5.826 c -56.526,11.163 -77.547,33.327 -77.547,33.327 0,0 -18.896,11.435 -26.085,32.674 -1.755,5.287 -2.656,10.821 -2.669,16.392 0,25.541 16.719,58.978 102.544,58.978 60.938,0 93.34,-16.174 93.34,-16.174 -9.911,-0.272 -19.822,-0.926 -29.679,-1.906 -11.871,-1.198 -23.689,-2.941 -35.397,-5.119 z m 50.645,-113.217 c 0,0 -17.698,-8.604 -52.225,-7.515 l 1.58,4.684 c 16.929,-1.538 33.992,-0.584 50.645,2.831 z"
         fill="#ce1126"
         id="path855" />
      <path
         d="m 225.924,197.93 3.648,-8.06 -21.565,-5.936 c 0,0 -6.154,10.947 17.917,13.996 z m -18.843,62.898 c -0.488,-0.197 -1.002,-0.326 -1.525,-0.381 -0.436,-0.054 -0.871,-0.109 -1.361,-0.163 l -8.659,17.373 16.283,-12.144 c -1.035,-1.906 -2.234,-3.813 -4.738,-4.684 z m 123.672,-0.926 c -1.633,0.546 -3.176,1.335 -4.574,2.341 -1.3,1.1 -2.247,2.559 -2.724,4.194 -0.218,0.708 -0.381,1.525 -0.599,2.341 l 15.956,12.635 -8.06,-21.511 z m 27.066,-121.93 -68.78,16.664 -12.09,-37.848 -19.168,45.799 -52.225,13.07 36.541,8.931 -7.025,13.996 1.96,0.054 c 0.871,0 1.742,0.054 2.722,0.054 2.506,0 5.065,-0.109 7.624,-0.272 6.612,-0.415 13.195,-1.215 19.714,-2.396 5.119,-0.926 10.292,-2.07 15.52,-3.377 6.862,-1.688 13.778,-3.703 20.64,-5.881 l -3.976,-10.511 58.597,-38.284 h -0.054 z"
         fill="#a4a9ad"
         id="path857" />
      <path
         d="m 229.572,224.778 c 16.296,-0.054 32.523,-2.139 48.303,-6.208 12.308,-5.664 28.155,-13.451 44.111,-22.763 -13.397,5.064 -55.71,20.149 -85.716,20.149 -45.472,0 -59.74,-26.357 -59.74,-41.224 0,-13.288 8.55,-23.362 8.55,-23.362 0,0 -15.738,10.945 -15.738,29.189 0,30.061 29.952,44.22 60.23,44.22 z m 123.89,-22.055 c -2.722,-5.773 -10.728,-6.807 -17.916,-2.234 -7.134,4.52 -10.728,12.852 -8.005,18.625 2.777,5.773 10.728,6.753 17.916,2.232 7.188,-4.575 10.729,-12.852 8.06,-18.624 h -0.054 z m -106.355,36.104 c -84.572,0 -88.329,-45.036 -88.166,-54.784 -1.755,5.287 -2.656,10.821 -2.669,16.392 -0.012,5.571 0.872,49.829 97.479,49.829 31.422,0 59.74,-6.644 68.725,-8.931 -11.871,-1.198 -23.689,-2.941 -35.397,-5.119 -13.239,1.877 -26.602,2.751 -39.973,2.614 z m 99.548,-95.027 -79.562,24.179 c 0,0 29.244,6.372 30.115,6.481 0.926,0.109 49.447,-30.659 49.447,-30.659 z m -69.705,-20.585 -9.856,44.764 19.333,-12.58 -9.476,-32.184 z m 55.438,106.083 -1.961,2.396 -3.049,0.327 1.851,1.09 -1.96,2.396 3.267,-1.633 2.234,1.633 -0.327,-2.614 2.995,-1.635 -3.049,0.218 v -2.178 z m 36.05,-35.942 -0.109,-2.886 -2.559,3.213 -4.085,0.491 2.506,1.416 -2.506,3.267 4.303,-2.232 2.995,2.124 -0.544,-3.539 4.03,-2.288 -4.03,0.436 z m -6.698,18.897 -0.054,-2.668 -2.396,2.94 -3.757,0.49 2.341,1.252 -2.341,2.996 3.975,-2.07 2.777,1.961 -0.49,-3.214 3.649,-2.124 -3.704,0.436 z m -7.787,19.168 v -2.94 l -2.668,3.213 -4.084,0.436 2.505,1.417 -2.615,3.213 4.357,-2.124 2.94,2.178 -0.381,-3.539 4.03,-2.234 -4.085,0.381 z m 26.249,-60.557 -4.956,0.546 -0.436,-3.649 -2.831,4.03 -5.01,0.653 3.323,1.742 -2.778,4.138 5.119,-2.831 3.92,2.668 -1.035,-4.41 z m -33.492,17.264 -1.96,3.539 4.03,-2.722 3.594,1.851 -1.307,-3.43 3.703,-2.669 -4.138,0.817 -0.762,-2.886 -2.015,3.485 -4.085,0.872 z m -21.074,12.47 -0.054,-2.396 -2.125,2.668 -3.376,0.436 2.069,1.145 -2.069,2.668 3.539,-1.851 2.506,1.797 -0.436,-2.94 3.267,-1.852 -3.321,0.381 V 200.6 Z m -12.743,28.972 v -1.906 l -1.742,2.069 -2.669,0.327 1.635,0.926 -1.689,2.07 2.887,-1.417 1.851,1.471 -0.272,-2.342 2.614,-1.416 -2.614,0.218 z m -15.466,-2.124 v -1.906 l -1.688,2.069 -2.669,0.272 1.635,0.926 -1.689,2.069 2.832,-1.361 1.906,1.416 -0.272,-2.287 2.614,-1.47 -2.668,0.272 z m 21.565,-11.709 -0.054,-1.906 -1.688,2.069 -2.669,0.381 1.633,0.872 -1.633,2.124 2.778,-1.47 1.96,1.361 -0.272,-2.234 2.559,-1.525 -2.614,0.327 z m -15.629,-1.688 -0.054,-2.069 -1.851,2.287 -2.941,0.381 1.851,0.98 -1.851,2.342 3.159,-1.58 2.069,1.526 -0.327,-2.56 2.831,-1.633 -2.886,0.327 z m -21.456,10.183 -0.054,-2.069 -1.797,2.234 -2.778,0.381 1.744,0.926 -1.744,2.287 2.996,-1.579 2.015,1.47 -0.381,-2.396 2.777,-1.58 -2.777,0.327 z m -44.874,-25.594 2.668,0.054 c 2.506,0 5.119,-0.109 7.678,-0.272 l 19.714,-30.496 -23.09,17.045 -6.971,13.669 z m 45.581,-5.936 -15.52,-24.778 v 28.1 c 5.228,-0.926 10.401,-2.069 15.52,-3.323 z m -83.647,80.706 8.114,-12.58 c -0.492,-0.184 -1.004,-0.312 -1.525,-0.381 z m 124.489,-6.971 10.62,8.386 -7.896,-12.58 c -1.289,1.111 -2.234,2.566 -2.724,4.194 z m -64.695,-103.034 -42.913,11.546 51.245,-7.025 -8.332,-4.575 z"
         fill="#ffffff"
         id="path859" />
      <path
         d="m 336.635,202.124 c -5.827,3.648 -8.876,10.564 -6.807,15.357 2.015,4.792 8.386,5.717 14.214,2.015 5.827,-3.649 8.876,-10.565 6.807,-15.357 -2.069,-4.793 -8.441,-5.664 -14.214,-2.015 z"
         fill="#ce1126"
         id="path861" />
    </g>
  </g>
</svg>
