<?xml version="1.0" encoding="UTF-8" standalone="no"?>
<svg
   xmlns:dc="http://purl.org/dc/elements/1.1/"
   xmlns:cc="http://creativecommons.org/ns#"
   xmlns:rdf="http://www.w3.org/1999/02/22-rdf-syntax-ns#"
   xmlns:svg="http://www.w3.org/2000/svg"
   xmlns="http://www.w3.org/2000/svg"
   xmlns:sodipodi="http://sodipodi.sourceforge.net/DTD/sodipodi-0.dtd"
   xmlns:inkscape="http://www.inkscape.org/namespaces/inkscape"
   inkscape:export-ydpi="191.99995"
   inkscape:export-xdpi="191.99995"
   inkscape:export-filename="E:\MyFiles\Projects\NHL_Playoffs\NewLogos\CanadiensCircle.png"
   width="200"
   height="200"
   viewBox="0 0 52.916665 52.916668"
   version="1.1"
   id="svg8"
   inkscape:version="1.0 (4035a4fb49, 2020-05-01)"
   sodipodi:docname="CanadiensCircle.svg">
  <defs
     id="defs2" />
  <sodipodi:namedview
     id="base"
     pagecolor="#ffffff"
     bordercolor="#666666"
     borderopacity="1.0"
     inkscape:pageopacity="0.0"
     inkscape:pageshadow="2"
     inkscape:zoom="2.8"
     inkscape:cx="52.216013"
     inkscape:cy="69.643295"
     inkscape:document-units="mm"
     inkscape:current-layer="layer1"
     inkscape:document-rotation="0"
     showgrid="false"
     units="px"
     inkscape:window-width="1600"
     inkscape:window-height="1137"
     inkscape:window-x="1912"
     inkscape:window-y="-8"
     inkscape:window-maximized="1" />
  <metadata
     id="metadata5">
    <rdf:RDF>
      <cc:Work
         rdf:about="">
        <dc:format>image/svg+xml</dc:format>
        <dc:type
           rdf:resource="http://purl.org/dc/dcmitype/StillImage" />
        <dc:title />
      </cc:Work>
    </rdf:RDF>
  </metadata>
  <g
     inkscape:label="Layer 1"
     inkscape:groupmode="layer"
     id="layer1">
    <ellipse
       inkscape:export-ydpi="191.99995"
       inkscape:export-xdpi="191.99995"
       style="fill:#ffffff;stroke:#af1e2d;stroke-width:1.05833333;stroke-miterlimit:4;stroke-dasharray:none;stroke-opacity:1;fill-opacity:1"
       id="path833"
       cx="26.458336"
       cy="26.458336"
       rx="25.929173"
       ry="25.929174" />
    <g
       inkscape:export-ydpi="191.99995"
       inkscape:export-xdpi="191.99995"
       transform="matrix(0.15857475,0,0,0.15857475,-17.942515,-5.2566559)"
       id="g867"
       style="clip-rule:evenodd;fill-rule:evenodd">
      <path
         d="m 393.722,198.645 20.907,-21.967 -11.896,-54.711 -52.768,-15.724 -4.77,4.417 c -17.668,-5.241 -49.47,-10.718 -70.672,-10.659 -78.563,0.118 -140.282,43.816 -140.518,99.469 0,47.585 41.048,100.53 141.224,100.53 79.388,0 150.765,-52.886 150.765,-52.886 l -32.273,-48.469 z"
         fill="#ffffff"
         id="path847" />
      <path
         d="m 386.713,197.998 21.967,-23.027 -10.601,-48.704 -46.702,-13.899 -4.77,4.476 c -15.784,-5.182 -49.47,-11.425 -72.026,-11.425 -76.679,0.177 -134.924,42.226 -135.159,94.051 -0.236,54.417 52.532,95.053 135.807,95.053 58.304,0 118.021,-31.095 143.227,-48.822 z"
         fill="#192168"
         id="path849" />
      <path
         d="m 245.253,166.314 v 67.255 c -11.072,0 -46.29,-12.956 -46.29,-33.392 0,-25.206 36.043,-32.214 46.29,-33.863 z m 45.524,42.05 v 26.442 c -8.804,0.914 -17.669,1.092 -26.502,0.53 v -26.973 h 26.502 z M 264.275,190.99 v -26.207 c 8.842,-0.405 17.702,-0.129 26.502,0.824 v 25.382 h -26.502 z m 114.252,12.074 c 0,0 -33.038,22.615 -69.552,29.387 v -64.075 c 39.635,5.006 63.074,30.859 63.074,30.859 l 26.384,-27.267 -8.48,-38.222 -36.043,-10.542 -4.594,4.947 c -14.605,-5.713 -44.817,-13.133 -78.269,-13.133 -66.961,0 -121.731,37.986 -121.79,84.805 -0.118,45.642 46.349,85.1 121.319,85.1 69.199,0 119.199,-32.98 134.865,-41.814 l -26.914,-40.047 z m -107.42,13.426 h 12.721 v 10.777 h -12.721 z m 0.294,-33.157 h 12.368 v -10.306 l -12.368,-0.471 z m 89.929,18.787 c -12.193,-10.74 -26.801,-18.378 -42.58,-22.261 v 40.401 c 13.781,-3.828 28.858,-10.306 42.58,-18.139 z m -125.795,19.671 v -43.757 c -12.603,3.651 -26.797,10.836 -26.797,22.143 0,7.774 11.956,17.138 26.797,21.614 z"
         fill="#ffffff"
         id="path851" />
      <path
         d="m 376.643,212.603 c -43.286,25.382 -72.143,30.329 -107.244,29.976 -49.41,-0.412 -77.561,-20.2 -77.561,-43.757 0,-21.201 25.795,-41.46 78.563,-41.46 35.454,0 78.21,9.541 101.06,32.037 l 19.023,-19.375 -6.479,-30.742 -28.033,-8.186 -5.124,5.713 c -15.371,-6.125 -41.343,-14.664 -81.272,-14.664 -60.306,0 -113.192,34.865 -113.192,76.972 0,44.052 46.054,78.563 111.366,78.563 66.314,0 105.182,-24.971 127.621,-36.749 l -18.728,-28.327 z"
         fill="#af1e2d"
         id="path853" />
    </g>
  </g>
</svg>
