<?xml version="1.0" encoding="UTF-8" standalone="no"?>
<svg
   width="200"
   height="200"
   viewBox="0 0 52.916665 52.916668"
   version="1.1"
   id="svg8"
   inkscape:version="1.2.1 (9c6d41e410, 2022-07-14)"
   sodipodi:docname="CanucksCircle.svg"
   xmlns:inkscape="http://www.inkscape.org/namespaces/inkscape"
   xmlns:sodipodi="http://sodipodi.sourceforge.net/DTD/sodipodi-0.dtd"
   xmlns="http://www.w3.org/2000/svg"
   xmlns:svg="http://www.w3.org/2000/svg"
   xmlns:rdf="http://www.w3.org/1999/02/22-rdf-syntax-ns#"
   xmlns:cc="http://creativecommons.org/ns#"
   xmlns:dc="http://purl.org/dc/elements/1.1/">
  <defs
     id="defs2">
    <clipPath
       id="clipPath885"
       clipPathUnits="userSpaceOnUse">
      <path
         id="path887"
         d="M 143.57118,321.78599 V 188.21457 L 276.348,123.08 l 141.5089,64.42027 0.71428,140.71432 z"
         style="fill:none;stroke:#000000;stroke-width:0.999999px;stroke-linecap:butt;stroke-linejoin:miter;stroke-opacity:1" />
    </clipPath>
    <clipPath
       id="clipPath981"
       clipPathUnits="userSpaceOnUse">
      <path
         sodipodi:nodetypes="ccccccc"
         id="path983"
         d="M 380.31456,325.02008 H 180.07757 v -150.9306 l 60.26138,-36.05059 71.25423,-4.79049 68.72138,57.20568 z"
         style="fill:none;stroke:#000000;stroke-width:1.14948px;stroke-linecap:butt;stroke-linejoin:miter;stroke-opacity:1" />
    </clipPath>
  </defs>
  <sodipodi:namedview
     id="base"
     pagecolor="#ffffff"
     bordercolor="#666666"
     borderopacity="1.0"
     inkscape:pageopacity="0.0"
     inkscape:pageshadow="2"
     inkscape:zoom="1.979899"
     inkscape:cx="6.8185296"
     inkscape:cy="188.89852"
     inkscape:document-units="mm"
     inkscape:current-layer="layer1"
     inkscape:document-rotation="0"
     showgrid="false"
     units="px"
     inkscape:window-width="1920"
     inkscape:window-height="1017"
     inkscape:window-x="1912"
     inkscape:window-y="-8"
     inkscape:window-maximized="1"
     inkscape:showpageshadow="2"
     inkscape:pagecheckerboard="0"
     inkscape:deskcolor="#d1d1d1" />
  <metadata
     id="metadata5">
    <rdf:RDF>
      <cc:Work
         rdf:about="">
        <dc:format>image/svg+xml</dc:format>
        <dc:type
           rdf:resource="http://purl.org/dc/dcmitype/StillImage" />
        <dc:title />
      </cc:Work>
    </rdf:RDF>
  </metadata>
  <g
     inkscape:label="Layer 1"
     inkscape:groupmode="layer"
     id="layer1">
    <ellipse
       inkscape:export-ydpi="191.99995"
       inkscape:export-xdpi="191.99995"
       style="fill:#ffffff;fill-opacity:1;stroke:#001f5b;stroke-width:0.529167;stroke-miterlimit:4;stroke-dasharray:none;stroke-opacity:1"
       id="path833"
       cx="13.229163"
       cy="13.229162"
       rx="12.964583"
       ry="12.964584" />
    <g
       inkscape:export-ydpi="96"
       inkscape:export-xdpi="96"
       clip-path="url(#clipPath981)"
       transform="matrix(0.11024242,0,0,0.11024227,-17.660328,-12.705234)"
       id="g877"
       style="clip-rule:evenodd;fill-rule:evenodd"
       inkscape:export-filename="CanucksCircle.png">
      <path
         d="m 277.765,252.307 40.789,-20.368 c 27.99,7.842 36.267,18.461 36.267,18.461 l 16.011,-18.079 c 0.871,-0.926 3.486,-4.194 3.486,-10.184 0,-6.371 -6.698,-11.327 -11.381,-14.703 -7.951,-20.911 -52.062,-27.011 -55.329,-34.253 -1.034,-2.559 -7.515,-24.288 -7.515,-24.288 -3.812,-11.273 -15.139,-11.273 -19.386,-11.273 -4.525,0.245 -9.034,0.736 -13.506,1.471 10e-4,15.683 -2.177,34.798 -4.356,38.337 -5.618,2.847 -11.401,5.355 -17.318,7.516 l -22.272,-15.085 5.827,20.313 c -37.576,20.639 -46.724,56.69 -46.724,56.69 0,0 9.639,75.858 104.829,75.858 50.319,0 79.344,-24.288 79.344,-24.288 l -16.228,-36.214 c -17.658,8.304 -36.905,12.688 -56.418,12.852 -29.133,0 -40.516,-13.615 -44.708,-21.51 24.669,0.708 28.589,-1.252 28.589,-1.252 z"
         fill="#99999a"
         id="path851" />
      <path
         d="m 165.421,107.669 -5.718,3.703 13.124,30.224 -22.055,-24.506 -5.773,3.758 0.055,0.109 32.129,33.654 5.718,-3.757 -17.426,-43.075 z m 19.55,2.07 11.98,17.154 -6.045,2.94 z m 7.678,25.812 7.678,-3.758 5.01,7.189 6.099,-2.94 -27.773,-37.467 -6.481,3.104 11.818,45.09 v 0.055 l 6.153,-2.94 -2.505,-8.332 z M 363.262,92.53 v -0.109 l -6.48,-2.124 -15.085,29.298 5.01,-32.565 -6.589,-2.124 v 0.109 l -5.827,46.125 6.535,2.124 z m 36.268,42.095 -7.242,-4.737 8.005,-12.09 7.188,4.738 -7.95,12.089 z m 13.451,-15.52 -15.194,-10.02 -25.213,38.23 5.663,3.757 11.327,-17.099 1.852,1.198 -5.282,21.129 5.99,3.92 0.164,-0.164 4.955,-21.293 2.015,1.307 c 2.179,1.362 4.139,0.98 5.609,-1.252 l 9.258,-13.941 c 1.47,-2.233 1.089,-4.247 -1.144,-5.773 z m -52.987,15.357 6.154,-13.015 9.312,4.411 2.559,-5.337 -9.312,-4.411 5.718,-12.089 10.837,5.174 2.614,-5.501 -17.045,-8.059 -19.604,41.332 17.153,8.169 2.559,-5.446 -10.945,-5.227 z m -54.293,-9.693 14.321,2.559 c 2.669,0.49 4.411,-0.708 4.901,-3.377 L 332.22,83 l -6.753,-1.197 -6.97,39.262 -9.094,-1.578 6.97,-39.318 -6.698,-1.197 -7.297,40.951 c -0.491,2.668 0.653,4.356 3.322,4.847 z m -25.922,-41.551 9.476,0.164 -0.653,34.035 -9.421,-0.164 z m -3.431,39.862 14.867,0.272 c 2.614,0.055 4.139,-1.416 4.194,-4.139 l 0.653,-37.357 c 0.055,-2.723 -1.416,-4.247 -4.084,-4.302 l -14.867,-0.272 c -2.614,-0.054 -4.084,1.416 -4.084,4.139 l -0.708,37.358 c 0,2.722 1.361,4.247 4.029,4.301 z m -32.783,-0.817 c 0.381,2.668 1.96,3.921 4.574,3.594 l 14.159,-1.96 c 2.668,-0.327 3.92,-2.015 3.594,-4.684 l -1.526,-11.218 -6.807,0.926 1.361,9.53 -8.822,1.197 -4.628,-33.708 8.767,-1.198 1.253,8.985 6.752,-0.98 -1.416,-10.62 c -0.381,-2.668 -2.069,-3.92 -4.738,-3.593 l -14.158,1.96 c -2.559,0.327 -3.813,2.015 -3.431,4.738 l 5.064,37.03 z m -21.129,10.129 -7.95,-26.52 18.026,23.525 5.772,-1.743 -13.178,-43.892 -6.372,1.96 7.788,25.976 -17.862,-22.981 -5.718,1.743 13.124,43.892 6.371,-1.96 z m 143.82,93.556 c 0.259,-0.808 0.334,-1.664 0.218,-2.505 0.087,0.841 0.014,1.691 -0.218,2.505 0.478,-0.906 0.721,-1.916 0.708,-2.94 0.013,1.024 -0.23,2.034 -0.708,2.94 z m -90.017,22.383 41.878,-20.967 c 28.426,8.005 36.594,16.665 36.594,16.665 l 12.961,-14.595 c 0,0 2.397,-2.287 2.397,-7.297 0,-4.683 -7.025,-9.421 -10.728,-12.089 -7.733,-21.021 -50.645,-24.832 -55.383,-34.744 -1.906,-3.975 -4.357,-13.45 -7.897,-24.995 -2.886,-8.387 -11.218,-8.387 -15.356,-8.387 -3.101,0.072 -6.192,0.344 -9.258,0.818 0,8.55 -1.634,33.382 -5.609,37.683 -0.98,1.307 -8.277,4.248 -16.228,7.297 l 2.341,1.579 -2.396,2.396 -4.574,4.629 -5.01,15.683 -6.588,-3.376 2.396,5.827 -11.708,1.906 6.589,2.341 -19.006,14.595 5.119,0.381 -6.753,12.253 c 9.803,-4.465 12.743,-5.282 12.743,-5.282 l -2.832,-2.885 19.767,-8.005 c 0,0 -1.524,3.975 -1.524,11.653 0.039,1.538 0.221,3.069 0.544,4.574 2.451,11.926 14.104,36.541 55.164,36.541 18.059,-0.052 35.939,-3.583 52.66,-10.401 l 10.674,23.797 c 0,0 -27.882,19.332 -70.032,19.332 -86.259,0 -97.204,-67.798 -97.204,-67.798 11.871,-31.803 31.911,-45.744 44.6,-51.626 l -3.975,-0.381 -0.327,-1.198 c -33.654,18.516 -43.62,52.878 -43.62,52.878 0,0 10.238,71.338 100.473,71.338 46.179,0 74.061,-21.401 74.061,-21.401 l -13.015,-29.189 c -17.17,7.344 -35.621,11.23 -54.293,11.436 -44.546,0 -51.08,-30.332 -51.08,-30.332 0,0 25.377,1.524 33.436,-0.653 z"
         fill="#001f5b"
         id="path853" />
      <path
         d="m 356.673,212.064 c -7.188,-20.53 -46.506,-22.001 -55.382,-34.907 -2.451,-3.593 -6.481,-26.574 -10.62,-29.733 -4.466,-3.486 -16.011,-1.906 -16.011,-1.906 0,3.214 -0.762,31.422 -6.643,37.248 -3.921,3.322 -10.565,4.792 -18.461,8.93 l -4.574,4.629 -5.01,15.683 -6.535,-3.376 2.342,5.827 -11.708,1.906 6.643,2.341 -19.059,14.595 5.174,0.381 -6.808,12.253 c 9.803,-4.465 12.743,-5.282 12.743,-5.282 l -2.832,-2.885 19.767,-8.005 c 0,0 -1.47,4.029 -1.47,11.653 0.011,1.541 0.193,3.075 0.544,4.574 0.762,-0.817 17.807,-17.753 35.669,-21.401 l -27.61,21.347 c 0,0 22.709,0.98 28.318,-0.653 17.535,-8.114 31.639,-15.792 42.639,-21.293 25.595,6.807 36.594,15.63 36.594,15.63 l 2.723,-2.995 c -1.307,-0.981 -10.727,-7.461 -29.243,-13.56 5.501,-2.179 12.199,-4.738 13.942,-4.738 4.084,0 12.47,5.336 21.564,11.164 l 2.015,-2.287 c 0.383,-0.346 0.681,-0.775 0.871,-1.253 0.478,-0.906 0.721,-1.916 0.708,-2.94 0,-4.302 -5.555,-7.079 -10.292,-10.945 z"
         fill="#071c2c"
         id="path855" />
      <path
         d="m 264.478,189.191 -17.808,9.965 4.629,11.109 z m -20.748,36.541 1.797,-13.233 -24.614,16.664 z m 13.723,-16.718 -10.62,5.935 21.238,2.886 -10.618,-8.822 z"
         fill="#99999a"
         id="path857" />
      <path
         d="m 250.919,206.618 9.747,-13.233 -11.326,6.371 z m 13.396,9.475 -8.114,-4.737 -5.773,3.049 z m -37.412,10.783 15.139,-2.396 1.579,-8.985 z m -0.164,-51.625 6.262,18.297 11,2.723 4.411,-6.044 -21.674,-14.976 z m 67.145,110.764 c -47.268,0 -59.139,-32.402 -59.139,-44.6 0,-2.723 0.217,-4.955 0.381,-6.807 l -10.837,3.539 1.362,3.104 -8.441,3.104 -7.352,4.793 14.867,2.723 -3.049,10.618 6.316,-1.852 6.154,15.52 7.297,-0.925 2.451,10.892 c 0,0 13.777,9.53 37.085,11.653 30.877,2.723 58.432,-7.733 58.432,-7.733 0,0 -32.891,12.852 -62.788,9.693 -22.872,-2.451 -37.739,-11.708 -37.739,-11.708 l -0.217,-9.857 -9.04,0.11 -4.194,-15.085 -8.005,3.758 3.486,-13.505 -15.356,-1.906 3.104,-9.421 3.703,-7.352 -4.955,0.11 20.639,-15.303 -8.985,-3.539 14.649,-2.832 -5.119,-10.292 9.04,5.174 3.539,-11.219 c -10.782,3.758 -34.145,15.738 -47.595,50.917 1.633,8.06 15.737,63.987 93.556,63.987 33.599,0 58.106,-12.688 65.675,-17.154 l -8.115,-17.971 c -16.247,6.105 -33.451,9.277 -50.808,9.366 z"
         fill="#001f5b"
         id="path859" />
      <path
         d="m 355.148,230.796 c -0.643,0.417 -1.262,0.872 -1.852,1.362 l 4.738,2.94 1.743,-1.96 c -1.416,-0.98 -3.541,-2.451 -3.649,-2.451 -0.329,-0.072 -0.675,-0.033 -0.98,0.109 z m -0.925,-0.708 c 0.071,-0.169 0.027,-0.367 -0.11,-0.49 -1.265,-0.782 -2.574,-1.491 -3.92,-2.124 -0.367,-0.018 -0.734,0.018 -1.09,0.109 -0.735,0.43 -1.444,0.903 -2.124,1.416 l 5.282,2.451 c 0.926,-0.599 1.852,-1.252 1.961,-1.362 z m 2.45,-0.762 c -0.109,0.272 -0.162,0.381 -0.054,0.436 0.109,0.164 2.341,1.633 3.867,2.613 l 1.688,-1.688 -3.921,-2.613 c -0.548,0.389 -1.075,0.807 -1.579,1.252 z m -1.742,-0.436 c 0.303,-10e-4 0.602,-0.075 0.87,-0.218 0.553,-0.364 1.081,-0.764 1.579,-1.197 l -4.301,-2.723 c -0.78,0.454 -1.526,0.964 -2.233,1.524 0,0.055 0.055,0.164 0.272,0.491 l 3.813,2.124 z m -6.862,-1.96 c 0.109,-0.164 0.164,-0.327 0.054,-0.436 -1.307,-0.855 -2.694,-1.585 -4.139,-2.179 -0.323,-0.133 -0.694,-0.093 -0.98,0.109 -0.327,0.164 -2.124,1.144 -2.777,1.524 l 5.555,2.559 c 0.795,-0.477 1.559,-1.004 2.287,-1.578 z m -3.377,-3.758 c -0.054,0.109 0,0.217 0.218,0.381 0.272,0.218 3.867,2.07 4.139,2.124 0.273,0.01 0.547,-0.009 0.817,-0.054 0.164,-0.055 1.471,-0.871 2.287,-1.416 l -4.792,-2.614 c -0.933,0.45 -1.826,0.978 -2.669,1.579 z m -6.862,-2.396 c 1.852,0.708 4.412,1.742 4.629,1.797 0.343,0.055 0.692,0.055 1.035,0 0.217,-0.055 1.743,-0.871 2.886,-1.416 -1.472,-0.798 -3.078,-1.316 -4.738,-1.524 -1.323,0.18 -2.609,0.565 -3.813,1.144 z m -5.827,2.177 6.917,2.451 c 0.979,-0.359 1.911,-0.835 2.777,-1.416 0.11,-0.164 0.11,-0.327 -0.217,-0.599 -0.218,-0.164 -3.267,-1.306 -5.229,-2.015 l -4.247,1.579 z m 24.669,-10.891 c -18.679,-2.07 -23.742,-6.535 -23.742,-9.421 0,-1.09 0.98,-1.416 1.852,-1.416 4.247,0 9.802,3.049 13.015,6.48 -1.906,-4.9 -13.07,-10.673 -20.368,-10.673 -1.361,0 -3.376,0.436 -3.376,2.668 0,4.574 6.97,10.347 24.724,11.818 9.53,2.232 19.386,7.568 17.48,14.43 0.478,-0.906 0.721,-1.916 0.708,-2.94 0,-4.302 -5.555,-7.079 -10.292,-10.945 z m -68.343,1.797 c -33.272,1.96 -48.738,30.55 -49.555,32.185 0.762,-0.818 17.807,-17.753 35.669,-21.401 l 13.886,-10.783 z m -0.598,-37.302 c -1.579,-2.015 -3.541,-22.545 -3.541,-22.545 0,0 -0.326,20.911 -1.524,22.762 -1.197,1.852 -7.189,5.337 -7.189,5.337 0,0 6.644,-2.179 9.912,-2.397 2.396,-0.109 10.02,1.471 10.02,1.471 0,0 -6.045,-2.559 -7.678,-4.628 z m 30.06,47.432 c 25.595,6.807 36.594,15.63 36.594,15.63 l 2.669,-2.995 c -1.252,-0.981 -10.673,-7.461 -29.189,-13.56 5.501,-2.179 12.199,-4.738 13.942,-4.738 4.084,0 12.47,5.336 21.564,11.164 l 2.015,-2.233 c -7.896,-5.5 -17.153,-11.926 -23.797,-11.926 -5.446,0 -13.233,3.376 -23.797,8.658 z"
         fill="#ffffff"
         id="path861" />
    </g>
  </g>
</svg>
