<?xml version="1.0" encoding="UTF-8" standalone="no"?>
<svg
   inkscape:export-ydpi="191.99995"
   inkscape:export-xdpi="191.99995"
   inkscape:export-filename="E:\MyFiles\Projects\NHL_Playoffs\NewLogos\CoyotesCircle.png"
   width="200"
   height="200"
   viewBox="0 0 52.916665 52.916668"
   version="1.1"
   id="svg8"
   inkscape:version="1.2.1 (9c6d41e410, 2022-07-14)"
   sodipodi:docname="CoyotesCircle.svg"
   xmlns:inkscape="http://www.inkscape.org/namespaces/inkscape"
   xmlns:sodipodi="http://sodipodi.sourceforge.net/DTD/sodipodi-0.dtd"
   xmlns="http://www.w3.org/2000/svg"
   xmlns:svg="http://www.w3.org/2000/svg"
   xmlns:rdf="http://www.w3.org/1999/02/22-rdf-syntax-ns#"
   xmlns:cc="http://creativecommons.org/ns#"
   xmlns:dc="http://purl.org/dc/elements/1.1/">
  <defs
     id="defs2" />
  <sodipodi:namedview
     id="base"
     pagecolor="#ffffff"
     bordercolor="#666666"
     borderopacity="1.0"
     inkscape:pageopacity="0.0"
     inkscape:pageshadow="2"
     inkscape:zoom="2.8"
     inkscape:cx="10.178571"
     inkscape:cy="69.642857"
     inkscape:document-units="mm"
     inkscape:current-layer="layer1"
     inkscape:document-rotation="0"
     showgrid="false"
     units="px"
     inkscape:window-width="1920"
     inkscape:window-height="1017"
     inkscape:window-x="1912"
     inkscape:window-y="-8"
     inkscape:window-maximized="1"
     inkscape:showpageshadow="2"
     inkscape:pagecheckerboard="0"
     inkscape:deskcolor="#d1d1d1" />
  <metadata
     id="metadata5">
    <rdf:RDF>
      <cc:Work
         rdf:about="">
        <dc:format>image/svg+xml</dc:format>
        <dc:type
           rdf:resource="http://purl.org/dc/dcmitype/StillImage" />
        <dc:title />
      </cc:Work>
    </rdf:RDF>
  </metadata>
  <g
     inkscape:label="Layer 1"
     inkscape:groupmode="layer"
     id="layer1">
    <ellipse
       style="fill:#e2d6b5;fill-opacity:1;stroke:#8c2633;stroke-width:0.529167;stroke-miterlimit:4;stroke-dasharray:none;stroke-opacity:1"
       id="path833"
       cx="13.229163"
       cy="13.229162"
       rx="12.964583"
       ry="12.964584"
       inkscape:export-filename="CoyotesCircle.png"
       inkscape:export-xdpi="96"
       inkscape:export-ydpi="96" />
    <g
       transform="matrix(0.07611629,0,0,0.07611629,-9.1418466,-0.93566684)"
       id="g882"
       style="clip-rule:evenodd;fill-rule:evenodd">
      <path
         d="m 399.887,190.295 c 0,0 3.312,-14.67 -12.673,-26.659 0.158,12.725 -5.363,17.983 -5.363,17.983 l -1.629,-0.789 -3.576,-9.623 15.512,-32.443 c 0.789,2.839 1.683,6.257 1.683,6.257 l 4.469,-8.833 c 2.588,-5.402 3.763,-11.373 3.418,-17.352 l 3.786,-7.94 -2.208,-32.128 c -1.578,-6.257 -6.415,-10.831 -12.673,-12.83 -5.994,-1.893 -11.936,-0.893 -16.406,2.734 l -68.04,52.634 c -34.652,1.262 -61.626,16.616 -78.347,44.326 l -78.19,62.941 c 4.154,9.202 23.662,33.705 53.897,28.026 l 15.669,-2.84 c 0,0 12.831,70.092 73.773,81.239 0,0 -20.612,-33.494 -15.617,-61.153 0,0 14.039,40.489 41.119,34.81 -21.821,-26.712 -9.885,-53.319 -9.885,-53.319 0,0 11.042,17.983 35.967,15.775 0,0 -16.985,-17.983 -11.253,-42.171 l 41.014,1.525 21.453,-8.991 14.566,-26.397 -10.463,-4.785 z"
         fill="#ffffff"
         id="path853" />
      <path
         d="m 390.37,171.681 c -0.684,7.572 -7.519,14.67 -7.519,14.67 l -5.679,-2.786 -4.68,-12.515 20.243,-42.276 c 0.944,1.806 1.684,3.711 2.209,5.679 2.509,-5.08 3.529,-10.769 2.944,-16.405 l 3.786,-7.887 L 399.57,79.4 c -1.051,-4.154 -5.047,-8.256 -10.095,-9.833 -4.407,-1.56 -9.321,-0.745 -12.988,2.156 l -68.935,53.265 c -35.019,1 -60.889,16.3 -76.769,43.17 l -76.349,61.416 c 0,0 14.145,26.765 46.64,23.557 l 20.981,-3.733 c 2.261,9.727 14.828,65.99 63.519,79.609 -8.255,-15.88 -18.929,-44.064 -8.465,-67.2 13.934,44.695 34.388,43.486 34.388,43.486 -19.771,-28.079 -3.68,-57.841 -3.68,-57.841 8.044,13.724 19.666,19.876 29.13,19.876 0,0 -13.882,-18.351 -6.573,-42.329 l 43.275,1.578 19.456,-8.15 11.883,-21.664 -9.307,-4.259 c 2.892,-13.198 -5.311,-20.822 -5.311,-20.822 z"
         fill="#111111"
         id="path855" />
      <path
         d="m 391.789,193.66 h 0.053 c 0.368,-1.578 2.156,-9.675 -0.315,-15.249 -1.36,4.472 -4.014,8.442 -7.624,11.41 l -9.57,-4.626 0.053,0.052 19.56,12.673 -11.936,2.787 h -0.053 l -10.674,-3.944 h 0.053 l -0.105,-0.053 c 0.632,-3.207 1.63,-10.306 -0.631,-15.459 -1.489,4.754 -4.254,9.011 -7.993,12.304 l -10.359,-3.838 -8.676,-22.664 31.497,-50.899 c 2.205,2.269 4.002,4.901 5.311,7.782 1.578,-4.995 0.053,-11.41 -0.946,-14.775 l 3.838,-6.204 8.939,-6.468 1.682,8.412 -14.933,41.435 11.831,-25.554 c 0.525,0.42 1.629,1.261 4.049,6.309 1.262,-3.997 -0.631,-12.883 -0.631,-12.883 l 3.47,-6.626 -1.629,-25.765 c -1.368,2.208 -2.787,6.941 -3.418,8.781 -2.893,-19.824 -10.569,-5.1 -12.462,-16.931 l -6.363,4.943 c -0.946,4.975 -1.439,10.027 -1.472,15.091 -0.032,5.064 -4.469,-4.68 -5.889,-9.149 -0.997,5.466 -1.524,11.007 -1.578,16.563 -0.054,5.556 -4.995,-5.258 -6.52,-10.254 -1.096,5.969 -1.676,12.02 -1.735,18.089 -0.059,6.068 -5.363,-5.679 -7.098,-11.095 -1.167,6.546 -1.8,13.175 -1.893,19.824 -0.094,6.647 -6.258,-6.626 -7.94,-12.725 l -31.655,24.451 c -2.103,2.524 -12.041,12.567 -15.617,27.711 0,0 -0.053,-10.674 0.789,-13.988 -2.786,1.998 -13.198,10.202 -18.929,16.143 0,0 0.683,-10.78 5.101,-16.879 -9.36,6.784 -23.61,21.243 -23.61,21.243 11.831,-20.349 21.243,-26.448 25.976,-30.392 -23.82,7.572 -44.485,24.24 -53.529,52.476 0.117,-3.455 0.468,-6.899 1.051,-10.306 l -67.568,53.423 c 0,0 10.412,19.14 39.7,18.404 l 38.227,-6.047 c 0,0 -3.786,-10.201 -3.418,-17.405 4.626,16.09 12.672,22.031 12.672,22.031 l -21.453,2.84 c 3.891,14.092 12.409,53.791 51.267,72.405 -7.757,-14.696 -10.944,-31.382 -9.148,-47.902 2.471,-16.51 10.884,-26.606 10.884,-26.606 1.367,19.455 10.622,34.125 16.616,41.749 1.527,2.17 3.29,4.163 5.258,5.942 1.968,1.779 -7.834,-14.145 -2.103,-39.489 0.525,-1.472 4.837,-13.619 9.307,-18.088 3.512,9.784 10.623,17.872 19.876,22.61 -10.044,-20.822 -1.315,-40.75 -1.315,-40.75 0,0 45.326,1.682 45.641,1.682 l 17.036,-7.151 8.781,-15.88 -7.73,-3.523 z"
         fill="#8c2633"
         id="path857" />
      <path
         d="m 223.948,187.876 c -2.84,2.419 -10.463,8.571 -18.982,15.407 -11.252,8.991 -22.505,17.966 -33.758,26.922 4.837,8.729 16.3,11.147 22.978,11.778 1.694,0.186 3.397,0.274 5.101,0.263 l 32.548,-5.784 c 0,0 -47.008,-10.674 -7.887,-48.586 z m 106.373,-30.918 47.744,-54.159 -50.162,51.425 c 0,0 -12.515,2.104 -30.603,16.353 9.044,17.405 -34.177,71.669 -52.476,57.262 3.733,11.042 17.352,6.52 17.352,6.52 -1.788,4.259 -19.56,34.704 3.786,70.88 -38.069,-61.574 50.952,-121.99 55.842,-123.935 -1.157,-8.361 -13.619,-10.727 -13.619,-10.727 5.889,-7.624 23.977,-14.039 22.136,-13.619 z"
         fill="#111111"
         id="path859" />
      <path
         d="m 363.552,168.578 7.047,10.096 -3.997,-9.991 3.997,-10.254 -7.047,10.148 z"
         fill="#8c2633"
         id="path861" />
      <path
         d="m 296.038,138.081 c 0.683,-2.156 -3.629,-1.736 -3.629,-1.736 2.372,-1.504 4.914,-2.722 7.572,-3.628 1.104,-1.314 1.998,-2.419 2.472,-2.892 -2.157,0.157 -7.677,1.367 -18.561,9.097 4.001,-0.755 8.078,-1.037 12.146,-0.842 z m -124.83,92.124 c 4.837,8.729 16.3,11.147 22.978,11.778 -1.945,-1.893 -8.412,-8.624 -6.415,-13.619 3.775,2.752 8.193,4.49 12.831,5.047 4.638,0.557 -6.1,-16.984 4.364,-30.129 -11.252,8.991 -22.505,17.966 -33.758,26.922 z M 391.789,193.66 h 0.053 c 0.368,-1.578 2.156,-9.675 -0.315,-15.249 -1.36,4.472 -4.014,8.443 -7.624,11.41 l -9.57,-4.626 0.053,0.052 19.56,12.673 -11.936,2.787 h -0.053 l -10.674,-3.944 h 0.053 l -0.105,-0.053 c 0.632,-3.207 1.63,-10.306 -0.631,-15.459 -1.489,4.754 -4.254,9.011 -7.993,12.304 l -10.359,-3.838 -8.676,-22.664 31.497,-50.899 c 2.205,2.269 4.002,4.901 5.311,7.782 1.578,-4.995 0.053,-11.41 -0.946,-14.775 l 3.838,-6.204 8.939,-6.468 1.682,8.412 -14.933,41.435 11.831,-25.554 c 0.525,0.42 1.629,1.261 4.049,6.309 1.262,-3.997 -0.631,-12.883 -0.631,-12.883 l 3.47,-6.626 -5.153,-12.777 -14.513,7.993 -47.692,54.159 c 1.84,-0.421 -16.248,5.994 -22.189,13.566 0,0 12.462,2.419 13.619,10.78 -4.837,1.893 -93.911,62.309 -55.842,123.935 3.69,5.697 7.954,11 12.725,15.827 -7.769,-14.691 -10.94,-31.386 -9.097,-47.902 1.498,-13.816 6.216,-27.09 13.776,-38.752 7.56,-11.662 -0.368,34.283 13.671,53.896 1.527,2.17 3.291,4.163 5.258,5.942 1.968,1.779 -7.834,-14.145 -2.103,-39.489 2.575,-10.909 6.664,-21.404 12.146,-31.181 -3.944,18.72 12.935,32.023 17.036,35.756 -10.044,-20.822 -1.315,-40.803 -1.315,-40.803 0,0 45.326,1.682 45.694,1.735 l 15.774,-15.512 1.21,8.361 8.781,-15.932 -7.677,-3.523 z"
         fill="#e2d6b5"
         id="path863" />
      <path
         d="m 351.302,148.86 -14.566,17.668 12.673,23.346 -8.571,-23.346 z"
         fill="#111111"
         id="path865" />
    </g>
  </g>
</svg>
