<?xml version="1.0" encoding="UTF-8" standalone="no"?>
<svg
   width="200"
   height="200"
   viewBox="0 0 52.916665 52.916668"
   version="1.1"
   id="svg8"
   inkscape:version="1.2.1 (9c6d41e410, 2022-07-14)"
   sodipodi:docname="DevilsCircle.svg"
   xmlns:inkscape="http://www.inkscape.org/namespaces/inkscape"
   xmlns:sodipodi="http://sodipodi.sourceforge.net/DTD/sodipodi-0.dtd"
   xmlns="http://www.w3.org/2000/svg"
   xmlns:svg="http://www.w3.org/2000/svg"
   xmlns:rdf="http://www.w3.org/1999/02/22-rdf-syntax-ns#"
   xmlns:cc="http://creativecommons.org/ns#"
   xmlns:dc="http://purl.org/dc/elements/1.1/">
  <defs
     id="defs2" />
  <sodipodi:namedview
     id="base"
     pagecolor="#ffffff"
     bordercolor="#666666"
     borderopacity="1.0"
     inkscape:pageopacity="0.0"
     inkscape:pageshadow="2"
     inkscape:zoom="2.8"
     inkscape:cx="10.178571"
     inkscape:cy="69.642857"
     inkscape:document-units="mm"
     inkscape:current-layer="layer1"
     inkscape:document-rotation="0"
     showgrid="false"
     units="px"
     inkscape:window-width="1920"
     inkscape:window-height="1017"
     inkscape:window-x="1912"
     inkscape:window-y="-8"
     inkscape:window-maximized="1"
     inkscape:showpageshadow="2"
     inkscape:pagecheckerboard="0"
     inkscape:deskcolor="#d1d1d1" />
  <metadata
     id="metadata5">
    <rdf:RDF>
      <cc:Work
         rdf:about="">
        <dc:format>image/svg+xml</dc:format>
        <dc:type
           rdf:resource="http://purl.org/dc/dcmitype/StillImage" />
        <dc:title />
      </cc:Work>
    </rdf:RDF>
  </metadata>
  <g
     inkscape:label="Layer 1"
     inkscape:groupmode="layer"
     id="layer1">
    <ellipse
       inkscape:export-ydpi="191.99995"
       inkscape:export-xdpi="191.99995"
       style="fill:#ce1126;fill-opacity:1;stroke:#252525;stroke-width:0.529167;stroke-miterlimit:4;stroke-dasharray:none;stroke-opacity:1"
       id="path833"
       cx="13.229163"
       cy="13.229162"
       rx="12.964583"
       ry="12.964584" />
    <g
       inkscape:export-ydpi="96"
       inkscape:export-xdpi="96"
       transform="matrix(0.06264165,0,0,0.06264165,-4.3104036,0.7008332)"
       id="g867"
       style="clip-rule:evenodd;fill-rule:evenodd"
       inkscape:export-filename="DevilsCircle.png">
      <path
         d="M 411.991,102.377 C 411.991,65 369.928,65 364.231,65 h -10.17 c 0,0 14.376,14.482 14.376,19.7 -0.004,1.167 -0.963,2.126 -2.13,2.13 h -36.685 c -1.167,-0.004 -2.126,-0.963 -2.13,-2.13 0,-5.218 14.429,-19.7 14.429,-19.7 -14.003,0 -34.023,3.141 -47.92,13.045 -3.927,-0.41 -7.872,-0.606 -11.82,-0.586 h -0.083 c -64.185,0 -117.001,52.816 -117.001,117.001 0,12.418 1.977,24.758 5.857,36.555 -8.679,10.596 -22.948,32.213 -22.948,59.846 0,23.853 11.767,44.139 11.767,44.139 0,0 20.978,-30.722 68.046,-30.722 2.25,10e-4 4.211,-1.581 4.685,-3.78 15.537,7.274 32.483,11.045 49.638,11.045 64.222,0 117.068,-52.846 117.068,-117.068 0,-20.016 -5.134,-39.701 -14.908,-57.169 12.938,-3.94 27.687,-14.269 27.687,-34.928 z"
         fill="#ffffff"
         id="path847" />
      <path
         d="m 407.146,102.377 c 0,-23.161 -21.298,-33.331 -42.702,-32.532 0,0 8.838,8.519 8.838,14.855 0,3.354 -2.502,6.975 -9.584,6.975 h -31.68 c -7.135,0 -11.394,-2.449 -11.394,-6.549 0,-6.762 10.596,-14.589 10.596,-14.589 0,0 -21.457,1.278 -35.833,12.566 -4.381,-0.534 -8.791,-0.801 -13.204,-0.799 h -0.02 c -61.562,0 -112.219,50.657 -112.219,112.219 0,20.569 5.655,40.748 16.346,58.322 -1.768,0.949 -3.744,1.443 -5.75,1.438 -7.88,0 -7.933,-17.411 -7.933,-17.411 0,0 -19.807,23.108 -19.807,53.989 0,19.008 8.04,35.354 8.04,35.354 0,0 22.256,-26.782 66.981,-26.782 0,0 -21.244,-8.519 -21.244,-18.795 0.135,-0.861 0.423,-1.69 0.852,-2.449 20.565,18.392 47.207,28.568 74.796,28.568 61.549,0 112.197,-50.647 112.197,-112.197 0,-21.422 -6.135,-42.403 -17.677,-60.45 10.862,-1.704 30.402,-9.105 30.402,-31.733 z"
         id="path849" />
      <path
         d="m 373.975,74.797 c 2.589,2.654 4.075,6.196 4.153,9.903 0,6.017 -4.739,11.82 -14.429,11.82 h -31.68 c -12.353,0 -16.239,-6.336 -16.239,-11.394 -0.087,-2.881 0.943,-5.687 2.875,-7.827 1.932,-2.14 -31.148,6.07 -31.148,31.414 0,21.298 23.8,21.191 23.8,21.191 h 6.975 l -19.434,51.38 -29.497,-37.377 c -1.81,-2.343 -8.998,-11.394 -19.7,-11.394 -14.855,0 -21.351,16.719 -23.587,22.522 l -31.307,82.901 c 8.704,-2.806 17.796,-4.226 26.941,-4.206 8.038,0.031 16.051,0.906 23.907,2.609 l 14.536,-38.442 18.422,33.49 -13.045,13.684 c -8.572,8.945 -26.515,3.993 -43.82,3.993 -32.213,0 -29.124,10.063 -41.158,10.063 -8.519,0 -10.755,-10.383 -10.755,-10.383 0,0 -12.193,20.126 -12.193,42.116 0.151,9.167 1.861,18.242 5.058,26.835 3.197,8.593 25.078,-21.404 50.422,-21.404 0,0 -11.288,-5.431 -11.288,-15.654 0,-2.928 3.834,-12.299 16.346,-12.299 19.274,0 27.314,11.447 50.582,11.447 32.639,0 50.741,-20.179 57.131,-37.005 l 42.702,-112.877 c 0,0 33.81,0.053 33.81,-27.527 0,-25.291 -28.379,-27.58 -28.379,-27.58 z"
         fill="#ce1126"
         id="path851" />
      <path
         d="m 330.315,244.485 c -7.348,19.381 -27.367,40.146 -61.603,40.146 -23.268,0 -32.319,-10.702 -48.825,-11.394 17.733,14.038 39.699,21.68 62.316,21.68 55.076,0 100.398,-45.321 100.398,-100.399 0,-17.993 -4.837,-35.66 -14.003,-51.143 l -38.282,101.11 z M 249.65,127.721 c 5.963,0 14.855,2.289 23.481,13.204 l 24.226,30.669 13.95,-36.845 c 0,0 -28.539,-0.266 -28.539,-26.09 -0.067,-5.038 1.065,-10.021 3.301,-14.536 l -3.887,-0.053 h -0.064 c -55.052,0 -100.354,45.302 -100.354,100.354 0,14.153 2.994,28.147 8.785,41.062 l 31.094,-82.155 c 6.389,-16.985 15.813,-25.61 28.006,-25.61 z m 12.407,113.996 10.596,-11.075 -11.66,-21.244 -12.353,32.585 c -8.797,-2.2 -17.821,-3.361 -26.888,-3.461 -9.34,0.097 -18.608,1.642 -27.474,4.579 0.852,1.438 1.651,2.875 2.556,4.313 5.058,-1.757 12.566,-3.141 24.918,-3.141 17.73,0 33.81,4.206 40.306,-2.556 z"
         fill="#ffffff"
         id="path853" />
    </g>
  </g>
</svg>
