<?xml version="1.0" encoding="UTF-8" standalone="no"?>
<svg
   inkscape:export-ydpi="191.99995"
   inkscape:export-xdpi="191.99995"
   inkscape:export-filename="E:\MyFiles\Projects\NHL_Playoffs\NewLogos\DucksCircle.png"
   width="200"
   height="200"
   viewBox="0 0 52.916665 52.916668"
   version="1.1"
   id="svg8"
   inkscape:version="1.2.1 (9c6d41e410, 2022-07-14)"
   sodipodi:docname="DucksCircle.svg"
   xmlns:inkscape="http://www.inkscape.org/namespaces/inkscape"
   xmlns:sodipodi="http://sodipodi.sourceforge.net/DTD/sodipodi-0.dtd"
   xmlns="http://www.w3.org/2000/svg"
   xmlns:svg="http://www.w3.org/2000/svg"
   xmlns:rdf="http://www.w3.org/1999/02/22-rdf-syntax-ns#"
   xmlns:cc="http://creativecommons.org/ns#"
   xmlns:dc="http://purl.org/dc/elements/1.1/">
  <defs
     id="defs2" />
  <sodipodi:namedview
     id="base"
     pagecolor="#ffffff"
     bordercolor="#666666"
     borderopacity="1.0"
     inkscape:pageopacity="0.0"
     inkscape:pageshadow="2"
     inkscape:zoom="2.8"
     inkscape:cx="10.178571"
     inkscape:cy="69.642857"
     inkscape:document-units="mm"
     inkscape:current-layer="layer1"
     inkscape:document-rotation="0"
     showgrid="false"
     units="px"
     inkscape:window-width="1920"
     inkscape:window-height="1017"
     inkscape:window-x="1912"
     inkscape:window-y="-8"
     inkscape:window-maximized="1"
     inkscape:showpageshadow="2"
     inkscape:pagecheckerboard="0"
     inkscape:deskcolor="#d1d1d1" />
  <metadata
     id="metadata5">
    <rdf:RDF>
      <cc:Work
         rdf:about="">
        <dc:format>image/svg+xml</dc:format>
        <dc:type
           rdf:resource="http://purl.org/dc/dcmitype/StillImage" />
        <dc:title />
      </cc:Work>
    </rdf:RDF>
  </metadata>
  <g
     inkscape:label="Layer 1"
     inkscape:groupmode="layer"
     id="layer1">
    <ellipse
       style="fill:#006a65;fill-opacity:1;stroke:#472243;stroke-width:0.529167;stroke-miterlimit:4;stroke-dasharray:none;stroke-opacity:1"
       id="path833"
       cx="13.229163"
       cy="13.229162"
       rx="12.964583"
       ry="12.964584" />
    <g
       transform="matrix(0.06526548,0,0,0.06526548,-5.0451385,0.17603367)"
       id="g882"
       style="clip-rule:evenodd;fill-rule:evenodd"
       inkscape:export-filename="DucksCircle.png"
       inkscape:export-xdpi="96"
       inkscape:export-ydpi="96">
      <path
         d="m 317.647,100 c -95.447,0 -171.416,52.276 -171.416,52.276 0,0 93.676,-7.588 93.676,11.805 0,17.033 -74.199,44.688 -74.199,44.688 0,0 58.516,1.602 58.516,15.684 0,23.861 -121.585,55.986 -121.585,55.986 0,0 42.58,19.562 109.106,19.562 119.224,0 245.615,-67.622 245.615,-120.236 0,-48.483 -71.079,-79.764 -139.713,-79.764 z"
         fill="#a4a9ad"
         id="path853" />
      <path
         d="m 317.647,104.216 c -68.887,0 -128.077,28.078 -154.385,42.749 0,0 80.86,-5.733 80.86,17.116 0,14.25 -34.738,31.366 -59.022,41.569 19.898,1.94 43.423,6.746 43.423,18.803 0,22.259 -74.536,46.036 -112.057,56.576 16.948,5.649 50.759,14.671 95.278,14.671 119.814,0 241.399,-67.454 241.399,-115.935 0,-46.628 -70.32,-75.549 -135.497,-75.549 z"
         fill="#111111"
         id="path855" />
      <path
         d="m 189.485,280.1 -14.081,3.711 c 10.761,1.031 21.568,1.509 32.378,1.433 142.073,0 236.34,-86.425 236.34,-100.168 -0.006,-0.943 -0.148,-1.881 -0.422,-2.783 -50.336,59.865 -150.336,101.181 -254.215,97.807 z"
         fill="#f95602"
         id="path857" />
      <path
         d="m 319.417,115.935 c -53.119,0 -110.876,20.573 -110.876,20.573 0,0 59.444,-2.951 59.444,21.922 0,23.188 -41.99,40.22 -41.99,40.22 0,0 25.463,5.902 25.463,20.658 0,33.474 -82.631,54.3 -82.631,54.3 173.441,8.431 272.512,-84.317 272.512,-101.434 0,-16.02 -48.229,-56.24 -121.922,-56.24 z"
         fill="#ffffff"
         id="path859" />
      <path
         d="m 319.417,119.392 c -33.305,0 -68.718,8.264 -90.05,14.25 0,0 42.075,1.687 42.075,24.789 0,18.718 -23.524,33.138 -36.257,39.629 8.348,3.373 19.73,10.034 19.73,21.248 0,24.957 -39.713,42.664 -65.007,51.433 157.335,0 248.06,-83.642 248.06,-98.566 0,-13.575 -46.628,-52.783 -118.55,-52.783 z"
         fill="#b5985a"
         id="path861" />
      <path
         d="m 290.328,144.435 c 0,0 46.458,10.455 67.285,24.368 l -90.641,23.44 85.919,-2.783 c -19.139,13.997 -88.954,47.471 -88.954,47.471 0,0 85.835,-12.731 140.05,-62.31 -48.23,-43.339 -113.659,-30.185 -113.659,-30.185 z"
         fill="#ffffff"
         id="path863" />
      <path
         d="m 310.228,146.122 c 0,0 35.918,9.19 55.565,24.114 l -68.128,17.622 66.188,-2.191 c -18.55,15.598 -73.019,41.821 -73.019,41.821 28.668,-7.588 73.947,-23.355 107.757,-52.782 -30.101,-25.211 -66.526,-29.09 -88.364,-28.583 z"
         fill="#111111"
         id="path865" />
    </g>
  </g>
</svg>
