<?xml version="1.0" encoding="UTF-8" standalone="no"?>
<svg
   width="200"
   height="200"
   viewBox="0 0 52.916665 52.916668"
   version="1.1"
   id="svg8"
   inkscape:version="1.2.1 (9c6d41e410, 2022-07-14)"
   sodipodi:docname="FlyersCircle.svg"
   xmlns:inkscape="http://www.inkscape.org/namespaces/inkscape"
   xmlns:sodipodi="http://sodipodi.sourceforge.net/DTD/sodipodi-0.dtd"
   xmlns="http://www.w3.org/2000/svg"
   xmlns:svg="http://www.w3.org/2000/svg"
   xmlns:rdf="http://www.w3.org/1999/02/22-rdf-syntax-ns#"
   xmlns:cc="http://creativecommons.org/ns#"
   xmlns:dc="http://purl.org/dc/elements/1.1/">
  <defs
     id="defs2" />
  <sodipodi:namedview
     id="base"
     pagecolor="#ffffff"
     bordercolor="#666666"
     borderopacity="1.0"
     inkscape:pageopacity="0.0"
     inkscape:pageshadow="2"
     inkscape:zoom="2.8"
     inkscape:cx="10.178571"
     inkscape:cy="81.071429"
     inkscape:document-units="mm"
     inkscape:current-layer="layer1"
     inkscape:document-rotation="0"
     showgrid="false"
     units="px"
     inkscape:window-width="1920"
     inkscape:window-height="1017"
     inkscape:window-x="1912"
     inkscape:window-y="-8"
     inkscape:window-maximized="1"
     inkscape:showpageshadow="2"
     inkscape:pagecheckerboard="0"
     inkscape:deskcolor="#d1d1d1" />
  <metadata
     id="metadata5">
    <rdf:RDF>
      <cc:Work
         rdf:about="">
        <dc:format>image/svg+xml</dc:format>
        <dc:type
           rdf:resource="http://purl.org/dc/dcmitype/StillImage" />
        <dc:title />
      </cc:Work>
    </rdf:RDF>
  </metadata>
  <g
     inkscape:label="Layer 1"
     inkscape:groupmode="layer"
     id="layer1">
    <ellipse
       inkscape:export-ydpi="191.99995"
       inkscape:export-xdpi="191.99995"
       style="fill:#f74902;fill-opacity:1;stroke:#000000;stroke-width:0.529167;stroke-miterlimit:4;stroke-dasharray:none;stroke-opacity:1"
       id="path833"
       cx="13.229163"
       cy="13.229162"
       rx="12.964583"
       ry="12.964584" />
    <g
       inkscape:export-ydpi="96"
       inkscape:export-xdpi="96"
       transform="matrix(0.06956116,0,0,0.06956116,-5.5865574,-0.68306949)"
       id="g867"
       style="clip-rule:evenodd;fill-rule:evenodd"
       inkscape:export-filename="FlyersCircle.png">
      <path
         d="M 331.785,100 H 137.366 v 9.148 c -0.059,13.89 5.336,27.265 15.016,37.227 h -15.016 v 9.206 c -0.048,13.872 5.346,27.224 15.016,37.169 h -15.016 v 9.148 c -0.059,13.89 5.336,27.265 15.017,37.227 h -15.017 v 9.206 c 0,28.481 21.748,51.669 48.562,51.669 h 45.109 l 30.61,-51.726 c 17.229,21.039 43.03,33.259 70.223,33.259 49.793,0 90.766,-40.973 90.766,-90.766 0,-49.793 -40.973,-90.766 -90.766,-90.766 h -0.086 z"
         id="path847" />
      <path
         d="M 331.785,103.049 H 140.301 v 5.984 c -0.135,15.923 7.412,30.974 20.252,40.391 h -20.252 v 6.099 c -0.108,15.918 7.432,30.956 20.252,40.391 h -20.252 v 5.984 c -0.135,15.923 7.412,30.974 20.252,40.391 h -20.252 v 6.099 c 0,26.755 20.426,48.562 45.57,48.562 h 43.326 l 31.99,-54.028 c 16.534,22.434 42.801,35.705 70.669,35.705 48.16,0 87.789,-39.63 87.789,-87.79 0,-48.16 -39.629,-87.789 -87.789,-87.789 h -0.07 z"
         fill="#ffffff"
         id="path849" />
      <path
         d="M 331.785,109.033 H 148.126 c 0,23.533 17.721,42.578 39.471,42.578 h 69.217 c 1.068,0.012 1.945,0.887 1.956,1.956 -0.032,1.061 -0.896,1.925 -1.956,1.956 H 148.126 c 0,23.475 17.721,42.52 39.471,42.52 h 41.743 c 1.058,0 1.928,0.87 1.928,1.928 0,1.046 -0.853,1.912 -1.9,1.928 h -81.242 c 0,23.533 17.722,42.52 39.471,42.52 h 14.268 c 1.079,0.015 1.957,0.906 1.957,1.985 0,1.079 -0.878,1.97 -1.957,1.985 h -53.74 c 0,23.475 17.722,42.52 39.471,42.52 h 38.147 l 71.289,-120.541 c 7.25,-12.303 20.507,-19.878 34.787,-19.878 22.15,0 40.377,18.226 40.377,40.376 0,22.15 -18.227,40.377 -40.377,40.377 -21.83,0 -39.909,-17.703 -40.367,-39.528 l -26.985,45.627 c 15.261,22.099 40.464,35.322 67.321,35.322 44.883,0 81.816,-36.932 81.816,-81.815 0,-44.882 -36.933,-81.815 -81.816,-81.815 h -0.002 z"
         id="path851" />
      <path
         d="m 355.029,190.851 c -0.015,12.725 -10.491,23.188 -23.215,23.188 -12.737,0 -23.216,-10.48 -23.216,-23.216 0,-12.725 10.462,-23.201 23.187,-23.216 h 0.03 c 12.736,0 23.216,10.48 23.216,23.216 l -0.001,0.029 z"
         fill="#f74902"
         id="path853" />
    </g>
  </g>
</svg>
