<?xml version="1.0" encoding="UTF-8" standalone="no"?>
<svg
   xmlns:dc="http://purl.org/dc/elements/1.1/"
   xmlns:cc="http://creativecommons.org/ns#"
   xmlns:rdf="http://www.w3.org/1999/02/22-rdf-syntax-ns#"
   xmlns:svg="http://www.w3.org/2000/svg"
   xmlns="http://www.w3.org/2000/svg"
   xmlns:sodipodi="http://sodipodi.sourceforge.net/DTD/sodipodi-0.dtd"
   xmlns:inkscape="http://www.inkscape.org/namespaces/inkscape"
   sodipodi:docname="GoldenKnightsCircle.svg"
   inkscape:version="1.0 (4035a4fb49, 2020-05-01)"
   id="svg8"
   version="1.1"
   viewBox="0 0 52.916665 52.916668"
   height="200"
   width="200"
   inkscape:export-filename="E:\MyFiles\Projects\NHL_Playoffs\NewLogos\GoldenKnightsCircle.png"
   inkscape:export-xdpi="191.99995"
   inkscape:export-ydpi="191.99995">
  <defs
     id="defs2" />
  <sodipodi:namedview
     inkscape:window-maximized="1"
     inkscape:window-y="-8"
     inkscape:window-x="1912"
     inkscape:window-height="1137"
     inkscape:window-width="1600"
     units="px"
     showgrid="false"
     inkscape:document-rotation="0"
     inkscape:current-layer="layer1"
     inkscape:document-units="mm"
     inkscape:cy="69.643295"
     inkscape:cx="52.216013"
     inkscape:zoom="2.8"
     inkscape:pageshadow="2"
     inkscape:pageopacity="0.0"
     borderopacity="1.0"
     bordercolor="#666666"
     pagecolor="#ffffff"
     id="base" />
  <metadata
     id="metadata5">
    <rdf:RDF>
      <cc:Work
         rdf:about="">
        <dc:format>image/svg+xml</dc:format>
        <dc:type
           rdf:resource="http://purl.org/dc/dcmitype/StillImage" />
        <dc:title />
      </cc:Work>
    </rdf:RDF>
  </metadata>
  <g
     id="layer1"
     inkscape:groupmode="layer"
     inkscape:label="Layer 1">
    <ellipse
       ry="25.929174"
       rx="25.929173"
       cy="26.458336"
       cx="26.458336"
       id="path833"
       style="fill:#333f42;stroke:#b4975a;stroke-width:1.05833333;stroke-miterlimit:4;stroke-dasharray:none;stroke-opacity:1;fill-opacity:1" />
    <g
       style="clip-rule:evenodd;fill-rule:evenodd"
       id="g882"
       transform="matrix(0.16536541,0,0,0.16536541,-19.843731,-4.7415522)">
      <path
         id="path853"
         fill="#ffffff"
         d="M 295.773,79.486 C 293.047,76.945 280.03,64.673 280.03,64.673 c 0,0 -13.077,12.271 -15.804,14.813 h -84.227 v 184.939 c 31.484,34.831 57.824,51.504 100.03,70.902 42.021,-19.398 68.485,-36.008 99.969,-70.902 V 79.486 h -84.227 z" />
      <path
         id="path855"
         fill="#b4975a"
         d="m 294.41,82.956 c -0.124,-0.124 -14.379,-13.51 -14.379,-13.51 0,0 -14.254,13.325 -14.44,13.51 h -82.119 v 180.106 c 29.5,32.662 55.716,49.644 96.559,68.422 40.658,-18.778 66.936,-35.636 96.498,-68.422 V 82.956 Z" />
      <path
         id="path857"
         d="m 369.526,89.897 v 170.5 c -26.899,29.811 -55.036,47.536 -89.496,63.402 -34.459,-15.866 -62.658,-33.591 -89.557,-63.402 v -170.5 h 60.242 c -23.737,13.821 -39.355,37.868 -39.355,70.344 v 91.726 c 16.177,16.797 38.054,33.654 58.816,43.446 l -45.615,-131.454 42.951,20.639 -5.207,5.144 15.432,49.829 h 4.586 l 15.371,-49.829 -5.207,-5.144 42.951,-20.639 -45.553,131.454 c 20.576,-9.73 42.454,-26.527 58.754,-43.446 v -91.788 c 0,-32.414 -15.556,-56.461 -39.293,-70.282 z" />
      <path
         id="path859"
         fill="#333f42"
         d="m 291.931,89.464 c 1.239,-5.268 2.479,-6.508 2.479,-6.508 0,0 -12.706,-11.899 -14.255,-13.386 l -0.124,-0.124 V 200.9 l 9.545,-30.742 50.883,-24.481 c -4.524,-26.34 -21.692,-46.421 -48.528,-56.213 z m 53.238,83.917 -37.868,109.637 6.57,-8.491 c 0,0 17.229,-13.263 27.828,-25.41 V 193.09 Z" />
      <path
         id="path861"
         fill="#ffffff"
         d="m 266.272,190.735 1.24,-6.136 -5.207,5.144 15.432,49.83 2.293,-4.401 -13.759,-44.437 z" />
      <path
         id="path863"
         fill="#333f42"
         d="m 267.015,164.394 -40.595,-15.37 44.066,21.133 v -64.394 l -3.471,58.63 z m -52.184,8.986 31.546,91.23 -17.539,-41.338 -10.537,-30.183 z" />
      <path
         id="path865"
         fill="#ffffff"
         d="m 335.439,163.96 -45.553,131.454 6.074,-7.066 43.942,-126.495 -4.462,2.107 z m -67.37,-74.496 c -0.319,-1.39 -0.733,-2.757 -1.239,-4.091 -0.249,-0.88 -0.671,-1.702 -1.24,-2.417 -31.919,11.652 -54.23,38.427 -54.23,77.285 v 91.726 c 1.116,1.178 2.293,2.355 3.471,3.533 v -95.321 c 0,-32.538 15.681,-58.754 49.767,-73.008 1.227,0.652 2.39,1.42 3.471,2.293 z" />
    </g>
  </g>
</svg>
