<?xml version="1.0" encoding="UTF-8" standalone="no"?>
<svg
   xmlns:dc="http://purl.org/dc/elements/1.1/"
   xmlns:cc="http://creativecommons.org/ns#"
   xmlns:rdf="http://www.w3.org/1999/02/22-rdf-syntax-ns#"
   xmlns:svg="http://www.w3.org/2000/svg"
   xmlns="http://www.w3.org/2000/svg"
   xmlns:sodipodi="http://sodipodi.sourceforge.net/DTD/sodipodi-0.dtd"
   xmlns:inkscape="http://www.inkscape.org/namespaces/inkscape"
   width="200"
   height="200"
   viewBox="0 0 52.916665 52.916668"
   version="1.1"
   id="svg8"
   inkscape:version="1.0 (4035a4fb49, 2020-05-01)"
   sodipodi:docname="IslandersCircle.svg">
  <defs
     id="defs2" />
  <sodipodi:namedview
     id="base"
     pagecolor="#ffffff"
     bordercolor="#666666"
     borderopacity="1.0"
     inkscape:pageopacity="0.0"
     inkscape:pageshadow="2"
     inkscape:zoom="2.8"
     inkscape:cx="52.216013"
     inkscape:cy="69.643295"
     inkscape:document-units="mm"
     inkscape:current-layer="layer1"
     inkscape:document-rotation="0"
     showgrid="false"
     units="px"
     inkscape:window-width="1600"
     inkscape:window-height="1137"
     inkscape:window-x="1912"
     inkscape:window-y="-8"
     inkscape:window-maximized="1" />
  <metadata
     id="metadata5">
    <rdf:RDF>
      <cc:Work
         rdf:about="">
        <dc:format>image/svg+xml</dc:format>
        <dc:type
           rdf:resource="http://purl.org/dc/dcmitype/StillImage" />
        <dc:title />
      </cc:Work>
    </rdf:RDF>
  </metadata>
  <g
     inkscape:label="Layer 1"
     inkscape:groupmode="layer"
     id="layer1">
    <g
       inkscape:export-ydpi="192"
       inkscape:export-xdpi="192"
       transform="matrix(0.17638889,0,0,0.18284262,-22.930556,-10.1101)"
       id="g882"
       style="clip-rule:evenodd;fill-rule:evenodd">
      <path
         d="m 280,55.294 c -82.836,0 -150,64.804 -150,144.736 0,79.871 67.164,144.675 150,144.675 82.836,0 150,-64.804 150,-144.675 C 430,120.099 362.836,55.294 280,55.294 Z"
         fill="#ffffff"
         id="path853" />
      <path
         d="m 280,65.944 c -76.966,0 -139.35,60.024 -139.35,134.086 0,74.002 62.384,134.026 139.35,134.026 76.906,0 139.29,-60.024 139.29,-134.026 C 419.29,125.968 356.906,65.944 280,65.944 Z"
         fill="#f47d30"
         id="path855" />
      <path
         d="m 410.334,192.104 c -0.182,-2.239 -0.303,-4.417 -0.545,-6.595 h 0.061 c -3.933,-32.795 -21.057,-61.718 -46.107,-81.807 -2.723,-2.178 -5.506,-4.236 -8.411,-6.232 -48.545,-32.736 -113.126,-30.253 -159.016,6.111 -28.741,22.993 -47.075,57.664 -47.075,96.45 0,69.282 58.511,125.433 130.758,125.433 72.186,0 130.758,-56.152 130.758,-125.433 0,-2.662 -0.121,-5.325 -0.303,-7.987 l -0.121,0.061 z"
         fill="#00539b"
         id="path857" />
      <path
         d="m 267.112,270.946 17.85,-4.236 c 1.576,-0.428 2.897,-1.507 3.63,-2.965 l 11.073,-23.598 9.802,-20.875 6.898,-14.703 3.388,-7.2 7.019,-14.946 36.971,-78.661 c -2.718,-2.218 -5.546,-4.298 -8.471,-6.232 l -23.175,47.015 -27.773,-59.903 c -0.328,-0.704 -1.039,-1.155 -1.815,-1.15 h -48.286 c -1.092,0.009 -1.988,0.905 -1.997,1.997 v 39.209 L 230.988,83.673 c -12.496,4.847 -24.186,11.559 -34.671,19.907 v 72.973 c -0.012,1.084 0.87,1.985 1.954,1.997 h 27.452 c 1.112,0.016 2.04,-0.884 2.057,-1.997 v -32.614 l 20.149,33.643 c 0.366,0.623 1.032,1.014 1.755,1.029 h 30.699 c 1.076,0 1.964,-0.878 1.976,-1.954 v -63.394 l 31.646,68.072 -3.812,7.685 -22.207,45.2 -3.812,7.685 c -0.776,1.624 -2.329,2.743 -4.115,2.965 l -60.024,8.29 c -1.081,0.146 -1.85,1.156 -1.704,2.236 l 0.01,0.064 3.63,23.961 c 0.17,0.999 1.045,1.738 2.058,1.738 l 0.351,-0.03 0.072,-0.013 5.93,-1.392 36.728,-8.774 z"
         fill="#ffffff"
         id="path859" />
      <path
         d="m 248.415,275.363 -1.029,-6.595 c -0.04,-0.36 -0.311,-0.654 -0.666,-0.726 l -11.678,-2.844 c -0.455,-0.138 -0.942,0.121 -1.081,0.576 l -0.008,0.029 -3.509,13.856 -6.172,24.022 c -0.122,0.439 0.138,0.9 0.577,1.022 l 0.028,0.007 6.837,2.239 c 0.237,0.101 0.509,0.079 0.726,-0.061 0.219,-0.105 0.376,-0.307 0.424,-0.545 l 1.755,-7.019 9.439,3.025 1.331,8.592 c 0.078,0.309 0.305,0.559 0.605,0.666 l 7.2,2.36 c 0.294,0.095 0.617,0.025 0.847,-0.182 0.246,-0.207 0.362,-0.531 0.303,-0.847 l -5.93,-37.576 z m 41.993,-46.047 11.557,5.93 1.392,-2.965 -11.557,-5.869 z m 15.248,-1.876 -11.436,-5.869 -1.452,2.904 11.557,5.869 z m -4.599,9.802 -11.618,-5.93 -1.452,2.904 11.678,5.93 z m 28.56,-45.441 c 3.267,-4.296 11.557,0.847 12.586,-5.748 1.271,-3.509 5.204,-2.178 7.624,-3.873 0.726,-1.271 -0.605,-2.178 -0.847,-3.328 3.146,-3.449 7.443,-5.869 10.831,-9.439 2.481,-2.36 6.232,-1.815 9.379,-1.876 1.452,-0.908 3.57,-2.178 3.873,-3.873 l -0.424,-0.545 c -4.495,-0.539 -9.053,-0.02 -13.312,1.513 -4.393,4.001 -9.593,7.014 -15.248,8.834 -3.812,4.78 -11.678,7.019 -17.305,8.955 l -7.019,14.885 c 3.57,-0.908 8.29,-3.449 9.863,-5.506 z m -19.363,-2.783 c -8.108,-1.271 -18.092,4.054 -25.171,0.303 -8.108,-0.242 -17.547,0.303 -24.687,-3.509 -4.72,-0.726 -9.681,-0.666 -13.977,-2.36 -2.239,4.236 -4.841,-1.392 -7.564,-0.545 -1.786,0.582 -2.912,2.374 -2.662,4.236 -0.847,4.357 -6.232,1.815 -8.955,3.691 -5.083,2.844 -7.927,-4.417 -12.767,-4.357 -3.267,-0.908 -7.2,-0.484 -9.076,2.904 -2.844,0.726 -4.296,-3.025 -7.503,-1.815 -2.239,-1.392 1.029,-2.36 0.121,-4.054 -1.815,-1.997 -5.264,-3.449 -7.866,-1.755 -0.484,3.449 3.267,6.414 1.271,10.105 -1.936,0.363 -1.815,-2.481 -3.449,-3.146 -1.815,-0.847 -1.936,1.392 -2.904,2.299 -3.63,-0.182 -2.844,-4.236 -4.054,-6.414 -4.175,-0.666 -7.564,1.936 -11.012,3.449 -2.42,1.876 -0.847,5.809 -2.904,7.745 -1.634,-1.21 -1.452,-3.57 -3.086,-5.022 -1.314,-1.037 -3.042,-1.396 -4.659,-0.968 -1.573,0.424 -1.997,1.694 -2.299,3.086 0.039,0.703 0.629,1.26 1.333,1.26 0.122,0 0.244,-0.016 0.361,-0.049 0.87,0.19 1.497,0.967 1.497,1.859 0,0.212 -0.035,0.422 -0.105,0.622 -0.545,0.726 -0.908,2.178 -2.178,1.936 -1.331,-1.331 -3.328,-3.146 -5.264,-2.36 -0.787,0.726 0,1.694 0,2.481 -0.847,3.025 1.331,4.72 2.904,6.837 0.545,2.299 0.787,5.688 -0.968,7.382 -2.42,0.484 -3.025,3.146 -3.267,5.143 0.605,1.997 2.844,1.876 3.63,3.57 0.424,1.331 -1.089,2.42 -2.299,3.207 0.484,2.239 1.029,4.538 1.634,6.777 1.297,-0.584 2.694,-0.913 4.115,-0.968 0.762,0.354 1.273,1.098 1.331,1.936 0.787,1.573 2.42,3.086 4.296,2.178 1.876,-0.787 3.509,-3.388 5.567,-2.299 v 23.114 l 6.111,8.774 c 1.513,2.239 2.481,1.694 2.481,-0.182 v -32.251 c 3.267,-0.061 6.898,0.242 9.863,-0.908 5.869,0.363 12.888,1.997 18.031,-1.331 4.478,-0.787 8.653,-2.36 13.493,-2.299 3.328,-0.242 6.232,1.21 9.318,0.968 4.841,-5.446 11.678,1.029 17.366,-2.42 4.478,-2.299 8.229,1.694 13.009,0.968 2.965,-0.061 7.503,-3.388 10.105,0.605 2.326,0.989 5.003,0.714 7.079,-0.726 1.15,-4.175 5.99,-2.541 9.137,-3.509 2.118,-0.484 6.232,-2.602 9.016,-2.42 l 0.545,-1.15 11.436,5.809 1.392,-2.904 -11.376,-5.809 13.614,-27.713 z m -23.417,83.985 -6.414,-0.787 c -0.333,-0.05 -0.672,0.063 -0.908,0.303 -0.249,0.208 -0.384,0.523 -0.363,0.847 v 22.388 l -11.799,-24.566 -0.242,-0.242 c -0.159,-0.211 -0.402,-0.343 -0.666,-0.363 l -9.258,-1.089 c -0.323,-0.051 -0.653,0.036 -0.908,0.242 -0.229,0.222 -0.36,0.527 -0.363,0.847 v 42.779 c -0.018,0.56 0.41,1.041 0.968,1.089 l 6.353,0.908 c 0.323,0.051 0.653,-0.036 0.908,-0.242 0.258,-0.233 0.41,-0.561 0.424,-0.908 v -25.958 l 13.917,27.289 c 0.224,0.386 0.643,0.619 1.089,0.605 l 7.2,-0.424 c 0.578,-0.024 1.038,-0.511 1.029,-1.089 v -40.54 c 0.015,-0.559 -0.411,-1.039 -0.968,-1.089 z m 33.885,-58.39 c 3.873,2.965 4.538,-2.783 7.745,-3.086 1.997,-0.424 3.691,1.331 4.962,2.783 4.78,1.997 10.528,0.666 14.401,-2.541 4.115,-1.815 9.439,-1.089 13.675,-2.904 2.844,-1.876 5.567,-4.054 9.56,-3.388 11.799,-4.115 28.62,-9.923 40.904,-14.219 -0.121,-2.178 0.303,-3.57 0,-5.748 l -4.901,0.968 c -1.694,6.172 -8.834,2.057 -11.799,6.474 -3.873,0.242 -8.048,0.545 -10.105,4.417 -1.21,0.363 -2.965,0.363 -3.449,-1.15 0.847,-3.509 -4.962,-4.78 -2.299,-8.532 -0.182,-1.634 -2.118,-1.815 -3.328,-1.331 -2.602,0.968 -2.723,3.691 -3.086,5.93 -3.449,0.666 -3.752,-5.446 -7.564,-4.054 -3.743,3.805 -9.168,5.469 -14.401,4.417 -9.863,-0.726 -13.13,12.162 -21.601,14.885 -3.63,0.545 -9.076,-1.573 -13.07,-2.965 l -6.898,14.703 4.054,-1.029 c 2.662,-0.605 4.72,-2.36 7.2,-3.63 z m 3.207,14.522 c -10.165,0 -18.394,2.783 -18.394,6.232 v 10.165 c 0,3.449 8.229,6.232 18.394,6.232 10.105,0 18.394,-2.783 18.394,-6.232 v -10.226 c 0,-3.388 -8.29,-6.172 -18.394,-6.172 z m 56.878,-5.446 -8.713,9.621 c -2.239,2.541 -2.723,5.204 -2.723,8.229 v 4.115 c 0,2.844 0.605,5.446 4.296,6.232 l 4.78,1.029 c 1.513,0.363 2.36,0.787 2.36,1.876 v 1.089 c 0.167,1.055 -0.25,2.122 -1.089,2.783 -0.726,0.726 -2.36,2.42 -2.36,0.303 v -1.815 c 0,-1.452 -0.605,-1.452 -1.573,-0.484 l -5.446,5.627 c -0.687,0.608 -1.047,1.507 -0.968,2.42 v 3.63 c 0,6.474 3.328,7.745 6.777,3.267 l 8.229,-10.891 c 2.439,-3.34 3.639,-7.428 3.388,-11.557 0,-3.025 -2.662,-4.296 -4.538,-4.659 l -4.054,-0.666 c -1.392,-0.303 -1.815,-1.271 -1.815,-2.662 v -2.178 c -0.088,-1.311 0.324,-2.609 1.15,-3.63 l 0.847,-0.847 c 0.847,-0.847 1.452,-0.847 1.452,0.726 v 3.146 c 0,0.666 0.363,1.029 0.908,0.424 l 5.083,-5.204 c 0.693,-0.918 1.017,-2.062 0.908,-3.207 v -5.264 c 0.061,-5.446 -3.691,-4.962 -6.898,-1.452 z m -18.879,46.41 c 3.187,-2.62 5.049,-6.525 5.083,-10.649 v -10.589 c 0,-5.688 -3.63,-6.172 -7.745,-3.328 l -13.493,9.258 c -0.224,0.175 -0.357,0.442 -0.363,0.726 v 40.177 c -0.018,0.337 0.175,0.651 0.484,0.787 0.287,0.16 0.644,0.137 0.908,-0.061 l 6.837,-4.659 c 0.26,-0.148 0.423,-0.427 0.424,-0.726 v -15.49 l 1.392,-0.968 7.503,9.863 c 0.302,0.351 0.82,0.429 1.21,0.182 l 5.022,-3.388 c 0.208,-0.135 0.342,-0.358 0.363,-0.605 0.065,-0.238 -0.005,-0.493 -0.182,-0.666 l -7.443,-9.863 z m -19.484,-13.191 c -0.273,-0.169 -0.614,-0.192 -0.908,-0.061 l -16.156,7.927 c -0.309,0.135 -0.502,0.45 -0.484,0.787 v 40.601 c -0.026,0.323 0.14,0.631 0.424,0.787 0.26,0.142 0.57,0.164 0.847,0.061 l 16.156,-7.321 c 0.326,-0.115 0.528,-0.445 0.484,-0.787 v -5.748 c 0.007,-0.287 -0.129,-0.56 -0.363,-0.726 -0.251,-0.169 -0.575,-0.193 -0.847,-0.061 l -6.837,3.025 c -0.116,0.057 -0.243,0.087 -0.372,0.087 -0.46,0 -0.839,-0.378 -0.839,-0.839 l 0.001,-0.034 v -7.685 c -0.004,-0.349 0.182,-0.674 0.484,-0.847 l 8.29,-3.691 c 0.332,-0.142 0.529,-0.489 0.484,-0.847 v -5.748 c 0.008,-0.305 -0.126,-0.596 -0.363,-0.787 -0.262,-0.151 -0.585,-0.151 -0.847,0 l -6.777,3.267 c -0.261,0.151 -0.586,0.151 -0.847,0 -0.273,-0.165 -0.436,-0.467 -0.424,-0.787 v -8.229 c 0.013,-0.328 0.197,-0.627 0.484,-0.787 l 8.29,-4.054 c 0.317,-0.167 0.524,-0.489 0.545,-0.847 v -5.93 c -0.016,-0.295 -0.174,-0.567 -0.424,-0.726 z m -30.92,12.041 -17.91,3.57 c -0.515,0.111 -0.891,0.563 -0.908,1.089 v 40.359 c 0.03,0.313 0.157,0.609 0.363,0.847 0.268,0.226 0.625,0.316 0.968,0.242 l 17.487,-3.146 c 8.653,-1.513 8.653,-6.716 8.653,-7.866 v -31.585 c 0,0 0,-5.204 -8.653,-3.509 z m -88.766,26.745 -6.837,-4.054 v -34.127 c 0.024,-0.4 -0.19,-0.781 -0.545,-0.968 l -6.414,-3.812 c -0.322,-0.242 -0.767,-0.242 -1.089,0 -0.369,0.181 -0.605,0.557 -0.605,0.968 v 40.359 c 0.002,0.394 0.209,0.761 0.545,0.968 l 13.796,8.229 c 0.361,0.182 0.789,0.182 1.15,0 0.334,-0.21 0.539,-0.575 0.545,-0.968 v -5.627 c 0.009,-0.397 -0.201,-0.769 -0.545,-0.968 z M 201.701,247.59 189.176,236.335 c -4.841,-4.357 -8.169,-0.545 -8.169,2.239 v 11.678 c -0.027,1.774 0.597,3.496 1.755,4.841 l 11.315,14.764 c 0.574,0.743 0.873,1.663 0.847,2.602 v 1.634 c 0,1.331 -1.15,1.21 -2.057,0.424 l -2.42,-2.118 c -0.908,-0.666 -0.847,-2.057 -0.847,-3.207 v -1.513 c -0.203,-1.138 -0.804,-2.168 -1.694,-2.904 l -5.627,-5.204 c -0.847,-0.787 -1.271,-0.121 -1.271,2.057 v 6.716 c 0.244,2.953 1.609,5.704 3.812,7.685 l 12.888,11.678 c 3.146,2.783 5.869,0.061 5.869,-6.414 v -7.382 c -0.109,-3.602 -1.359,-7.077 -3.57,-9.923 l -9.5,-12.404 c -0.525,-0.768 -0.819,-1.671 -0.847,-2.602 v -1.271 c 0,0 0.303,-1.876 1.815,-0.484 l 2.42,2.118 c 0.682,0.672 1.073,1.584 1.089,2.541 v 1.755 c -0.057,1.032 0.395,2.028 1.21,2.662 l 4.538,4.115 c 1.936,1.694 2.844,0.484 2.844,-1.089 v -6.958 c 0.066,-1.784 -0.615,-3.517 -1.876,-4.78 z"
         fill="#f47d30"
         id="path861" />
      <path
         d="m 178.225,231.857 v -8.774 l -8.653,-7.564 v 16.882 c 2.662,-0.726 5.93,0.182 8.653,-0.545 z m 64.441,61.9 -2.541,-16.095 -3.57,14.098 z m 114.542,-38.181 -2.783,1.936 c -0.245,0.156 -0.384,0.436 -0.363,0.726 v 7.14 c 0.013,0.328 0.197,0.627 0.484,0.787 0.287,0.162 0.644,0.138 0.908,-0.061 l 1.936,-1.331 c 1.155,-0.959 1.839,-2.372 1.876,-3.873 v -4.175 c 0,-1.21 -0.908,-1.936 -2.057,-1.15 z m -49.435,22.388 -6.414,1.271 v 27.108 l 6.837,-1.21 c 3.388,-0.605 3.388,-4.417 3.388,-4.417 v -20.032 c 0,-1.578 -1.298,-2.876 -2.875,-2.876 -0.319,0 -0.635,0.053 -0.937,0.157 z"
         fill="#00539b"
         id="path863" />
      <path
         d="m 342.323,235.367 c 0,3.388 -8.229,6.172 -18.394,6.172 -10.165,0 -18.394,-2.783 -18.394,-6.172 0,-3.449 8.229,-6.232 18.394,-6.232 10.165,0 18.394,2.783 18.394,6.232 z"
         fill="#ffffff"
         id="path865" />
    </g>
  </g>
</svg>
