<?xml version="1.0" encoding="UTF-8" standalone="no"?>
<svg
   xmlns:dc="http://purl.org/dc/elements/1.1/"
   xmlns:cc="http://creativecommons.org/ns#"
   xmlns:rdf="http://www.w3.org/1999/02/22-rdf-syntax-ns#"
   xmlns:svg="http://www.w3.org/2000/svg"
   xmlns="http://www.w3.org/2000/svg"
   xmlns:sodipodi="http://sodipodi.sourceforge.net/DTD/sodipodi-0.dtd"
   xmlns:inkscape="http://www.inkscape.org/namespaces/inkscape"
   width="200"
   height="200"
   viewBox="0 0 52.916665 52.916668"
   version="1.1"
   id="svg8"
   inkscape:version="1.0 (4035a4fb49, 2020-05-01)"
   sodipodi:docname="JetsCircle.svg">
  <defs
     id="defs2" />
  <sodipodi:namedview
     id="base"
     pagecolor="#ffffff"
     bordercolor="#666666"
     borderopacity="1.0"
     inkscape:pageopacity="0.0"
     inkscape:pageshadow="2"
     inkscape:zoom="2.8"
     inkscape:cx="52.216013"
     inkscape:cy="69.643295"
     inkscape:document-units="mm"
     inkscape:current-layer="layer1"
     inkscape:document-rotation="0"
     showgrid="false"
     units="px"
     inkscape:window-width="1600"
     inkscape:window-height="1137"
     inkscape:window-x="1912"
     inkscape:window-y="-8"
     inkscape:window-maximized="1" />
  <metadata
     id="metadata5">
    <rdf:RDF>
      <cc:Work
         rdf:about="">
        <dc:format>image/svg+xml</dc:format>
        <dc:type
           rdf:resource="http://purl.org/dc/dcmitype/StillImage" />
        <dc:title />
      </cc:Work>
    </rdf:RDF>
  </metadata>
  <g
     inkscape:label="Layer 1"
     inkscape:groupmode="layer"
     id="layer1">
    <g
       inkscape:export-ydpi="192"
       inkscape:export-xdpi="192"
       transform="matrix(0.17638948,0,0,0.17638948,-22.930632,-8.819474)"
       id="g882"
       style="clip-rule:evenodd;fill-rule:evenodd">
      <path
         d="m 429.999,200 c 0,82.287 -67.712,149.999 -149.999,149.999 -82.288,0 -150,-67.712 -150,-149.999 0,-82.288 67.712,-150 150,-150 82.286,0.005 149.994,67.714 149.999,150 z"
         fill="#8e9090"
         id="path853" />
      <path
         d="m 419.894,200 c -0.017,76.748 -63.176,139.894 -139.925,139.894 -76.761,0 -139.926,-63.164 -139.926,-139.925 0,-76.761 63.165,-139.926 139.926,-139.926 h 0.039 c 76.739,0 139.886,63.147 139.886,139.886 v 0.07 z"
         fill="#041e41"
         id="path855" />
      <path
         d="M 293.553,97.68 280,63.615 265.659,97.68 c -51.005,6.952 -89.454,50.964 -89.492,102.441 0,57.119 46.713,103.407 103.833,103.407 56.566,-0.225 102.984,-46.83 102.984,-103.398 0,-51.47 -38.432,-95.498 -89.431,-102.451 z"
         fill="#ffffff"
         id="path857" />
      <path
         d="m 271.346,256.332 1.09,2.421 z m -26.683,1.695 v 15.611 l 24.626,-12.163 1.876,-4.658 8.834,42.719 8.895,-43.082 1.996,5.022 24.687,12.163 v -15.611 l -9.197,-13.191 0.182,0.182 14.461,-2.36 -6.595,-8.229 11.255,-9.803 11.435,-0.787 6.172,3.086 v -17.729 l 16.882,-14.703 -16.519,-0.121 11.194,-31.041 -30.677,11.618 -0.544,-16.519 -20.997,20.936 c 0.544,-3.268 7.987,-46.955 7.987,-46.955 l -19.907,13.01 z m 46.046,-112.605 -10.709,4.78 -10.529,-4.901 -19.665,-12.889 c 0,0 7.926,46.894 7.926,46.955 l -20.936,-20.936 -0.605,16.519 -30.677,-11.618 11.193,31.041 -16.518,0.121 16.76,14.582 v 17.85 l 6.172,-3.086 11.617,0.726 11.255,9.803 -6.656,8.229 11.073,1.815 40.298,-98.99 z"
         fill="#7b303e"
         id="path859" />
      <path
         d="m 352.488,165.812 -29.286,11.073 -8.592,14.825 5.869,2.783 32.008,-28.681 z m -43.928,-30.436 -17.547,11.558 1.936,9.075 z m -104.679,60.447 13.009,11.376 v -11.437 z m 69.765,65.712 6.354,32.191 v -17.668 z m -15.913,-80.233 -0.061,-0.061 -19.604,-19.543 -0.606,15.187 -29.346,-11.073 28.681,30.072 24.083,-11.496 z m 11.435,-34.55 -17.426,-11.437 v 0.182 l 13.917,33.945 0.908,-10.709 z m -6.656,79.689 -25.534,-1.695 10.831,9.439 c -0.181,0.424 -5.869,7.443 -5.869,7.443 l 12.586,2.057 7.987,-11.435 v -5.809 z"
         fill="#ac162c"
         id="path861" />
      <path
         d="m 343.17,180.395 -8.351,20.936 -39.088,-18.637 -2.118,-23.961 -13.614,-62.263 -13.372,62.263 -2.118,23.961 -39.088,18.637 -8.593,-20.633 0.061,10.165 v 36.063 l 6.233,-3.086 39.39,2.602 v 5.869 l -17.849,25.716 v 15.611 l 24.687,-12.163 1.996,-5.143 8.654,19.727 8.895,-19.727 1.996,5.143 24.687,12.163 v -15.611 l -17.849,-25.716 v -5.869 l 39.39,-2.602 6.233,3.086 v -36.063 z"
         fill="#55565a"
         id="path863" />
      <path
         d="m 269.289,159.096 -2.239,25.353 -1.21,14.34 -2.542,-12.525 -39.269,18.758 -4.417,-10.589 v 28.136 l 2.965,-1.513 42.658,2.844 v 9.258 l -17.911,25.716 v 10.408 l 19.847,-9.742 3.086,-7.746 -1.695,-8.592 2.904,6.717 8.532,19.423 v -161.92 l -10.711,51.674 z"
         fill="#8e9090"
         id="path865" />
    </g>
  </g>
</svg>
