<?xml version="1.0" encoding="UTF-8" standalone="no"?>
<svg
   xmlns:dc="http://purl.org/dc/elements/1.1/"
   xmlns:cc="http://creativecommons.org/ns#"
   xmlns:rdf="http://www.w3.org/1999/02/22-rdf-syntax-ns#"
   xmlns:svg="http://www.w3.org/2000/svg"
   xmlns="http://www.w3.org/2000/svg"
   xmlns:sodipodi="http://sodipodi.sourceforge.net/DTD/sodipodi-0.dtd"
   xmlns:inkscape="http://www.inkscape.org/namespaces/inkscape"
   inkscape:export-ydpi="191.99995"
   inkscape:export-xdpi="191.99995"
   inkscape:export-filename="E:\MyFiles\Projects\NHL_Playoffs\NewLogos\KrakenCircle.png"
   width="200"
   height="200"
   viewBox="0 0 52.916665 52.916668"
   version="1.1"
   id="svg8"
   inkscape:version="1.0 (4035a4fb49, 2020-05-01)"
   sodipodi:docname="KrakenCircle.svg">
  <defs
     id="defs2" />
  <sodipodi:namedview
     id="base"
     pagecolor="#ffffff"
     bordercolor="#666666"
     borderopacity="1.0"
     inkscape:pageopacity="0.0"
     inkscape:pageshadow="2"
     inkscape:zoom="2.8"
     inkscape:cx="87.863592"
     inkscape:cy="112.50044"
     inkscape:document-units="mm"
     inkscape:current-layer="layer1"
     inkscape:document-rotation="0"
     showgrid="false"
     units="px"
     inkscape:window-width="1600"
     inkscape:window-height="1137"
     inkscape:window-x="1912"
     inkscape:window-y="-8"
     inkscape:window-maximized="1" />
  <metadata
     id="metadata5">
    <rdf:RDF>
      <cc:Work
         rdf:about="">
        <dc:format>image/svg+xml</dc:format>
        <dc:type
           rdf:resource="http://purl.org/dc/dcmitype/StillImage" />
        <dc:title />
      </cc:Work>
    </rdf:RDF>
  </metadata>
  <g
     inkscape:label="Layer 1"
     inkscape:groupmode="layer"
     id="layer1">
    <ellipse
       style="fill:#96d8d8;stroke:#c8102e;stroke-width:1.05833333;stroke-miterlimit:4;stroke-dasharray:none;stroke-opacity:1;fill-opacity:1"
       id="path833"
       cx="26.458336"
       cy="26.458336"
       rx="25.929173"
       ry="25.929174"
       inkscape:export-xdpi="191.99995"
       inkscape:export-ydpi="191.99995" />
    <g
       style="clip-rule:evenodd;fill-rule:evenodd;stroke-linejoin:round;stroke-miterlimit:1.41421"
       id="g876"
       transform="matrix(0.15875016,0,0,0.15875016,-17.991693,-5.2916832)"
       inkscape:export-xdpi="191.99995"
       inkscape:export-ydpi="191.99995">
      <g
         id="g861"
         transform="matrix(1.11111,0,0,1.11111,180,66.772274)"
         fill-rule="nonzero">
        <path
           id="path853"
           fill="#001425"
           d="m 0,190.91 c 44,3.85 72,16.26 85.56,42 46.55,-7.54 89.6,-37.39 89.6,-75.88 0,-51.26 -62.12,-59.32 -63.77,-74.26 C 137.51,92.24 166.27,82.28 180,49.68 139.42,46.68 109.71,31.88 96.86,6.9 47.09,15.73 7.27,48 7.27,82.75 c 0,50.83 65.33,64.29 72.64,75.07 C 44.26,144.3 13.51,159.7 0,190.91 Z" />
        <path
           id="path855"
           fill="#96d8d8"
           d="M 77.25,80.12 C 71.68,74.46 69.36,70 69.36,64.18 c 0,-6.7 3.22,-10 3.22,-13.72 0,-3.22 -2,-5.75 -5.9,-6.52 2.126,-2.383 5.129,-3.805 8.32,-3.94 16.61,0 21.52,36.72 56.18,35.4 12.35,-1.18 24,-7.18 31.37,-17.72 C 132.28,53.72 104.65,40.86 91.14,19 c -14,2.55 -72.74,22.82 -71.25,65.18 1.54,44.17 66.87,56.45 85.15,75.42 14.41,15 4.26,30 -5,35.51 -14.35,-37.31 -61.5,-40 -80.27,-13 30.23,3.89 57.87,16.76 71.37,38.62 33.39,-7 49.5,-36.28 43.37,-57.4 -10.15,-35 -76,-41.1 -93.51,-73.84 C 31.66,71.07 39.34,51.41 56.42,40 c -6.318,7.925 -9.764,17.765 -9.77,27.9 1.52,1.65 2.16,5.53 2.18,5.6 0.22,1.35 0.62,4.21 -0.09,6 0.752,1.967 1.707,3.851 2.85,5.62 2.28,0.57 4.86,3.55 4.9,3.62 2.52,2.89 2.91,4.71 3,5.4 1.55,1.39 3.22,2.73 5,4 1.47,-0.17 3.72,0.54 6,2 2.62,1.71 3.93,3.42 4.3,4.69 1.83,1.07 3.7,2.11 5.62,3.14 1.47,-0.4 3.89,0.06 6.31,1.31 2.42,1.25 4.22,3 4.75,4.38 l 5.81,2.89 c 1.46,-0.43 3.9,0 6.35,1.24 2.45,1.24 4.15,2.91 4.71,4.33 2,1 4,2.07 5.89,3.13 1.8,-0.37 4.67,0.73 6.24,1.66 1.932,1.012 3.471,2.642 4.37,4.63 2,1.27 3.85,2.58 5.67,3.93 1.53,-0.07 3.79,0.81 5.89,2.6 2.27,2 3.44,4.15 3.49,5.66 1.552,1.649 2.989,3.403 4.3,5.25 1.86,0.46 3.73,2.61 4.77,4.77 1.44,3.15 1.26,5.36 0.83,6.51 2.51,7.81 3.18,17.66 -0.85,29 0,0.11 -0.09,0.25 -0.15,0.4 8.43,-9.19 14.13,-20.49 13.65,-34.06 C 160.85,111.37 95.53,99.09 77.25,80.12 Z" />
        <path
           id="path857"
           fill="#c8102e"
           d="M 102.32,84.75 C 94.86,76.17 90.09,60.94 81.86,55 c -3.69,13.11 3.99,27.44 20.46,29.75 z" />
        <path
           id="path859"
           fill="#639fb6"
           d="m 96.41,207.94 c -1.46,4.38 -3.221,8.653 -5.27,12.79 C 77.64,198.86 50,186 19.74,182.07 51,166.39 83.4,182.89 96.41,207.94 Z M 162.55,57.64 C 131.27,73.32 98.89,56.82 85.88,31.76 87.334,27.389 89.091,23.125 91.14,19 77.92,21.38 18.39,41.43 19.89,84.16 c 1.54,44.17 66.87,56.45 85.15,75.42 14.41,15 4.26,30 -5,35.51 -0.964,4.343 -2.166,8.629 -3.6,12.84 6.8,-1.19 27.43,-12.11 27.57,-33.13 0.18,-29 -37.26,-36.64 -65.63,-54.22 C 35,106.11 30.46,91.76 29.28,82.67 26.49,61.3 41.58,41.77 63.51,32.57 c -2.641,2.195 -5.021,4.689 -7.09,7.43 -6.317,7.93 -9.762,17.772 -9.77,27.91 1.52,1.65 2.16,5.52 2.18,5.6 0.22,1.35 0.62,4.21 -0.09,6 0.762,1.922 1.716,3.761 2.85,5.49 2.28,0.58 4.86,3.56 4.9,3.62 2.52,2.89 2.91,4.72 3,5.41 1.55,1.39 3.22,2.72 5,4 1.47,-0.17 3.72,0.55 6,2 2.62,1.72 3.93,3.42 4.3,4.69 1.827,1.067 3.7,2.113 5.62,3.14 1.47,-0.4 3.89,0.06 6.31,1.31 2.42,1.25 4.22,3 4.75,4.39 l 5.81,2.88 c 1.46,-0.42 3.9,0 6.35,1.25 2.45,1.25 4.15,2.9 4.71,4.32 2,1.033 3.963,2.077 5.89,3.13 1.8,-0.37 4.67,0.73 6.24,1.67 1.934,1.009 3.474,2.641 4.37,4.63 2,1.27 3.85,2.58 5.67,3.93 1.53,-0.07 3.79,0.81 5.89,2.6 2.27,2 3.44,4.15 3.49,5.65 1.55,1.651 2.987,3.405 4.3,5.25 1.86,0.47 3.73,2.62 4.77,4.77 1.44,3.15 1.26,5.36 0.83,6.51 2.51,7.82 3.18,17.67 -0.85,29 10.78,-18.26 9.74,-36.4 -2.3,-51.72 -25.18,-32 -88.52,-35.86 -88.28,-72.58 0.104,-7.776 3.087,-15.243 8.37,-20.95 2.118,-2.359 5.102,-3.767 8.27,-3.9 16.61,0 21.52,36.72 56.18,35.4 12.37,-1.19 24.05,-7.19 31.38,-17.72 z" />
      </g>
    </g>
  </g>
</svg>
