<?xml version="1.0" encoding="UTF-8" standalone="no"?>
<svg
   xmlns:dc="http://purl.org/dc/elements/1.1/"
   xmlns:cc="http://creativecommons.org/ns#"
   xmlns:rdf="http://www.w3.org/1999/02/22-rdf-syntax-ns#"
   xmlns:svg="http://www.w3.org/2000/svg"
   xmlns="http://www.w3.org/2000/svg"
   xmlns:sodipodi="http://sodipodi.sourceforge.net/DTD/sodipodi-0.dtd"
   xmlns:inkscape="http://www.inkscape.org/namespaces/inkscape"
   inkscape:export-ydpi="191.99995"
   inkscape:export-xdpi="191.99995"
   inkscape:export-filename="E:\MyFiles\Projects\NHL_Playoffs\NewLogos\RedWingsCircle.png"
   width="200"
   height="200"
   viewBox="0 0 52.916665 52.916668"
   version="1.1"
   id="svg8"
   inkscape:version="1.0 (4035a4fb49, 2020-05-01)"
   sodipodi:docname="RedWingsCircle.svg">
  <defs
     id="defs2" />
  <sodipodi:namedview
     id="base"
     pagecolor="#ffffff"
     bordercolor="#666666"
     borderopacity="1.0"
     inkscape:pageopacity="0.0"
     inkscape:pageshadow="2"
     inkscape:zoom="2.8"
     inkscape:cx="52.216013"
     inkscape:cy="69.643295"
     inkscape:document-units="mm"
     inkscape:current-layer="layer1"
     inkscape:document-rotation="0"
     showgrid="false"
     units="px"
     inkscape:window-width="1600"
     inkscape:window-height="1137"
     inkscape:window-x="1912"
     inkscape:window-y="-8"
     inkscape:window-maximized="1" />
  <metadata
     id="metadata5">
    <rdf:RDF>
      <cc:Work
         rdf:about="">
        <dc:format>image/svg+xml</dc:format>
        <dc:type
           rdf:resource="http://purl.org/dc/dcmitype/StillImage" />
        <dc:title />
      </cc:Work>
    </rdf:RDF>
  </metadata>
  <g
     inkscape:label="Layer 1"
     inkscape:groupmode="layer"
     id="layer1">
    <ellipse
       style="fill:#ffffff;stroke:#ce1126;stroke-width:1.05833333;stroke-miterlimit:4;stroke-dasharray:none;stroke-opacity:1;fill-opacity:1"
       id="path833"
       cx="26.458336"
       cy="26.458336"
       rx="25.929173"
       ry="25.929174" />
    <g
       transform="matrix(0.14697931,0,0,0.14697931,-14.695797,-2.9373973)"
       id="g862"
       style="clip-rule:evenodd;fill-rule:evenodd">
      <path
         d="m 392.626,161.015 c 11.383,-9.694 22.383,-25.324 22.383,-43.242 l 10e-4,-0.043 c 0,-1.37 -1.127,-2.498 -2.498,-2.498 -0.769,0 -1.496,0.355 -1.969,0.962 -11.709,15.957 -22.71,22.057 -29.409,24.343 11.11,-8.387 21.947,-22.11 24.779,-37.632 0.021,-0.13 0.031,-0.262 0.031,-0.395 0,-1.377 -1.133,-2.511 -2.511,-2.511 -0.662,0 -1.297,0.262 -1.768,0.728 -13.561,13.561 -32.241,28.047 -82.454,28.047 -12.09,0 -25.978,-0.382 -34.964,-0.382 -40.737,0 -55.714,25.216 -59.091,32.241 -3.35,-0.489 -6.731,-0.734 -10.117,-0.734 -38.428,0 -70.05,31.622 -70.05,70.05 0,38.424 31.614,70.043 70.037,70.05 28.158,0.075 53.715,-16.92 64.536,-42.915 0.757,0.124 1.521,0.197 2.287,0.218 8.877,0 10.729,-2.559 10.729,-4.793 0,-1.143 -1.143,-2.559 -1.742,-3.376 13.016,-0.109 16.883,-0.708 22.492,-2.669 0.888,-0.259 1.494,-1.09 1.47,-2.016 0,-1.905 -3.975,-5.119 -6.808,-7.57 18.19,-0.326 31.642,-3.594 31.642,-7.842 0,-0.817 -0.109,-1.852 -4.956,-5.663 10.293,-2.833 28.374,-9.749 28.374,-14.269 0,-1.743 -1.524,-2.778 -3.322,-4.031 16.012,-6.045 29.464,-16.665 29.464,-20.477 0,-3.05 -4.521,-3.322 -6.754,-3.485 7.952,-5.12 19.062,-13.833 19.062,-17.591 0,-3.867 -6.1,-2.342 -8.877,-2.505 z"
         fill="#ce1126"
         id="path845" />
      <path
         d="m 387.942,161.996 c 12.798,-9.53 24.888,-26.032 24.888,-44.222 l 0.002,-0.035 c 0,-0.178 -0.146,-0.325 -0.324,-0.325 -0.082,0 -0.162,0.031 -0.222,0.087 -19.715,26.904 -37.633,26.632 -37.633,26.632 -0.762,0 -0.925,-1.089 -0.326,-1.525 12.744,-7.515 26.359,-22.927 29.409,-40.083 0.055,-0.218 -0.273,-0.49 -0.49,-0.273 -14.486,14.487 -34.365,28.701 -84.033,28.701 -15.848,0 -24.181,-0.326 -34.964,-0.326 -42.97,0 -56.204,28.592 -57.783,32.35 -3.782,-0.647 -7.611,-0.972 -11.447,-0.972 -37.254,0 -67.908,30.655 -67.908,67.908 0,37.254 30.655,67.909 67.908,67.909 27.84,0 52.983,-17.121 63.185,-43.025 1.204,0.226 2.424,0.354 3.649,0.381 6.917,0 8.605,-1.579 8.605,-2.669 0,-0.708 -4.466,-5.555 -2.233,-5.555 15.304,0 18.734,-0.544 24.399,-2.504 -2.723,-4.194 -12.472,-9.694 -7.461,-9.694 24.344,0 32.295,-4.684 32.295,-5.664 0,-1.198 -7.733,-6.753 -7.733,-6.753 11.165,-1.852 31.152,-10.838 31.152,-13.179 0,-1.416 -5.664,-3.758 -4.738,-5.065 17.7,-5.881 30.934,-17.373 30.934,-19.442 0,-1.688 -10.402,-1.525 -10.402,-1.525 v -1.089 c 8.987,-4.683 22.71,-16.011 22.71,-18.462 0,-1.634 -12.907,1.035 -11.436,-1.58 z"
         fill="#ffffff"
         id="path847" />
      <path
         d="m 183.931,209.812 9.857,10.021 c 1.854,-3.893 4.736,-7.208 8.333,-9.586 l -11.219,-8.387 c -2.676,2.34 -5.021,5.033 -6.971,8.006 v -0.055 z m -5.555,15.032 14.269,-2.07 c 0.055,-0.218 0.163,-0.436 0.218,-0.708 l -10.075,-10.293 c -2.306,4.048 -3.804,8.506 -4.412,13.125 z m -0.381,5.064 c 0.021,2.616 0.294,5.224 0.817,7.788 l 14.051,0.109 c -0.888,-2.539 -1.348,-5.208 -1.362,-7.897 -0.001,-1.61 0.163,-3.216 0.49,-4.793 l -13.888,2.016 c -0.054,0.925 -0.109,1.852 -0.109,2.777 z m 55.169,-32.241 c -4.043,-2.273 -8.477,-3.77 -13.07,-4.411 l 2.07,14.269 c 0.245,0.04 0.483,0.113 0.708,0.218 l 10.293,-10.076 z m 11.001,55.06 c -4.05,-2.038 -7.883,-4.482 -11.437,-7.297 -1.42,1.593 -3.05,2.986 -4.847,4.139 l 11.273,8.387 c 1.833,-1.579 3.511,-3.33 5.011,-5.229 z m -24.344,-45.802 -2.015,-13.887 c -0.923,-0.091 -1.851,-0.127 -2.778,-0.109 -2.617,-0.006 -5.229,0.268 -7.788,0.817 l -0.109,13.996 c 2.547,-0.856 5.21,-1.316 7.896,-1.361 1.613,0.013 3.219,0.196 4.793,0.544 z m -15.575,2.124 c 0.206,-0.13 0.425,-0.24 0.653,-0.326 l 0.164,-14.432 c -4.479,1.236 -8.677,3.326 -12.363,6.154 l 11.546,8.605 z m 31.315,-7.026 c 0,-0.98 0,-1.905 -0.055,-2.886 -0.114,-0.109 -0.242,-0.2 -0.381,-0.272 l -10.021,9.803 c 2.92,1.416 5.531,3.396 7.679,5.828 1.525,-4.084 2.778,-8.605 2.778,-12.472 z m -25.324,50.921 2.015,13.888 c 0.925,0.055 1.852,0.109 2.777,0.109 2.6,0.007 5.192,-0.268 7.734,-0.817 l 0.163,-14.05 c -2.536,0.896 -5.207,1.356 -7.897,1.361 -1.61,0.002 -3.216,-0.163 -4.792,-0.49 z m -15.576,-28.211 c -1.107,4.338 -0.802,8.918 0.872,13.071 l 0.762,0.054 4.683,-6.317 -0.109,-1.307 -5.5,-5.609 -0.708,0.109 z m 3.431,-0.49 3.05,3.05 c 0.241,-1.28 0.644,-2.525 1.198,-3.703 l -4.248,0.654 z m 6.754,-4.085 0.054,-7.842 -0.653,-0.49 c -3.844,2.31 -6.858,5.781 -8.605,9.912 l 0.545,0.544 7.733,-1.143 c 0.327,-0.327 0.599,-0.708 0.926,-0.981 z m 0.381,19.987 -7.842,-0.054 -0.436,0.599 c 2.303,3.83 5.752,6.84 9.857,8.605 l 0.599,-0.544 -1.143,-7.734 c -0.381,-0.273 -0.708,-0.599 -1.035,-0.872 z m -1.906,-2.233 c -0.71,-1.093 -1.294,-2.262 -1.742,-3.485 l -2.56,3.431 4.302,0.055 z m 21.839,13.234 -0.163,14.432 c 4.466,-1.27 8.657,-3.358 12.363,-6.154 l -11.546,-8.605 -0.654,0.326 z m -15.793,-4.302 3.05,-3.05 c -1.284,-0.226 -2.531,-0.629 -3.703,-1.199 l 0.654,4.248 z m 13.561,1.797 -6.263,-4.683 c -0.451,0.066 -0.905,0.102 -1.361,0.109 l -5.555,5.501 0.109,0.762 c 1.69,0.438 3.429,0.658 5.174,0.654 2.706,0.01 5.389,-0.508 7.897,-1.525 v -0.817 z m -28.756,-7.897 c -0.163,-0.272 -0.272,-0.49 -0.381,-0.708 l -14.377,-0.109 c 1.248,4.475 3.337,8.67 6.154,12.363 l 8.605,-11.546 z m 12.853,-22.492 c 1.068,-0.752 2.243,-1.34 3.485,-1.743 l -3.431,-2.56 -0.055,4.303 z m 19.606,20.368 -0.544,0.055 c -0.261,0.368 -0.553,0.715 -0.872,1.035 l -0.055,7.842 0.599,0.435 c 1.912,-1.103 3.624,-2.52 5.065,-4.193 -2.07,-1.852 -3.595,-3.649 -4.194,-5.174 z m -18.734,13.724 -0.708,-0.272 -10.293,10.129 c 4.047,2.256 8.48,3.734 13.071,4.357 z m 18.789,-30.389 c 0.568,0.797 1.042,1.655 1.416,2.559 0.326,-0.599 0.762,-1.471 1.307,-2.559 z m -31.751,39.048 10.02,-9.857 c -3.904,-1.837 -7.223,-4.721 -9.585,-8.333 l -8.388,11.219 c 2.321,2.675 4.996,5.02 7.952,6.971 z m 28.047,-19.388 c -1.068,0.72 -2.22,1.306 -3.432,1.743 l 3.432,2.559 z m -2.287,-28.592 -3.05,2.995 c 1.28,0.269 2.523,0.69 3.703,1.253 l -0.654,-4.248 z m -13.561,-1.852 6.262,4.683 c 0.453,-0.046 0.907,-0.065 1.362,-0.055 l 5.555,-5.5 -0.109,-0.762 c -4.338,-1.107 -8.918,-0.802 -13.07,0.872 z m 24.562,5.936 c -2.229,-2.88 -5.153,-5.148 -8.496,-6.59 l -0.545,0.544 1.144,7.789 c 0.368,0.26 0.715,0.552 1.035,0.871 l 5.663,0.055 c 0.382,-0.872 0.817,-1.742 1.199,-2.669 z m -9.043,12.802 c 0,4.183 -3.442,7.625 -7.625,7.625 -4.182,0 -7.625,-3.442 -7.625,-7.625 0,-4.183 3.443,-7.625 7.625,-7.625 4.176,0.019 7.606,3.449 7.625,7.625 z m -7.625,-45.747 h -0.005 c -25.111,0 -45.774,20.663 -45.774,45.774 0,25.111 20.663,45.775 45.774,45.775 14.842,0 28.793,-7.218 37.365,-19.333 -1.742,-0.654 -3.485,-1.362 -5.229,-2.179 -7.601,10.032 -19.484,15.938 -32.07,15.938 -22.073,0 -40.238,-18.164 -40.238,-40.238 0,-22.073 18.164,-40.237 40.238,-40.237 7.137,0 14.146,1.899 20.308,5.501 -0.098,-2.07 -0.062,-4.144 0.109,-6.209 -6.357,-3.178 -13.371,-4.819 -20.478,-4.793 z m 76.736,-42.916 h 34.582 c 44.223,0 63.556,-15.793 71.181,-29.79 0.436,-0.817 -0.109,-1.035 -0.925,-0.273 -9.64,8.659 -23.963,23.745 -82.618,23.745 h -24.725 c -38.885,0 -53.535,17.536 -57.347,29.191 1.938,0.492 3.848,1.092 5.719,1.797 6.916,-12.471 20.096,-24.671 54.134,-24.671 z m -133.375,64.646 c 1.471,1.198 0.273,3.268 1.307,4.738 8.208,-23.461 30.483,-39.267 55.338,-39.267 6.592,0 13.138,1.112 19.361,3.289 1.388,0.485 2.757,1.023 4.105,1.612 0.545,-1.253 1.144,-2.559 1.852,-3.921 -7.962,-3.484 -16.561,-5.282 -25.252,-5.282 -24.98,0 -47.7,14.858 -57.713,37.743 -0.237,0.541 -0.466,1.084 -0.687,1.632 0.545,0.326 1.089,-1.089 1.688,-0.545 v 0.001 z m 107.506,52.227 c -2.941,0.708 -6.754,0.273 -10.838,-0.925 -9.006,13.24 -24.018,21.185 -40.031,21.185 -26.559,0 -48.414,-21.855 -48.414,-48.413 v -0.003 c 0,-0.872 0,-1.743 0.055,-2.56 -1.471,2.233 -1.035,5.991 -3.703,5.991 -2.124,0 -0.926,-2.886 -2.505,-2.886 -0.926,0 -1.089,1.362 -2.233,1.362 l -0.381,-0.055 c -0.273,0 -0.381,0.544 -0.872,0.544 -0.599,0 -1.035,-0.762 -1.525,-0.762 -0.544,0 -0.762,1.089 -1.471,1.089 -0.762,0 -1.47,-1.253 -1.797,-1.852 0.488,34.149 28.716,61.976 62.869,61.976 25.535,0 48.643,-15.554 58.253,-39.212 -4.752,-1.5 -9.362,-3.414 -13.778,-5.718 0.381,4.194 6.372,10.238 6.372,10.238 z m 25.107,-107.941 c -34.637,0 -54.57,23.799 -52.283,46.509 1.688,16.937 -7.788,30.661 -7.788,30.661 0,0 13.234,-5.991 13.234,-30.062 0,-22.874 22.71,-39.484 41.881,-39.484 18.517,0 39.974,0.109 50.648,0.109 56.476,0 70.146,-26.086 72.106,-31.206 0.327,-0.763 -0.163,-0.6 -0.326,-0.218 -11.818,15.902 -28.32,24.997 -73.141,24.997 -28.81,0 -37.905,-1.307 -44.386,-1.307 h 0.055 z m -47.381,67.912 c 2.559,1.362 15.14,-0.436 21.676,-4.52 -6.699,-5.718 -17.483,-7.733 -17.483,-7.733 -1.471,4.03 -3.05,8.114 -4.193,12.253 z m 51.465,-49.831 c -0.762,-2.995 -4.412,-3.595 -6.916,-5.011 -0.981,-0.599 -2.124,-0.326 -3.268,0.164 -2.451,1.089 -5.663,-0.708 -8.169,1.089 -0.762,0.545 -1.143,1.525 -2.07,1.743 -1.165,0.265 -2.349,0.447 -3.54,0.544 -0.436,0.055 -1.253,0.327 -1.198,0.817 0.273,2.124 -1.688,2.56 -3.268,3.104 -1.525,0.544 -0.98,2.56 -1.035,4.031 10.13,0.109 20.586,-1.307 29.463,-6.481 z m -33.003,8.877 c -0.49,0.055 -0.817,0.817 -1.198,1.361 -0.872,1.253 -3.649,0.981 -3.649,2.397 0.054,2.559 -2.833,3.05 -3.322,4.901 -0.327,1.471 -1.144,2.56 -1.253,4.139 10.348,0.055 21.022,-0.599 30.225,-5.882 2.397,-1.089 -12.635,-8.114 -20.804,-6.916 z m -13.343,23.8 c 0.163,1.307 -0.163,3.431 0.109,3.431 9.824,1.032 19.746,-0.624 28.701,-4.793 2.56,-1.089 -9.803,-7.515 -20.042,-7.515 -1.959,-0.012 -3.89,0.475 -5.609,1.416 -0.6,0.326 -1.036,1.688 -1.743,2.669 -0.49,0.762 0.49,1.906 0.109,2.396 -0.762,0.926 -1.688,1.471 -1.524,2.397 z m 55.115,-30.989 c -9.313,0 -10.239,2.614 -10.239,2.614 -0.326,0.381 -0.163,1.253 -0.817,1.471 -2.124,0.817 -4.52,-0.925 -6.317,1.471 -1.144,1.416 -3.813,-0.326 -5.555,0.654 -0.381,0.218 0,1.253 0.272,1.361 0.817,0.381 2.179,0.273 2.723,0.654 0.545,0.436 0.436,1.089 0.98,1.471 0.6,0.436 1.743,0.654 2.287,1.361 0.382,0.545 0.545,1.634 1.089,1.634 14.051,0.817 28.428,0.817 41.771,-4.357 1.471,-2.341 -13.07,-8.332 -26.196,-8.332 h 10e-4 z m 82.562,-20.259 c -0.381,0.218 -0.273,1.579 -1.089,1.961 -1.361,0.653 -2.995,0.653 -4.466,1.089 -0.544,0.164 -0.544,0.926 -1.035,1.253 -0.762,0.49 -1.852,0.055 -2.396,0.49 -3.595,2.614 -7.897,1.471 -11.873,2.124 0.055,2.995 -4.683,1.143 -6.644,2.451 -2.123,1.471 -1.797,1.035 -5.01,1.089 -0.926,0 -0.436,1.471 -1.199,1.471 -2.559,0.055 -5.773,-0.762 -7.678,-0.218 -0.327,0.109 -0.436,1.688 -1.089,1.852 -1.361,0.381 -2.832,0.545 -4.139,0.981 -1.035,0.326 0.273,2.233 -1.035,2.669 -2.342,0.708 -4.901,0.163 -7.189,1.524 -0.926,0.49 -2.287,0 -3.431,0.218 -1.035,0.218 -1.417,1.253 -0.6,1.743 0.763,0.381 2.016,0.272 2.723,0.654 1.743,0.871 3.104,2.07 4.956,2.178 30.062,1.852 68.893,-19.497 74.993,-45.366 0.217,-1.035 -0.273,-0.817 -0.49,-0.273 -6.481,15.522 -23.309,22.111 -23.309,22.111 z m 7.026,16.665 c -1.784,-0.416 -3.629,-0.508 -5.446,-0.272 l -1.035,0.817 c -2.341,0.381 -4.03,1.524 -6.48,1.579 -0.771,0.113 -1.523,0.333 -2.233,0.654 -0.926,0.436 -2.124,-0.599 -2.833,0.163 -0.436,0.49 0.327,1.743 -0.436,2.124 -2.123,0.98 -4.629,-0.817 -6.698,0.544 -0.599,0.381 0.654,1.688 -0.109,1.961 -2.995,0.925 -8.169,-3.703 -10.075,1.089 -0.326,0.763 -1.253,0.436 -1.852,0.273 -0.544,-0.163 -1.361,-0.436 -1.688,-0.109 -1.852,1.471 -2.886,2.07 -5.446,1.307 -0.654,-0.163 -0.708,1.797 -1.961,1.471 -1.416,-0.326 -2.832,-1.416 -4.138,-0.817 -0.6,0.273 -0.164,1.906 -1.035,1.96 -3.595,0.382 -7.298,-0.163 -10.62,1.307 -0.762,0.381 -0.872,1.852 -2.015,2.015 -2.505,0.436 -5.011,0.164 -7.353,0.926 -0.381,0.109 -0.326,1.198 0.273,1.307 1.471,0.217 3.214,0 4.357,0.653 1.416,0.872 2.342,3.268 3.703,3.322 28.428,0.545 48.961,-9.639 63.066,-21.403 0.599,-0.49 0.327,-0.654 0.055,-0.872 z m -22.983,20.859 c -1.143,0.381 -2.722,-0.708 -3.703,0 -1.47,1.089 -3.213,0.872 -4.683,0.708 -0.708,-0.055 -1.852,-0.327 -2.505,0.163 -0.381,0.326 0.218,0.872 0.599,1.198 -3.812,1.307 -8.006,0.109 -11.6,1.525 -0.273,0.163 -0.436,1.471 -1.089,1.579 -3.322,0.654 -6.372,-0.599 -9.639,0 -0.817,0.109 -0.49,1.906 -1.307,1.906 -2.924,0.091 -5.852,0.018 -8.768,-0.218 -3.486,-0.163 -6.699,1.143 -9.967,2.124 -0.98,0.326 -1.307,1.852 -2.342,2.015 -2.832,0.436 -5.718,-0.055 -8.332,1.253 -0.164,0.054 -0.164,0.925 0,1.035 3.158,1.797 6.808,3.05 8.986,5.936 22.166,-0.218 45.965,-3.104 64.373,-18.245 0.381,-0.272 -1.797,-0.708 -2.996,-1.035 -1.163,-0.125 -2.312,-0.363 -3.431,-0.708 -1.253,-0.381 -2.396,0.326 -3.595,0.762 z m -20.531,20.478 c -1.852,0.872 -3.976,-0.109 -5.991,0.381 -0.49,0.109 -0.109,0.872 -0.654,0.98 -1.96,0.273 -4.03,-0.273 -5.881,0.49 -1.416,0.544 -3.214,-0.109 -4.793,-0.055 -0.599,0 -0.599,0.817 -0.708,1.471 -0.174,0.506 -0.664,0.839 -1.198,0.817 -1.916,-0.495 -3.862,-0.858 -5.827,-1.089 -5.065,-0.708 -10.076,-2.341 -14.814,-0.925 -1.524,0.49 -3.594,0.871 -4.738,2.07 -0.49,0.49 -0.925,1.416 -1.579,1.634 -2.886,1.035 -6.045,1.253 -8.932,2.287 -0.871,0.272 -2.505,1.524 -1.905,1.688 6.079,1.615 12.335,2.475 18.625,2.559 18.734,0 33.003,-4.575 43.46,-10.293 -0.653,-0.762 -3.703,-2.669 -5.064,-2.015 z m -24.671,18.081 -3.649,-0.163 c -0.218,0.109 -0.436,0.544 -0.653,0.544 -2.179,0 -3.595,-2.287 -5.828,-2.123 -0.545,0.054 -0.545,0.98 -0.98,1.089 -1.362,0.327 -2.56,-1.307 -3.813,-0.708 -0.713,0.348 -1.533,0.407 -2.287,0.163 -1.089,-0.326 -1.906,-1.307 -2.941,-1.471 -0.925,-0.163 -1.852,0.762 -2.886,0.49 -2.614,-0.817 -4.629,-3.268 -7.407,-2.669 -1.416,0.272 -2.559,-0.654 -3.54,-0.055 l -2.396,1.96 c -0.708,0.436 -2.396,0.382 -3.159,0.817 -0.544,0.382 -0.708,1.253 -1.361,1.525 -1.198,0.49 -2.614,0.163 -3.812,0.762 -0.109,0.109 -0.218,0.763 0.272,0.872 10.674,3.595 27.939,7.57 48.58,2.233 0.599,-0.218 0.762,-0.544 0.218,-1.143 -1.144,-1.307 -2.669,-2.615 -4.357,-2.124 z m -26.359,12.036 c -0.49,-0.055 -1.307,0.654 -1.798,0.544 -1.416,-0.218 -2.505,-1.525 -4.248,-2.396 -0.708,-0.381 -1.035,1.307 -1.579,1.253 -2.833,-0.164 -6.917,-3.159 -9.476,-4.684 -0.436,-0.272 -3.104,0.273 -3.595,0.381 -1.579,0.327 -3.649,-2.504 -4.956,-3.103 -0.926,-0.49 -2.287,-0.926 -3.213,-0.273 -1.253,0.925 -2.723,0.436 -4.085,0.436 -0.544,-0.055 -1.035,1.089 -1.634,1.307 -1.905,0.599 -3.975,-0.708 -5.773,0.218 -0.144,0.15 -0.239,0.34 -0.272,0.545 0.109,1.143 1.361,1.307 2.233,1.852 13.07,8.278 33.275,10.947 44.494,8.441 0.273,-0.055 -0.109,-1.035 -0.872,-1.634 -0.77,-0.439 -1.571,-0.822 -2.396,-1.144 -1.198,-0.817 -1.797,-1.579 -2.832,-1.742 z M 282.07,248.1 c -1.095,-0.416 -2.167,-0.889 -3.213,-1.416 -0.654,-0.273 -1.253,0.762 -1.961,0.326 -1.321,-0.914 -2.593,-1.895 -3.812,-2.941 -0.872,-0.762 -2.669,-2.559 -3.432,-2.178 -0.326,0.163 -0.762,1.797 -1.47,1.253 -1.602,-1.312 -3.13,-2.711 -4.575,-4.194 -0.763,-0.654 -1.471,1.525 -2.451,1.035 -2.179,-1.035 -3.104,-3.431 -4.793,-5.119 -1.961,-1.96 -3.867,-4.302 -6.59,-5.011 -0.49,-0.109 -0.218,0.545 -0.654,0.872 -2.07,1.634 -4.357,-1.143 -6.372,-2.07 -1.852,-0.872 -3.485,-2.233 -5.61,-2.396 -0.436,0 -0.381,0.654 -0.218,0.872 11.873,14.05 28.375,24.616 46.51,24.18 0.436,0 1.307,0.055 0.599,-0.817 -0.599,-0.708 -1.253,-2.233 -1.961,-2.396 z m -25.052,2.832 c -0.381,-0.762 -1.416,-0.326 -2.179,-0.817 -0.544,-0.273 -0.762,-1.361 -1.307,-1.797 -0.382,-0.327 -1.307,0.381 -1.852,0.109 -0.708,-0.381 -1.199,-1.307 -1.743,-1.906 -0.654,-0.653 -1.198,-1.416 -1.797,-2.07 -0.508,-0.656 -1.137,-1.211 -1.852,-1.634 -0.381,-0.218 -1.144,0.273 -1.58,0.164 -0.871,-0.273 -1.361,-1.688 -2.015,-2.287 -0.381,-0.327 -0.98,-0.382 -1.307,-0.708 -0.381,-0.326 -0.435,-0.925 -0.817,-1.361 -0.49,-0.545 -1.198,-0.708 -1.742,-1.144 -0.708,-0.599 -1.198,-2.07 -1.797,-2.886 -0.545,-0.817 -1.307,-0.925 -1.852,-1.634 -0.654,-0.872 -1.035,-2.396 -1.852,-3.322 -0.817,-0.872 -2.833,0.545 -3.432,1.798 -1.115,2.017 -0.899,4.52 0.545,6.317 7.625,8.496 17.536,15.575 28.864,17.427 -0.872,-1.198 -1.743,-3.321 -2.287,-4.248 z m 77.117,-88.336 c 0.381,-0.272 0.054,-1.524 -0.273,-1.579 -1.525,-0.218 -3.268,-0.872 -4.956,0.654 -0.544,0.49 -1.634,-0.599 -2.396,-0.109 -0.654,0.382 -1.253,1.417 -1.852,1.688 -1.634,0.708 -3.214,-0.98 -5.011,-0.762 -0.49,0.055 -0.381,1.198 -0.872,1.307 -1.579,0.381 -2.886,-1.307 -3.758,-0.708 -1.361,0.817 -2.451,1.906 -4.03,1.198 -1.579,-0.708 -3.595,-2.123 -4.683,-1.253 -1.798,1.634 -4.031,-0.708 -5.664,-0.109 -1.361,0.544 -5.011,1.416 -2.505,2.886 7.788,4.683 24.018,3.758 35.999,-3.214 z m -16.502,29.464 c 1.143,-0.763 2.559,-0.817 3.213,-1.852 1.525,-1.961 -12.853,-5.12 -18.734,-5.12 -5.773,0 -16.502,1.417 -18.299,2.07 -0.763,0.327 -0.817,1.852 -1.688,2.016 l -5.174,0.544 c -0.544,0.055 -0.436,0.925 -0.218,1.089 0.956,0.707 1.631,1.73 1.906,2.886 0.055,0.109 1.253,0 1.471,0.218 1.143,0.98 1.96,2.341 3.322,2.669 6.808,1.634 13.397,2.123 20.368,0.49 0.762,-0.163 1.307,-0.762 1.96,-0.871 2.451,-0.327 5.011,-0.436 6.862,-2.234 1.361,-1.307 3.485,-0.925 5.011,-1.905 z m -15.739,17.7 c 2.778,-1.416 6.045,-1.525 8.06,-4.248 -12.308,-6.48 -26.632,-5.773 -28.374,-4.792 -0.49,0.272 -0.981,1.143 -1.525,1.524 -0.817,0.545 -1.634,0.273 -2.178,0.817 -0.327,0.327 0.054,1.253 -0.218,1.58 -0.273,0.435 -0.981,0.49 -1.417,0.708 -0.435,0.273 -1.307,-0.109 -2.015,0.163 -0.654,0.273 -0.708,0.926 -1.143,1.144 -1.688,0.817 -4.031,-0.109 -5.174,-0.109 -0.599,0 -0.436,0.926 -0.273,1.089 0.762,0.762 2.886,0.98 2.778,2.07 0,0.218 -0.49,0.926 -0.817,0.98 1.143,2.397 11.6,5.61 25.433,1.035 2.287,-0.708 4.684,-0.817 6.862,-1.96 z m -60.179,10.729 c -1.198,0.654 -2.614,2.505 -1.525,3.268 2.016,1.307 5.337,4.357 20.532,4.357 14.868,0 20.531,-4.575 23.309,-7.407 0,-1.852 -13.016,-5.61 -14.813,-4.575 -0.392,0.198 -0.644,0.596 -0.654,1.035 -0.599,0.218 -2.397,0.273 -2.833,0.544 -1.035,0.763 -0.817,1.961 -1.089,2.015 -2.342,0.6 -5.174,-0.871 -7.407,0.164 -0.545,0.272 -0.545,1.905 -1.307,1.96 -1.579,0.109 -3.322,-0.872 -4.847,-0.381 -0.543,0.133 -1.071,0.315 -1.58,0.544 -0.761,-0.358 -1.567,-0.615 -2.396,-0.762 -0.763,-0.218 -1.58,0.326 -2.56,0.163 -0.925,-0.163 -1.96,-1.416 -2.832,-0.925 z"
         fill="#ce1126"
         id="path849" />
    </g>
  </g>
</svg>
