<?xml version="1.0" encoding="UTF-8" standalone="no"?>
<svg
   width="100"
   height="100"
   viewBox="0 0 26.458333 26.458334"
   version="1.1"
   id="svg8"
   inkscape:version="1.2.1 (9c6d41e410, 2022-07-14)"
   sodipodi:docname="SenatorsCircle.svg"
   xmlns:inkscape="http://www.inkscape.org/namespaces/inkscape"
   xmlns:sodipodi="http://sodipodi.sourceforge.net/DTD/sodipodi-0.dtd"
   xmlns="http://www.w3.org/2000/svg"
   xmlns:svg="http://www.w3.org/2000/svg"
   xmlns:rdf="http://www.w3.org/1999/02/22-rdf-syntax-ns#"
   xmlns:cc="http://creativecommons.org/ns#"
   xmlns:dc="http://purl.org/dc/elements/1.1/">
  <defs
     id="defs2" />
  <sodipodi:namedview
     id="base"
     pagecolor="#ffffff"
     bordercolor="#666666"
     borderopacity="1.0"
     inkscape:pageopacity="0.0"
     inkscape:pageshadow="2"
     inkscape:zoom="2.8"
     inkscape:cx="10.178571"
     inkscape:cy="69.642857"
     inkscape:document-units="mm"
     inkscape:current-layer="layer1"
     inkscape:document-rotation="0"
     showgrid="false"
     units="px"
     inkscape:window-width="1920"
     inkscape:window-height="1017"
     inkscape:window-x="1912"
     inkscape:window-y="-8"
     inkscape:window-maximized="1"
     inkscape:showpageshadow="2"
     inkscape:pagecheckerboard="0"
     inkscape:deskcolor="#d1d1d1" />
  <metadata
     id="metadata5">
    <rdf:RDF>
      <cc:Work
         rdf:about="">
        <dc:format>image/svg+xml</dc:format>
        <dc:type
           rdf:resource="http://purl.org/dc/dcmitype/StillImage" />
      </cc:Work>
    </rdf:RDF>
  </metadata>
  <g
     inkscape:label="Layer 1"
     inkscape:groupmode="layer"
     id="layer1">
    <ellipse
       inkscape:export-ydpi="191.99995"
       inkscape:export-xdpi="191.99995"
       style="fill:#bf910c;fill-opacity:1;stroke:#ce1126;stroke-width:0.529165;stroke-miterlimit:4;stroke-dasharray:none;stroke-opacity:1"
       id="path833"
       cx="13.229165"
       cy="13.229164"
       rx="12.964584"
       ry="12.964585" />
    <g
       inkscape:export-ydpi="96"
       inkscape:export-xdpi="96"
       transform="matrix(0.07336898,0,0,0.07336898,-7.3142377,-1.4446927)"
       id="g877"
       style="clip-rule:evenodd;fill-rule:evenodd"
       inkscape:export-filename="SenatorsCircle.png">
      <path
         d="m 331.949,161.204 -27.365,-37.369 -9.96,4.59 c -2.504,-0.802 -5.054,-1.455 -7.636,-1.957 l 2.222,-2.28 v -19.273 h -2.501 c 3.502,-8.813 -5.267,-25.143 23.863,-39.914 H 241.601 C 193.374,80.14 207.145,168.149 207.145,168.149 l 5.179,-1.957 c -1.167,3.937 -1.412,8.09 -0.721,12.138 0.691,4.047 -5.002,12.049 0.78,23.863 l -3.502,4.914 0.912,26.055 c -9.092,7.915 -25.82,1.913 -29.145,16.139 -2.678,3.59 -11.505,6.37 -11.505,6.37 -15.963,41.783 76.96,46.682 94.291,69.869 12.413,6.273 26.139,9.514 40.047,9.46 48.943,-0.009 89.214,-40.287 89.214,-89.23 0,-38.212 -24.546,-72.374 -60.76,-84.566 h 0.015 z"
         fill="#ffffff"
         id="path851" />
      <path
         d="m 329.624,164.249 -26.232,-35.81 -8.504,3.958 c -5.032,-1.71 -10.229,-2.884 -15.507,-3.502 l 6.179,-6.179 v -14.094 h -4.37 c 7.592,-12.314 -4.37,-25.055 17.508,-39.914 h -56.51 c -42.636,14.359 -31.999,94.424 -31.999,94.424 l 8.136,-3.09 c 0,0 -5.09,10.681 -2.913,18.729 0,0 -5.635,12.182 1.177,23.819 l -4.002,5.635 0.868,26.1 c -5.679,9.916 -27.232,4.502 -29.233,15.639 -0.824,4.723 -12.182,8.636 -12.182,8.636 -11.961,35.545 78.917,42.239 93.879,64.146 11.659,5.666 24.455,8.61 37.418,8.61 46.966,0 85.611,-38.645 85.611,-85.611 0,-37.06 -24.066,-70.107 -59.339,-81.48 l 0.015,-0.015 z"
         id="path853" />
      <path
         d="m 334.862,247.124 c 0,0 8.136,7.003 8.136,9.416 0,2.413 -17.007,12.461 -17.007,12.461 5.679,-7.871 10.313,-11.682 10.313,-15.095 0,-3.369 -6.047,-4.325 -7.68,-10.725 -6.135,9.916 -6.459,16.272 -6.459,16.272 l 3.045,20.774 -8.268,-1 c -17.272,17.228 -15.316,36.192 -15.316,36.192 10.814,-31.411 47.55,-31.867 47.55,-61.556 -2.722,-2.177 -14.315,-6.724 -14.315,-6.724 v -0.015 z m -98.057,41.459 c 12.27,2.722 28.689,13.138 28.689,13.138 -1.017,-3.101 -2.603,-5.985 -4.679,-8.504 -12.32,-3.88 -23.603,-10.5 -33,-19.361 L 196.36,256.584 c 0,0 18.773,0.088 17.096,-13.771 -8.136,5.958 -23.731,3.634 -23.731,10.049 0,7.091 12.358,14.271 36.737,29.734 l -37.693,-17.272 2.28,-2.457 -2.589,-5.046 c -0.28,1.913 -9.872,1.957 -9.872,8.415 0,22.731 80.462,31.19 95.189,52.685 1.78,-11.181 -20.229,-21.818 -36.957,-30.322 l -0.015,-0.015 z m 9.313,-183.757 -4.222,-27.144 c -29.954,12.77 -25.952,74.194 -25.952,74.194 l 30.454,-44.24 h 28.145 c 4.87,-9.637 -1.089,-24.952 9.681,-31.543 h -37.09 l -1.015,28.733 z"
         fill="#ce1126"
         id="path855" />
      <path
         d="m 301.347,248.183 5.135,-2.501 -5.635,-21.907 2.28,-6.768 15.507,-5.958 4.458,1.957 -0.588,-7.047 c 0,0 -4.414,-4.267 -9.592,-4.267 -5.002,0 -7.003,3.59 -13.859,11.917 0,0 -3.958,-10.372 -20.053,-10.372 -13.594,0 -29.91,6.326 -29.91,6.326 -2.913,3.958 -2.501,12.27 17.14,10.814 l -2.825,12.917 10.917,1.545 c 0,0 -13.859,30.557 -6.267,37.914 7.224,6.959 14.639,14.418 17.228,14.418 10.093,0 16.507,-2.634 17.728,-3.913 0.731,-0.98 1.073,-2.197 0.956,-3.413 0,-5.635 -5.591,-6.267 -10.049,-6.267 -9.548,0 -12.962,3.325 -12.962,3.325 l 1.824,-6.135 c 1.177,-4.546 20.465,-2.133 20.465,-2.133 l -0.456,-6.003 -3.825,0.588 -8.092,-1.28 -19.097,0.544 -0.912,-0.721 22.731,-4.002 4.958,1 4.267,-1.045 -2.325,-2.089 -2.501,0.956 -0.456,-5.002 -13.594,-2.325 10.725,-3.678 6.679,2.604 z m -22.451,50.64 12.138,8.268 3.178,-11.005 -10.593,-1.545 -4.723,4.281 z m 41.959,-79.697 -4.325,0.824 c -1.78,7.135 -6.827,4.178 -7.636,2.457 l -2.045,7.459 3.413,11.137 2.869,6.091 -4.914,4.134 3.825,4.267 1.324,3.09 5.502,-18.184 4.458,-7.268 c 0.78,-1.221 -3.634,-9.96 -3.634,-9.96 l 1.162,-4.046 z"
         fill="#ffffff"
         id="path857" />
      <path
         d="m 272.305,129.381 4.134,-4.37 h -21.362 l -17.861,14.418 15.816,-18.552 h 25.908 v -7.547 h -28.189 l -25.232,34.191 1.177,5.87 c 10.115,-15.22 27.321,-24.281 45.593,-24.01 h 0.015 z m 52.729,71.016 -24.599,-14.094 -49.227,16.772 c 0,0 18.229,-4.723 31.69,-4.723 14.595,0 17.14,7.871 17.14,7.871 0,0 4.502,-8.136 11.314,-8.136 5.03,0.053 9.912,1.724 13.918,4.767 l -0.235,-2.457 z m 12.829,-24.731 v 27.733 c 12.763,10.363 20.185,25.954 20.185,42.395 0,22.988 -14.514,43.623 -36.148,51.396 -8.916,14.55 -6.459,23.098 -5.326,25.599 37.38,-6.36 64.995,-39.07 64.995,-76.987 0,-29.754 -17.004,-57.026 -43.721,-70.122 l 0.015,-0.015 z m -21.186,89.465 -3.134,8.371 4.87,0.824 z m -60.924,-7.047 c 0.216,-11.367 1.573,-22.683 4.046,-33.779 2.473,-11.096 -24.643,1.721 -20.274,-19.097 0,0 -5.37,4.414 -10.225,2.501 5.527,-1.642 9.325,-6.784 9.269,-12.55 l 2.413,7.312 63.969,-25.555 25.187,21.907 -0.544,-9.872 c -2.825,1.045 -8.916,-3.134 -8.916,-3.134 l 0.956,-0.78 c 0,0 4.09,2.089 7.724,0.588 l -0.544,-9.681 -27.733,-38.546 -6.267,2.369 c 0,0 -13.55,-5.723 -26.732,-5.723 -20.097,0 -45.093,19.862 -45.093,41.827 l 13.462,1 36.737,-27.277 -36.913,36.148 c 0,0 -3.266,-6.415 -7.959,-6.415 -3.266,0 -8.224,3.869 -8.224,13.359 0,7.459 3.634,11.093 3.634,11.093 l -4.325,5.826 c 3.178,46.682 -2.089,51.464 -11.682,48.83 l 18.729,9.048 c 0,-32.691 -1.221,-42.636 2.001,-42.636 5.223,0 4.679,32.499 6.091,47.786 0,0 13.506,15.683 40.415,18.273 0,-0.044 -19.185,-12.182 -19.185,-32.823 h -0.015 z"
         fill="#bf910c"
         id="path859" />
      <path
         d="m 273.394,183.625 -1.913,-1.177 c -12.917,2.457 -10.725,-1.957 -13.859,-1.957 1.221,-1.221 0.088,-3.634 3.413,-6.915 l -0.324,-0.412 c -8.003,4.767 -3.369,7.68 -8.872,10.549 l 0.221,0.5 c 6.591,-2.222 4.178,5.767 21.318,-0.588 h 0.015 z m -40.503,2.222 c 3.825,9.504 -3.001,16.139 -5.767,16.139 -2.766,0 -4.458,-3.457 -4.458,-3.457 0,0 2.089,6.768 6.267,6.768 4.178,0 12.138,-10.004 3.958,-19.464 v 0.015 z m 23.731,3.634 c -0.731,-0.675 -1.579,-1.214 -2.501,-1.589 -7.312,0.721 -6.223,-2.133 -8.769,-2.045 2.28,-1.721 -0.132,-3.134 1.633,-4.914 l -0.324,-0.368 c -6.547,3.678 -2.589,6.047 -6.415,7.636 l 0.177,0.456 c 3.678,-1.089 3.266,4.914 16.184,0.824 z m 25.32,-14.139 -1.045,-0.412 c -9.313,4.37 -9.313,0.132 -11.181,0.677 0.956,-1.589 -1.824,-3.546 4.502,-9.592 l -0.088,-0.588 c -10.961,7.268 -5.723,10.093 -9.18,13.55 l 0.368,0.456 c 3.722,-2.413 4.002,4.37 16.64,-4.09 h -0.015 z m 33.367,2.413 -0.78,0.412 c 7.768,8.371 7.812,2.545 10.549,4.914 l 0.368,-0.588 c -2.222,-3.413 0.912,-6.503 -6.223,-13.859 v 0.721 c 3.958,5.223 2.133,8.003 3.325,10.181 -1.868,-0.912 -2.222,2.589 -7.224,-1.78 h -0.015 z m -8.312,-9.048 c -13.315,3.678 -14.418,-15.86 -10.681,-19.906 -14.683,9.416 3.369,31.69 10.681,19.906 z m -56.745,-26.364 c -24.82,12.314 -23.907,29.557 -23.907,29.557 l 8.092,0.368 15.316,-10.004 c -10.917,3.001 -28.409,1.633 0.5,-19.906 v -0.015 z m 39.65,24.731 -0.677,-0.221 c -7.268,3.869 -7.724,0.912 -8.813,1.221 0.78,-1.589 -2.501,-2.001 2.177,-8.003 l -0.177,-1.089 c -10.225,9.048 -2.913,9.313 -7.312,13.006 l 0.5,0.177 c 3.913,-3.178 3.178,3.413 14.315,-5.09 H 289.9 Z m 79.872,85.243 c -0.912,4.723 -4.767,0.324 -6.915,11.358 1.677,0.324 3.134,-3.413 5.326,-3.001 2.133,0.456 2.133,4.458 3.766,4.767 2.133,-11.049 -3.09,-8.415 -2.177,-13.138 v 0.015 z m -51.964,-76.96 0.324,-0.412 c -2.222,-3.869 2.177,-4.679 -3.913,-13.418 L 314,162.66 c 2.722,5.723 0.368,6.959 1,8.268 -1,-0.28 -1.957,1.78 -5.37,-2.222 l -0.544,0.177 c 5.37,8.68 6.547,3.325 8.724,6.459 z m 56.054,70.413 c 0,2.22 -1.826,4.046 -4.046,4.046 -2.22,0 -4.046,-1.826 -4.046,-4.046 0,-2.22 1.826,-4.046 4.046,-4.046 2.22,0 4.046,1.826 4.046,4.046 z m -10.049,28.277 c -2.457,4.134 -4.634,-1.324 -10.313,8.415 1.457,0.868 4.046,-2.133 6.003,-1.045 1.913,1.133 0.5,4.914 1.957,5.767 5.723,-9.725 -0.088,-9.004 2.369,-13.138 h -0.015 z m -25.908,23.319 c 1.089,1.28 4.59,-0.633 6.003,1.045 1.412,1.721 -1.177,4.767 -0.088,6.091 8.68,-7.18 2.957,-8.46 6.679,-11.549 -3.722,3.09 -3.869,-2.766 -12.594,4.414 z m 15.227,-88.745 c 5.826,9.681 7.959,4.222 10.416,8.371 -2.501,-4.134 3.325,-3.457 -2.457,-13.138 -1.457,0.868 -0.088,4.634 -1.957,5.767 -1.868,1.133 -4.546,-1.868 -6.003,-1 z m 9.416,18.184 c 2.325,11.049 6.091,6.591 7.135,11.314 -1.045,-4.723 4.267,-2.177 1.913,-13.226 -1.677,0.368 -1.545,4.414 -3.722,4.826 -2.133,0.5 -3.678,-3.222 -5.326,-2.913 z m -16.228,63.778 c 1.324,1.089 4.458,-1.412 6.091,0 1.677,1.457 -0.324,4.914 1,6.047 7.312,-8.592 1.457,-8.872 4.59,-12.55 -3.134,3.678 -4.325,-2.089 -11.682,6.503 z m -18.919,12.374 c 0.824,1.501 4.634,0.28 5.723,2.222 1.045,1.913 -2.089,4.458 -1.28,5.958 9.916,-5.37 4.546,-7.724 8.769,-10.049 -4.222,2.28 -3.266,-3.502 -13.226,1.868 h 0.015 z m 21.686,-105.781 c 2.678,-3.546 -10.46,-8.048 -10.46,-8.048 0,0 7.724,11.549 10.46,8.048 z m 8.916,10.269 c -3.134,-3.634 2.722,-3.913 -4.59,-12.505 -1.324,1.089 0.677,4.59 -0.956,6.047 -1.721,1.412 -4.826,-1.089 -6.135,0 7.371,8.548 8.548,2.825 11.682,6.459 z m 9.813,55.686 c -1.721,4.546 -4.767,-0.456 -8.724,10.093 1.545,0.588 3.634,-2.869 5.723,-2.089 2.045,0.824 1.368,4.767 2.957,5.37 3.958,-10.593 -1.677,-8.813 0.044,-13.359 z m -9.225,-45.785 c 4.134,10.505 7.135,5.458 8.916,9.96 -1.78,-4.502 3.869,-2.869 -0.28,-13.359 -1.589,0.633 -0.824,4.59 -2.869,5.414 -2.045,0.824 -4.178,-2.634 -5.767,-2.001 v -0.015 z m -108.151,-3.546 21.642,3.001 c 0.677,3.634 6.326,7.047 10.225,1.589 l 5.914,1.677 -4.723,3.722 9.092,1.221 3.59,-7.003 -20.597,-8.371 z m 66.603,97.234 c 0,0 13.918,0.28 12.594,-3.958 -1.368,-4.222 -12.594,3.958 -12.594,3.958 z"
         id="path861" />
    </g>
  </g>
</svg>
