<?xml version="1.0" encoding="UTF-8" standalone="no"?>
<svg
   xmlns:dc="http://purl.org/dc/elements/1.1/"
   xmlns:cc="http://creativecommons.org/ns#"
   xmlns:rdf="http://www.w3.org/1999/02/22-rdf-syntax-ns#"
   xmlns:svg="http://www.w3.org/2000/svg"
   xmlns="http://www.w3.org/2000/svg"
   xmlns:sodipodi="http://sodipodi.sourceforge.net/DTD/sodipodi-0.dtd"
   xmlns:inkscape="http://www.inkscape.org/namespaces/inkscape"
   width="200"
   height="200"
   viewBox="0 0 52.916665 52.916668"
   version="1.1"
   id="svg8"
   inkscape:version="1.0 (4035a4fb49, 2020-05-01)"
   sodipodi:docname="SharksCircle.svg">
  <defs
     id="defs2" />
  <sodipodi:namedview
     id="base"
     pagecolor="#ffffff"
     bordercolor="#666666"
     borderopacity="1.0"
     inkscape:pageopacity="0.0"
     inkscape:pageshadow="2"
     inkscape:zoom="2.8"
     inkscape:cx="52.216013"
     inkscape:cy="69.643295"
     inkscape:document-units="mm"
     inkscape:current-layer="layer1"
     inkscape:document-rotation="0"
     showgrid="false"
     units="px"
     inkscape:window-width="1600"
     inkscape:window-height="1137"
     inkscape:window-x="1912"
     inkscape:window-y="-8"
     inkscape:window-maximized="1" />
  <metadata
     id="metadata5">
    <rdf:RDF>
      <cc:Work
         rdf:about="">
        <dc:format>image/svg+xml</dc:format>
        <dc:type
           rdf:resource="http://purl.org/dc/dcmitype/StillImage" />
        <dc:title />
      </cc:Work>
    </rdf:RDF>
  </metadata>
  <g
     inkscape:label="Layer 1"
     inkscape:groupmode="layer"
     id="layer1">
    <ellipse
       inkscape:export-ydpi="191.99995"
       inkscape:export-xdpi="191.99995"
       style="fill:#006d75;stroke:#ea7200;stroke-width:1.05833333;stroke-miterlimit:4;stroke-dasharray:none;stroke-opacity:1;fill-opacity:1"
       id="path833"
       cx="26.458336"
       cy="26.458336"
       rx="25.929173"
       ry="25.929174" />
    <g
       inkscape:export-ydpi="191.99995"
       inkscape:export-xdpi="191.99995"
       transform="matrix(0.14698965,0,0,0.14698965,-14.698766,-2.9395206)"
       id="g877"
       style="clip-rule:evenodd;fill-rule:evenodd">
      <path
         d="m 398.39,175.168 -3.649,6.534 0.599,3.757 c -9.748,19.006 -20.312,36.65 -24.125,42.859 -1.47,-3.322 -3.376,-5.283 -7.134,-7.298 0,0 17.208,-31.259 21.892,-56.037 -13.07,6.481 -26.684,12.853 -26.684,12.853 l 23.307,-37.794 c 0,0 -44.873,9.858 -80.379,13.397 C 263.989,97.021 229.19,87.11 229.19,87.11 c 0,0 24.125,39.427 28.59,67.037 -29.802,-2.827 -59.395,-7.538 -88.602,-14.105 l 42.477,68.78 c -24.833,1.47 -66.656,2.777 -66.656,2.777 10.62,10.674 44.928,24.179 90.29,35.397 l 8.114,13.124 C 216.719,280.215 200.6,307.933 200.6,307.933 l 2.723,4.956 c 0,0 13.234,-0.816 29.462,-1.416 0,0 4.411,-14.268 22.6,-31.912 l 20.53,33.164 25.703,-41.605 2.778,-0.327 1.579,0.926 c -0.496,0.717 -0.951,1.463 -1.361,2.232 2.125,1.471 2.233,1.688 2.342,4.302 2.074,0.582 4.276,0.524 6.317,-0.163 l 0.98,-1.743 1.199,0.545 c 0.163,1.199 0.49,2.614 0.49,2.614 1.971,0.879 4.263,0.672 6.045,-0.545 8.713,1.797 14.65,0.817 16.609,0.327 8.605,2.342 14.214,0.762 16.501,-0.272 3.976,1.634 8.115,2.723 19.496,2.723 5.283,0 10.892,-0.327 10.892,-4.247 0,-5.555 -5.283,-25.759 -10.62,-36.922 2.274,1.558 4.797,2.719 7.46,3.431 l 4.902,-3.539 c -2.233,-2.614 -1.797,-3.322 -1.525,-5.391 -1.208,-0.935 -2.631,-1.553 -4.138,-1.798 4.738,-5.5 14.704,-18.243 26.63,-41.115 2.506,-0.381 5.718,-1.851 6.099,-5.827 0.446,-3.395 0.682,-6.814 0.708,-10.239 -7.569,-3.431 -16.609,-0.925 -16.609,-0.925 z"
         fill="#ffffff"
         id="path851" />
      <path
         d="m 368.874,149.736 -21.565,34.417 c 2.342,-1.089 4.847,-2.232 7.298,-3.321 l 22.981,-37.195 c 0,0 -39.046,8.549 -74.661,12.144 0.817,1.307 1.634,2.668 2.506,3.976 24.451,-2.56 49.937,-7.298 63.442,-10.02 z m 3.431,90.943 c -2.994,-12.361 -3.431,-14.594 -10.074,-17.916 l -1.036,-1.416 c 12.09,-21.675 20.857,-47.596 20.857,-50.646 0,-0.762 -0.327,-0.98 -0.816,-0.762 -19.278,9.748 -40.407,18.461 -45.091,21.729 l -1.253,1.742 c -7.218,-6.472 -14.8,-12.526 -22.708,-18.134 -21.511,-42.259 -54.512,-71.993 -75.804,-82.611 0,4.411 21.02,36.867 24.288,64.096 -38.121,-2.614 -86.478,-13.124 -86.478,-13.124 l 41.66,67.309 c -34.2,2.124 -64.205,2.831 -64.205,2.831 0,2.342 38.174,20.586 94.538,33.383 12.307,2.777 21.511,2.342 27.5,2.342 -1.143,-1.253 -2.232,-2.451 -3.376,-3.649 8.169,5.01 15.63,9.965 22.328,14.431 -1.688,0 -3.54,0.054 -5.555,0.054 -13.505,0 -23.743,-0.708 -30.224,-1.199 l -5.935,-9.367 c -1.471,-0.271 -2.941,-0.544 -4.411,-0.871 l -1.743,-0.327 c -2.559,-0.599 -5.009,-1.199 -6.697,-1.58 l 8.549,13.778 c -8.005,5.718 -28.426,23.035 -43.239,47.214 l 1.306,2.396 c 0,0 14.323,-0.871 26.358,-1.252 0,0 5.446,-15.466 24.833,-33.328 l 19.985,32.348 24.288,-39.264 c 1.58,-0.163 3.158,-0.327 4.792,-0.544 1.688,1.035 3.268,2.069 4.847,2.94 -0.868,0.487 -1.584,1.203 -2.07,2.069 0.885,0.68 1.424,1.718 1.471,2.832 0.819,0.121 1.654,0.065 2.45,-0.164 0.59,-0.907 1.118,-1.853 1.58,-2.831 1.47,0.767 2.979,1.458 4.52,2.069 -0.004,0.786 0.069,1.57 0.218,2.342 0.15,0.771 1.524,0.491 3.431,-1.143 10.728,2.45 17.154,0.327 17.154,0.327 10.946,3.267 16.501,-0.381 16.501,-0.381 4.248,1.905 7.842,2.94 19.55,2.94 6.372,0 8.441,-0.762 8.441,-1.851 0.054,-5.119 -5.337,-26.031 -10.728,-36.814 z m 27.665,-63.442 -2.723,4.901 0.598,3.703 c -12.307,24.179 -25.976,46.071 -25.976,46.071 l 1.688,4.139 1.961,-1.417 1.416,0.11 c 0,0 13.07,-12.526 29.789,-44.874 0,0 4.846,0.164 5.227,-3.757 0.381,-3.976 0.654,-6.698 0.654,-8.332 -6.045,-2.178 -12.634,-0.544 -12.634,-0.544 z m -24.506,59.631 0.381,1.47 c 1.886,1.27 3.914,2.312 6.045,3.105 l 2.015,-1.471 c -0.75,-1.078 -1.043,-2.409 -0.816,-3.703 -2.668,-1.688 -7.624,0.599 -7.624,0.599 z"
         id="path853" />
      <path
         d="m 326.506,272.973 c 1.772,-1.042 3.482,-2.188 5.12,-3.431 -9.803,0.435 -13.451,-0.762 -13.451,-0.762 1.742,-1.742 3.92,-3.268 5.282,-4.629 -1.035,0.164 -2.124,0.272 -3.158,0.381 0,0.436 -0.545,0.98 -2.015,1.906 -2.941,0.435 -5.827,0.871 -8.659,1.253 0.803,0.903 1.677,1.74 2.614,2.505 0.654,-0.218 1.361,-0.435 2.124,-0.654 -0.036,0.668 -0.164,1.328 -0.381,1.961 1.232,0.838 2.547,1.549 3.921,2.124 0.13,-1.025 0.484,-2.011 1.035,-2.886 0.49,0.163 0.762,1.579 1.035,2.015 0.708,1.035 1.688,1.197 1.851,2.069 4.139,0.98 9.313,1.197 16.175,0.327 l 1.905,-1.525 c -10.02,0.218 -13.397,-0.654 -13.397,-0.654 z M 310.224,258.27 c -4.357,1.416 -6.263,0.435 -6.263,0.435 0.632,-0.755 1.112,-1.624 1.417,-2.56 -3.867,1.09 -5.064,0 -5.064,0 0.536,-0.528 0.962,-1.158 1.252,-1.851 -2.638,-0.068 -5.273,0.207 -7.842,0.816 3.55,0.426 6.836,2.107 9.257,4.738 2.265,-0.118 4.52,-0.373 6.754,-0.762 l 0.49,-0.816 z m -95.028,36.105 -4.793,6.153 c 0,0 14.159,-2.178 22.709,-0.926 l 2.342,-4.03 c -4.629,-2.396 -20.258,-1.197 -20.258,-1.197 z m 86.533,-38.665 c 1.556,0.055 3.108,-0.184 4.574,-0.708 0.05,1.118 -0.297,2.218 -0.98,3.104 2.152,-0.112 4.286,-0.439 6.372,-0.98 2.086,-0.54 -0.381,0.872 -0.871,1.798 0.643,-0.144 1.301,-0.218 1.961,-0.218 1.361,0 1.524,0.272 2.723,0.272 2.286,0 2.559,0.49 2.886,3.158 0.432,0.544 0.906,1.054 1.416,1.525 1.688,-0.164 3.595,-0.327 5.555,-0.599 -1.54,2.009 -3.375,3.772 -5.446,5.227 -2.07,1.457 9.094,0.872 13.832,0.272 -1.353,1.602 -2.998,2.933 -4.847,3.921 -1.849,0.989 6.263,0.381 13.07,0.272 -0.842,0.9 -1.732,1.755 -2.668,2.559 -0.935,0.804 8.332,1.852 14.268,0.436 -21.456,-8.496 -33.219,-21.456 -51.19,-21.456 -0.162,0.496 -0.381,0.971 -0.654,1.416 z m -68.236,18.297 -6.753,6.698 c 0,0 12.416,-1.688 20.639,-0.599 l 3.213,-3.593 c -3.05,-2.614 -17.1,-2.506 -17.1,-2.506 z m -7.624,7.679 -5.119,5.828 c 0,0 14.213,-1.471 20.041,0.163 l 5.881,-6.807 c -5.936,-0.98 -20.803,0.816 -20.803,0.816 z m -5.935,6.807 -1.688,2.07 c 0,0 17.535,-2.724 21.674,-1.743 l 0.327,-0.435 c -4.357,-1.416 -20.312,0.109 -20.312,0.109 z m -2.506,3.105 -1.524,1.851 c 0,0 14.648,-1.089 19.985,1.361 l 3.485,-5.227 c -4.738,-0.763 -21.946,2.015 -21.946,2.015 z m 17.318,-18.734 -0.327,0.272 c 0,0 12.144,-0.164 16.773,2.723 l 0.708,-0.708 c -3.758,-2.125 -17.154,-2.287 -17.154,-2.287 z m 18.135,2.505 0.217,1.906 4.411,-4.302 -0.054,-2.232 z m -1.58,1.688 0.435,1.634 0.654,-0.654 -0.272,-1.905 -0.816,0.925 z m -3.812,4.194 0.217,1.742 3.322,-3.595 -0.381,-1.634 -3.158,3.486 z m -6.317,7.352 0.272,1.416 5.5,-6.263 -0.218,-1.688 -5.608,6.535 z m -0.98,1.252 0.218,1.417 0.327,-0.436 -0.272,-1.361 -0.272,0.381 z m -3.867,5.882 0.164,1.143 3.268,-4.738 -0.218,-1.307 -3.213,4.902 z m -2.613,4.411 0.163,1.253 1.961,-3.431 -0.218,-1.144 -1.905,3.322 z m 7.787,-33.11 -5.828,5.01 c 0,0 13.506,0.217 16.827,2.45 l 4.956,-4.902 c -4.357,-2.505 -15.956,-2.559 -15.956,-2.559 z"
         fill="#ffffff"
         id="path855" />
      <path
         d="m 400.786,179.306 -1.688,2.723 c 3.149,-0.521 6.353,-0.631 9.53,-0.327 l 1.961,-2.777 c -3.243,-0.739 -6.626,-0.606 -9.802,0.381 z m -0.871,5.664 c -8.115,14.648 -16.991,33.981 -26.631,45.961 l 2.778,-1.742 0.598,-0.654 -0.49,1.688 1.143,-0.599 -1.742,3.159 1.634,-1.361 c 0,0 8.278,-9.258 29.244,-47.106 -4.683,-0.708 -6.535,0.654 -6.535,0.654 z M 232.676,300.365 c -7.57,-1.417 -23.09,1.143 -23.09,1.143 l -4.138,6.045 24.288,-1.143 2.941,-6.045 z m 25.485,-31.368 2.015,-1.143 c 0,0 8.387,1.361 58.433,-3.812 -1.199,-0.872 -1.797,-0.708 -1.797,-2.668 0,-0.654 0.109,-0.762 -0.98,-0.762 -1.09,0 -1.525,-0.327 -2.832,-0.327 -1.634,0 -3.976,1.633 -28.536,1.633 -19.496,0 -33.164,-1.633 -34.09,-1.633 -0.871,0 -2.668,1.688 -7.896,5.881 0,0 10.292,-0.109 15.683,2.831 z m 55.329,-31.422 c 0.871,7.025 2.559,10.02 2.559,10.02 2.383,1.717 4.983,3.109 7.733,4.138 -5.119,-9.421 -10.292,-14.159 -10.292,-14.159 z m 5.119,39.154 c 0.788,-0.132 1.513,-0.514 2.069,-1.089 -0.627,-0.97 -1.173,-1.99 -1.634,-3.05 -0.462,1.328 -0.611,2.744 -0.435,4.138 z m -8.55,-1.524 c 1.688,-2.233 2.778,-3.649 3.051,-4.521 -1.471,0.599 -3.322,0.98 -4.357,2.506 0.562,0.58 1.006,1.264 1.306,2.015 z M 250.92,249.774 c -1.471,-0.271 -2.941,-0.544 -4.411,-0.871 l -1.688,-0.381 6.372,10.183 c 0.435,0.054 0.925,0.054 1.47,0.109 1.143,0.054 2.56,0.218 4.138,0.327 z m 94.266,-64.641 c 0.708,-0.272 1.416,-0.654 2.124,-0.98 l 21.565,-34.417 c -13.505,2.723 -38.992,7.46 -63.442,10.02 0.203,0.418 0.439,0.818 0.708,1.197 l 1.634,2.778 c 18.897,-2.125 38.283,-5.391 52.443,-8.06 l -20.149,31.966 c 1.524,-0.763 3.267,-1.634 5.119,-2.506 z m -52.878,84.518 c -1.471,0.164 -2.832,0.272 -4.194,0.382 -7.896,0.653 -15.793,1.035 -23.634,1.197 -2.233,0.054 -3.431,0.054 -3.431,0.054 -0.164,0.054 -0.218,0.164 -0.381,0.272 -0.327,0.272 -0.599,0.545 -0.926,0.872 l 16.174,25.812 17.971,-28.699 c -0.528,0.009 -1.055,0.046 -1.579,0.109 z m 89.909,-32.837 c -1.688,-0.926 -5.01,0.381 -5.01,0.381 1.781,0.436 3.528,1 5.228,1.688 -0.227,-0.665 -0.301,-1.372 -0.218,-2.069 z m -7.243,-5.609 c -0.616,0.418 -1.297,0.73 -2.015,0.926 l 1.035,2.178 0.654,-0.49 -0.271,-0.762 1.035,-2.015 -0.436,0.163 z"
         fill="#ea7200"
         id="path857" />
      <path
         d="m 268.128,200.49 c 0,0 -20.476,-16.991 -45.908,-21.238 -0.925,0 -2.777,3.866 -2.777,3.866 0,0 2.723,-2.45 3.54,-2.45 21.728,4.193 45.145,19.823 45.145,19.823 z m 11.98,18.352 c -1.014,6.679 -0.681,13.493 0.98,20.041 -0.544,-5.064 1.199,-16.882 1.199,-16.882 z m 5.283,4.683 c -1.019,6.248 -0.779,12.636 0.708,18.788 -0.49,-3.866 1.471,-15.139 1.471,-15.139 z m 5.337,5.228 c -1.019,5.418 -1.001,10.98 0.054,16.392 -0.272,-3.05 2.125,-13.234 2.125,-13.234 z m -62.517,-18.624 c 0,0 4.194,2.505 11.001,7.623 -1.688,-2.941 -6.099,-6.099 -10.946,-8.985 l -10.619,0.762 0.816,1.252 c 3.213,-0.217 6.481,-0.381 9.748,-0.653 z m 132.387,13.668 c 0,0 -15.957,-22.327 -46.562,-44.873 2.614,5.337 5.01,10.945 7.189,16.663 0.327,0.817 0.271,1.525 -0.381,1.525 -6.754,0 -30.442,-13.07 -53.695,-10.728 12.09,11.545 24.125,27.664 12.471,21.783 0,0 12.144,7.46 26.412,22.545 10.673,0 12.797,1.797 13.396,3.267 1.199,2.887 2.995,8.005 9.966,16.229 3.212,0 3.757,-0.218 4.956,-3.105 0,0 0.871,3.649 -0.763,6.372 14.541,11.491 42.749,22.982 47.051,22.982 1.742,0 -1.851,-15.738 -10.02,-34.745 -2.667,-11.98 -4.138,-15.356 -10.019,-17.916 z m -99.494,-60.338 c 0.009,-1.51 -0.064,-3.019 -0.218,-4.521 -13.124,1.361 -20.911,4.466 -23.907,5.882 4.575,-1.307 12.743,-1.688 24.125,-1.361 z m 99.113,-7.787 -20.149,31.966 c 1.524,-0.763 3.267,-1.634 5.119,-2.506 l 21.02,-33.545 c -13.287,2.613 -37.085,6.916 -60.066,9.366 l 1.634,2.778 c 18.897,-2.069 38.283,-5.391 52.443,-8.06 z M 252.718,258.814 c 1.143,0.054 2.506,0.218 4.138,0.327 l -5.935,-9.367 c -1.471,-0.217 -2.941,-0.544 -4.411,-0.871 z m 35.397,11.219 c -10.728,0.871 -19.223,1.089 -23.634,1.197 -2.233,0.054 -3.485,0.054 -3.485,0.054 l -0.327,0.272 15.248,24.342 16.392,-26.248 c -1.416,0.164 -2.832,0.272 -4.194,0.382 z"
         fill="#006d75"
         id="path859" />
      <path
         d="m 275.916,289.364 12.198,-19.332 c -10.728,0.871 -19.223,1.089 -23.634,1.197 l 11.436,18.134 z"
         fill="#ffffff"
         id="path861" />
    </g>
  </g>
</svg>
