<?xml version="1.0" encoding="UTF-8" standalone="no"?>
<!-- Created with Inkscape (http://www.inkscape.org/) -->

<svg
   width="250"
   height="250"
   viewBox="0 0 66.145832 66.145835"
   version="1.1"
   id="svg5"
   inkscape:version="1.1.2 (b8e25be8, 2022-02-05)"
   sodipodi:docname="GreenCircle.svg"
   inkscape:export-filename="/Users/randa/Documents/django_projects/nhltournament/bracket/static/images/LowerDPI/GreenCircle.png"
   inkscape:export-xdpi="38.399998"
   inkscape:export-ydpi="38.399998"
   xmlns:inkscape="http://www.inkscape.org/namespaces/inkscape"
   xmlns:sodipodi="http://sodipodi.sourceforge.net/DTD/sodipodi-0.dtd"
   xmlns:xlink="http://www.w3.org/1999/xlink"
   xmlns="http://www.w3.org/2000/svg"
   xmlns:svg="http://www.w3.org/2000/svg">
  <sodipodi:namedview
     id="namedview7"
     pagecolor="#ffffff"
     bordercolor="#666666"
     borderopacity="1.0"
     inkscape:pageshadow="2"
     inkscape:pageopacity="0.0"
     inkscape:pagecheckerboard="true"
     inkscape:document-units="mm"
     showgrid="false"
     units="px"
     inkscape:zoom="0.74118967"
     inkscape:cx="396.6596"
     inkscape:cy="346.06527"
     inkscape:window-width="1512"
     inkscape:window-height="916"
     inkscape:window-x="0"
     inkscape:window-y="38"
     inkscape:window-maximized="1"
     inkscape:current-layer="layer1" />
  <defs
     id="defs2">
    <linearGradient
       inkscape:collect="always"
       id="linearGradient993">
      <stop
         style="stop-color:#00ff00;stop-opacity:1;"
         offset="0"
         id="stop989" />
      <stop
         style="stop-color:#00ff00;stop-opacity:0"
         offset="1"
         id="stop991" />
    </linearGradient>
    <radialGradient
       inkscape:collect="always"
       xlink:href="#linearGradient993"
       id="radialGradient1483"
       cx="125"
       cy="125"
       fx="125"
       fy="125"
       r="125"
       gradientUnits="userSpaceOnUse"
       gradientTransform="matrix(4.227214,2.1717876,-0.69375326,1.3503362,-316.68259,-315.26548)" />
  </defs>
  <g
     inkscape:label="Layer 1"
     inkscape:groupmode="layer"
     id="layer1">
    <path
       id="path846"
       style="fill:url(#radialGradient1483);stroke:none;stroke-width:12.2341;stroke-linecap:square;fill-opacity:1"
       d="M 125 0 A 125 125 0 0 0 0 125 A 125 125 0 0 0 125 250 A 125 125 0 0 0 250 125 A 125 125 0 0 0 125 0 z M 125 25 A 100 100 0 0 1 225 125 A 100 100 0 0 1 125 225 A 100 100 0 0 1 25 125 A 100 100 0 0 1 125 25 z "
       transform="scale(0.26458333)" />
  </g>
</svg>
